<mxfile host="app.diagrams.net" modified="2023-08-10T07:38:42.989Z" agent="Mozilla/5.0 (Windows NT 10.0; Win64; x64) AppleWebKit/537.36 (KHTML, like Gecko) Chrome/115.0.0.0 Safari/537.36" etag="iclDS5Ahmnc-EwzhTnt9" version="21.6.7" type="github">
  <diagram name="Page-1" id="c7558073-3199-34d8-9f00-42111426c3f3">
    <mxGraphModel dx="1430" dy="1313" grid="1" gridSize="10" guides="1" tooltips="1" connect="1" arrows="1" fold="1" page="1" pageScale="1" pageWidth="826" pageHeight="1169" background="none" math="0" shadow="0">
      <root>
        <mxCell id="0" />
        <mxCell id="1" parent="0" />
        <mxCell id="5egx_rfJFbxb1lUPj-kc-96" value="센서" style="ellipse;whiteSpace=wrap;html=1;strokeWidth=2;fontSize=30;fillColor=#d5e8d4;strokeColor=#82b366;" parent="1" vertex="1">
          <mxGeometry x="170" y="240" width="120" height="80" as="geometry" />
        </mxCell>
        <mxCell id="5egx_rfJFbxb1lUPj-kc-97" value="" style="endArrow=classic;html=1;rounded=0;exitX=1;exitY=0.5;exitDx=0;exitDy=0;strokeWidth=3;" parent="1" source="5egx_rfJFbxb1lUPj-kc-96" edge="1">
          <mxGeometry width="50" height="50" relative="1" as="geometry">
            <mxPoint x="540" y="410" as="sourcePoint" />
            <mxPoint x="400" y="280" as="targetPoint" />
          </mxGeometry>
        </mxCell>
        <mxCell id="5egx_rfJFbxb1lUPj-kc-98" value="Data" style="text;html=1;align=center;verticalAlign=middle;resizable=0;points=[];autosize=1;strokeColor=none;fillColor=none;fontSize=18;" parent="1" vertex="1">
          <mxGeometry x="305" y="245" width="60" height="40" as="geometry" />
        </mxCell>
        <mxCell id="5egx_rfJFbxb1lUPj-kc-100" value="온도" style="whiteSpace=wrap;html=1;strokeWidth=2;fontSize=20;fillColor=#dae8fc;strokeColor=#6c8ebf;" parent="1" vertex="1">
          <mxGeometry x="450" y="190" width="120" height="60" as="geometry" />
        </mxCell>
        <mxCell id="5egx_rfJFbxb1lUPj-kc-101" value="" style="endArrow=classic;html=1;rounded=0;exitX=1;exitY=0.5;exitDx=0;exitDy=0;strokeWidth=3;" parent="1" edge="1">
          <mxGeometry width="50" height="50" relative="1" as="geometry">
            <mxPoint x="675" y="750" as="sourcePoint" />
            <mxPoint x="785" y="750" as="targetPoint" />
          </mxGeometry>
        </mxCell>
        <mxCell id="5egx_rfJFbxb1lUPj-kc-102" value="ID" style="text;html=1;align=center;verticalAlign=middle;resizable=0;points=[];autosize=1;strokeColor=none;fillColor=none;" parent="1" vertex="1">
          <mxGeometry x="700" y="720" width="40" height="30" as="geometry" />
        </mxCell>
        <mxCell id="5egx_rfJFbxb1lUPj-kc-103" value="습도" style="whiteSpace=wrap;html=1;strokeWidth=2;fontSize=20;fillColor=#dae8fc;strokeColor=#6c8ebf;" parent="1" vertex="1">
          <mxGeometry x="450" y="300" width="120" height="60" as="geometry" />
        </mxCell>
        <mxCell id="5egx_rfJFbxb1lUPj-kc-104" value="" style="endArrow=classic;html=1;rounded=0;exitX=1;exitY=0.5;exitDx=0;exitDy=0;strokeWidth=3;" parent="1" edge="1">
          <mxGeometry width="50" height="50" relative="1" as="geometry">
            <mxPoint x="650" y="279" as="sourcePoint" />
            <mxPoint x="760" y="279" as="targetPoint" />
          </mxGeometry>
        </mxCell>
        <mxCell id="5egx_rfJFbxb1lUPj-kc-105" value="ID" style="text;html=1;align=center;verticalAlign=middle;resizable=0;points=[];autosize=1;strokeColor=none;fillColor=none;" parent="1" vertex="1">
          <mxGeometry x="675" y="249" width="40" height="30" as="geometry" />
        </mxCell>
        <mxCell id="5egx_rfJFbxb1lUPj-kc-109" value="" style="endArrow=classic;startArrow=classic;html=1;rounded=0;entryX=0;entryY=0.5;entryDx=0;entryDy=0;exitX=0;exitY=0.5;exitDx=0;exitDy=0;fontSize=11;strokeWidth=3;" parent="1" source="5egx_rfJFbxb1lUPj-kc-100" target="5egx_rfJFbxb1lUPj-kc-103" edge="1">
          <mxGeometry width="50" height="50" relative="1" as="geometry">
            <mxPoint x="400" y="200" as="sourcePoint" />
            <mxPoint x="400" y="355" as="targetPoint" />
            <Array as="points">
              <mxPoint x="400" y="220" />
              <mxPoint x="400" y="250" />
              <mxPoint x="400" y="280" />
              <mxPoint x="400" y="330" />
            </Array>
          </mxGeometry>
        </mxCell>
        <mxCell id="5egx_rfJFbxb1lUPj-kc-114" value="" style="endArrow=none;html=1;rounded=0;exitX=1;exitY=0.5;exitDx=0;exitDy=0;entryX=1;entryY=0.5;entryDx=0;entryDy=0;strokeWidth=3;fillColor=#dae8fc;strokeColor=#000000;" parent="1" source="5egx_rfJFbxb1lUPj-kc-100" target="5egx_rfJFbxb1lUPj-kc-103" edge="1">
          <mxGeometry width="50" height="50" relative="1" as="geometry">
            <mxPoint x="600" y="270" as="sourcePoint" />
            <mxPoint x="650" y="290" as="targetPoint" />
            <Array as="points">
              <mxPoint x="650" y="220" />
              <mxPoint x="650" y="280" />
              <mxPoint x="650" y="330" />
            </Array>
          </mxGeometry>
        </mxCell>
        <mxCell id="5egx_rfJFbxb1lUPj-kc-115" value="&lt;font style=&quot;font-size: 19px;&quot;&gt;측정 관리 DB&lt;/font&gt;" style="shape=cylinder3;whiteSpace=wrap;html=1;boundedLbl=1;backgroundOutline=1;size=15;strokeWidth=2;fontSize=19;fillColor=#ffe6cc;strokeColor=#d79b00;" parent="1" vertex="1">
          <mxGeometry x="760" y="235" width="170" height="90" as="geometry" />
        </mxCell>
        <mxCell id="5egx_rfJFbxb1lUPj-kc-116" value="" style="endArrow=classic;html=1;rounded=0;strokeWidth=3;" parent="1" edge="1">
          <mxGeometry width="50" height="50" relative="1" as="geometry">
            <mxPoint x="930" y="280" as="sourcePoint" />
            <mxPoint x="1050" y="280" as="targetPoint" />
          </mxGeometry>
        </mxCell>
        <mxCell id="5egx_rfJFbxb1lUPj-kc-119" value="WebServer" style="whiteSpace=wrap;html=1;strokeWidth=3;fontSize=18;fillColor=#f5f5f5;fontColor=#333333;strokeColor=#666666;" parent="1" vertex="1">
          <mxGeometry x="1050" y="250" width="120" height="60" as="geometry" />
        </mxCell>
        <mxCell id="5egx_rfJFbxb1lUPj-kc-121" value="" style="endArrow=classic;html=1;rounded=0;strokeWidth=3;" parent="1" edge="1">
          <mxGeometry width="50" height="50" relative="1" as="geometry">
            <mxPoint x="1170" y="280" as="sourcePoint" />
            <mxPoint x="1270" y="280" as="targetPoint" />
          </mxGeometry>
        </mxCell>
        <mxCell id="KLvZAQ_3Piqn9TuXZtap-2" value="" style="shape=image;verticalLabelPosition=bottom;labelBackgroundColor=default;verticalAlign=top;aspect=fixed;imageAspect=0;image=data:image/png,iVBORw0KGgoAAAANSUhEUgAAAUYAAAFFCAYAAACQQ0ReAAAgAElEQVR4Aey9h3tc1bX3//41uTi5Je/9ve+b3CBNk+QONj2EEC7hhpCbEEiAmwahhBJSKUlICMTYkqbPyAXjgsHYuKm30UiaIs2oushdVpvy/T3fXWbOjCRbsmVbso/8bO9zzpw5M7PP2p+z9tprr/W/YP6ZLWC2gNkCZgsUtMD/Ktgzd8wWMFvAbAGzBWCC0RQCswXMFjBboKgFTDAWNYi5a7aA2QJmC5hgNGXAbAGzBcwWKGoBE4xFDWLumi1gtoDZAiYYTRkwW8BsAbMFilrABGNRg5i7ZguYLWC2gAlGUwbMFjBbwGyBohYwwVjUIOau2QJmC5gtYILRlAGzBcwWMFugqAVMMBY1iLlrtoDZAmYLmGA0ZcBsAbMFzBYoagETjEUNYu6aLWC2gNkCJhhNGTBb4Kq1QBaAsVy1DzIvvMAtYIJxgRvUvJzZArIFjEA0bpvtsxRawATjUrhL5ndcoi1AIGZU0XBcoj/lJvvaJhhvsht+8Z+rO6+udafWdXqenVxfZ7b64t/mUq/OdtWZjl/8WjO9g8f0784gC1nyW9ncIHn2a+vr8jp6e/azzVcWTwuYYFw892LBv4nuinOp8x2XZ7MjE4IsKUOZEtvZbBrZbAbZTBaZTFa+dcZvz9cyomQzabAgI/cv8qYZrzTTwdw3zQKpbBapjC5AOit/hfG3z3SN6b87D0P+/qwqGaRz/1LgHlFZ+BmzX98E48xts3iPmmBcvPfmir6ZEQiX3jaeoaFIIBKELJOqTIg6m00hm8kIxpFzQhma9m0VFAUMCUW+h2BMS1heoQbFbyy+qYLiVCaLSZY0a2Aqm4ej/op8j/jL/dzchkE7zD8QskhBlilkMIUUUuL/SaTBI2wh47XF9fUl9WeJ32k8K/eCubGIW8AE4yK+OVfy1XT/nGud15wEbpSWODMYpSaZf4f+nvqzeAUqkplsVtYG7OhzZqr1dVjzdV5H43kyCxjLlIKf8Ri3JzKycJtwTGlAktPTPlQdpFYrMVugKWsoZjElUKjBOCH2+KpsCeNlp/Ne/xJ9lvFXmtuLtQVMMC7WOzPH78XuVvA37UDBq3PYkR1Z2tT0UFJrTqx5TNrXinFCUFC3pF45DmBslnIBwEzFeD5fHwVwHsBZAGdUfY7Hs8CFbP76/KyCQkAqkBKOhKgYWms2kZAzFQHH/K/Sw2giUA6lqSVSd8xDkWfnLjuj8izbM3/WHG6Becp1bwETjNf9Flz+F5jWIYsPXGp/lo/WbzNONGQg/0lU5i2PxQNtwo1AI8AIs9MATgE4aSgjAIxFv8bzdNHH9Hkn1Ht4PQFHA1yNQOU2IUk4i0JAKtujsIcKVTYjbZ3C3lkEyRzmpv9642/XA+6ZwMj2y/9xz3hW/hVza/G2gAnGxXtvLvrNNLxydW7DoMJo5ae4nulcHlN/3NRv0QAwTsMQOBcyWZxPZ3A2lcWpKWBkCjg2CQxNAMlxIH4B6B4FOkeBjvNA23mg9RzQcg5oPgc0qdJ8HmhhGZ1eWi8ArWNAG8s40DEGRMaA3jGgfwwYHAeGJ4FjU8CJFHAyBZzJAOez1CqzGMtmMZ7NYjKbwVQ2gzRBSBtnWhfuizF/XoPUjaD0Yqkd5ydadLsY65maM3eZnFFAn5V/xdxavC1ggnHx3puLfjPdzYpr8SbjQd2DjceoJBmsatqOp7U/PQw2Dmeppekh7XEAyQkgNppC59lJtI6Mo/7oKA4NnMdnyXPYETuFYPgEvKETcLYdx8aWY3i/cRjv1g/hr7X9+MuRJP58pLew1Pbiz7W9+IsoCbxTl8RfG/rwbtMA3m8Zwoa2o6hsPwpPxzFs6TqBnZER7Ok5hf3953Bk+AIaToyj9dQkIheySE4Bg2ngWFZqqnoYzmE5NUqCPWeDVHZM/QDQzcW6qMnmtZ+/ecVXyb9ibi3eFjDBuHjvzUW/me5uxo5c0Jm1IqSuYjyfICQcCAltw+MQlsPVYQB9WSCWBsKTQOs40DAKHD4LHDgL7D8L7D6eQU1yFJ7YGVR1ncT77cfwl6ZBvFU/gN8f6ccr+3vxy0+i+PnHUfxkdwRP7+jGk9s78fi2ML6/pR3fq2nFYzXNqjThsZp8+V5NE763uRn/vaUF39/aisc/bMcTH3XgRzs78fSuLvx8TwTP743j5X29eP1AEn+oHcCfGofx19Zj+EfoBNyxc9gyMI6Phqew50QG+88Ah0eBulGg+QLQMQ7EJoFkChjMAoQ8h+2EJ00AfCjoKSe2E9s0PxSWjanbUjWtWd2ALWCCcYneVHZOPQpk59Uaj645GysmHZTmo4fC7PQEIjVAIwwTALoBtEwBB88DO09k4eufwobIebzVOoJXjwzihYP9eO7gAP5nbw9+sKMT3/2wHY9sacVDgWZ8w9uAb3gb8XVvM+5xN+HO6kbc4WzGemcz1jlbsM7ZituqW7C2qglrKhuxelMD1myqN5Q6rNlUhzWV9aKsrWoAy23VLI243dmEdc4mrHc1405XC+5yteBudzPu9TTjfm8zHvA141v+Zjy6LYQf7urGM3vjePZAEi/XD+O3rSfxVug03oucg6dvAtuPZbDvLNAwAXQC6AUwoGyYfFDoiRxOJKXE8FsjUiPRWBsfTcbj3Db/lmoLmGBcondOd0HdLSUQpYOJHhpPICtmifMaYhZnUykMT6XRM5FGx1gGDaMZfH46hZ3HxhHsH0VVzzm803karzcdx7OHh/HkZ/14dFcvHtgawT2bo7hrSwy3B7uxyhvGck8Hyl0hOJztsFW1wV7dDrszDJszDGt1J6zVXbA6WbphdXXD4uxGaXUXSqs7UVrFElalA6VVqlR3wFIdnqV0wlLdBUs1rxNBaVUXLFVhWCpDsFa2w17VhuXuENb4OrGupgt3b43i/o968a3dffivTwfw+P5B/Lz2KF5tPoE3O07h/dg5ePsn8OGxFPaOpNFwJitsmP0TwPGJDM5OpjE+NYVMagLI8JHCVmbLs9VTQHZKlUlVs6X1o4nnFA7Hl6io3ZRf2wTjErztRihqTZDajbYN6llh2gQ5i8uhIoeMgwC6xtI4cnIMuwbPwhs7gb+19eO3h6N47pM2/PijJnx/WxO+XdOI+zz1WO9swBpnE1Y6W1DhbEOZKwyHuxMOTzccvijsgRgcgTjsgR7YA71w1CRQtrkPjs39cNQMwF4zAFuwXxRrsB/WYB+sgT5Y/UlYVLH6E8iXXrkdSMJWVKyBpHxvoB+W4AAsgUFY/P2w+Hk9XqMXNl8cdn8MDn8UZb5ulHm7UObpRLlHQny1pw13+Fpwr78J3/DV4+FgA37wYQt++nEHXt0fwTsNSXi7jmNP8izqT0ygezSLIU7qZORQmzZX4lHMdgvXJE7qpJDOTCGTNUJRAzSPUX3PlqC43ZRf2QTjErztWmdh92NHJRAJQ9rJCMFjADg07soAjePA57QLjqSweXAMG7tH8FbzAF49ksDPP4vih7vC+K+tLXjAV4+7XUew3lmLtVW1WL6pFmUb62Hf2AjbpmZYq1phqW5HaXUIFlcYVm83bH7CMQ57sAeOml44NhvAuFmBsUaDsU+CUcCRkDMUIxxzQOyDLahLErYgC69BwA4oOPbBIq6TgDXQC5soEo42bzesni7xXS3OECzVbbBVNaOsqgkVlfVYsekIVm86jDuctfi6twEP1zTjB9vb8bM9XXj1QA/ebhzExs6TqOm7gF1Hp/D5qTRaxoEeAP2qjfnQYbsTlHl9UiOw0NdTH12C4nZTfmUTjEvwtrOTaU2RnZKdk/ZCApGdNgagbgrYeRrYlBjDH1qP4bmDvXh8dxgPbW7C3e5arKuuxZrKOqyqasTKqiasqG7GcqEZtqLC3Y4KT1hoXHZPJ2zuTljcYZS6wihxdaDEFUYpj3m7YPVHYAtEYQvEZQn2CEgRVBZ/YsZS6u9Fqc9YemDx6dILi4/vo1ZpfL/xekmU+pPqGj0o9ffAEuiBNdgDmy6BGKz+GKy+KCzeCCwegrIT/D0Odxhl7hDKXe1Y7mrFCmcLVlU3YnVlHVZ/cAi3bzyEu6sP46FgM76/qws/O9iP37Ycw6bkKD4+B9RNAl1KA+fDiJqknrThfeGfBqE2dbDmsav+pz9Y11f9A2/MDzDBuATvKzuZHtKxYw5OZdE5OoUjI2PYMzyKYN8o3u06hVebjuKpA3349q4o7t3WiTWBEMq8IVid7SipbMfXNnXg1qpulDqjKHXHYPHEUeqJweKNi6Ep4Wb1x2Hxx1Dqi6LUF0Gprxul3i6U+rpg8UkwWgNRWAkiUeKwBnpg8RNkqhCSuhCKAow9KPXlyzQw+vRwW8PRcI1AQl7DTyjGZQnEYQn2FJZAD0oD8vUSXxy66M+1+OKwsniisLhpt+zArZtaUVrZCmt1G8q9YazZEsOdO/vw0CcJPHW4H6+1DeNv3cPwJkbwybHzaDmXQs9YBsdTwNk0nclVnAxlieS9IiyvCRg1DIvrJSjj1/srm2C8ynfAKKP5j+LRvFahz8m/nrdN5SdS5GyyHjJzRQhda7ozdKXJYnPiNP7alMArn4Xxow8b8W1/Le6sOojVlYdRtvEI7JUNsDrbYKWWR8i5o7jVFUeJuxel3gRKfbKUeHtR4tXAItgIOWpkcViDuhCChKEuhVAkGIXGGEjAMlPRwNS1j1qiLrQXJgtLgEPlomsJwEptsZQgZiEYBQwJRFX8PTkg3uqNQxYekxprTiulxuqNw+KNweaLCRMB7aeOQAx2XzfKXS1Y667DPZ6DeKTmAJ7cXovXDnRiQ/sgdvRfQOM5IDYFHFV2Xdp3OcPN+6V9J/kwk4DUiyqlHBjv+0W3c4KiN4zXUcfyLxUK2EUvbL5Y3AImGItbZD77MwmheD9fyMslO4PWGKQoc7mZXE1BbaJAo1Ar1HiMEyratYYgpEtJRNkN954BthzNYGPPGN5sP4nnDybw+EchPBxoxD3OI7i96ghW0E64qQG2TY2wVrfCKmyDEdioBXqpHfbkoCiGrwKOBKUGo4KiHqoK4BF61ApZOFyldmksPbAKmBqHvlrrY23QJPV2DooSjvnJGDkxk4PXtKG1EdwKjgSi0CQNtdJMS3w9AvoS/EYwqs/19QgN0ubnZFIP7P44bByOeyOwcfKpugErqw5hvesA7vMexne2teKpPRH86tAA/tQ6guroKLYPprB/JIumUSCakRNe9A+lexSH23KKRq+8lnIgZYL/S5mZJoL6Ba7vpo+WiIYhlyxOC4Am1oAbhE+/d9pFzQMXawETjBdrnYu9pgVuWq0P5LU+DT4JyAwYtotizeNaI6TfoZB5tUqNUKTtipoHZ5Tpa9cG4JNRoHoghd+1n8ZT+5J4ZGcMX98cxjpXMyo2HEHZhiOwb6hDWWULKmhL83SJWWS7Nwq7LwZ2epu/F9YcjBLSpke7Xu6Y1t40xAyA1BqkGGJzmM0y0+v6vRepZ/q82Y5piM5Yz/T5+ljR5892fXFc2jmtApASkmKo7YuDkzkOTwhlbGdXA1Y4G7HK2YS1rhasc7XiXncLHtvejV/s78cbrafhSk5hH5dDcpWQ8pGk9sj7ygBmU1lG7GFcSxXbMrcEsQiOWpxyTqs6nmVaBD5LqwAXucfrbGDkdcy/ObeACcY5N5XhRC2srLU6mFMJ9UEp4Bp+eTgSiRKMhCI7ipjVVOGxRFxXRo7JyvW/ca7aGJnCh/0X8H7kNF5rOY6nDg3i4U/6cOeHCazY0gcHh5qeGEqqu2VxdsPi5pCQLiy9AoQ2fwLGkgejAYIXhcbNfZ4EZBRWXzesvk6hRVq91CZ7YPUkUOaJYW2wB/dtS+A7ewbwk4PD+H3rSWyKn8OO4THUn5lAYjKF05lJjGXHMYlJEd+Rbj7pTAqZLEEnRxEFDBOypp6aaYYJUuu9VZwfRogsiPdjBKOWTXENg/yam5dsAROMl2yiGU7QgmasC06TwyLKZTEY9St8zehqQ3sUh1ssYkIFQPsk8PGxNN4PHccL+6J4JNiAO52HsbLyCMoqG2GrDglbYak7LiZORCf19sLKIoBYCEMTjJcLd2qSnKiRs9yciee2nDCipt0HmycOm7MLjsp2LK9swe3VXAnUgO9va8GvDkSxIXwMn45MomNSeg5wFEBPAo4IeM85OuBDkvKixSq3RdgJjVGBMcuzCjVGOf6gNqkWwuuL6LpAPs2dS7WACcZLtdBFX6fUyUGxjF+YtxMZoSjtSoYhErVDZXMiEAlC2qESWRlFZt/JNALJUbwTOoGXDvfhiT0RfGtLO9a5GrG8qhFlVS2wOztgc3dLjWUOIDRCkdumxjgXSGoXIglGzs4LFyB/VIBSmh4IxqR4GNk8MdjdEVR4urHK04Hb3C2429eMb28L4alPovh13SD+Hj6FQHIMe09m0DoB9GSlmxV9IglHygolSv/LDUlUioh8aggdBk7WBRClWM7wl7/mLCfM8J6b9ZAJxsu+8xQzCqUMXUpbD5/h8lme1xQp6AVgVE9wnseOoFem0P+wcQrYejyFN9qG8dQnnXgg0IA1VUdQXlkHOydQKlvEUjmbm/ZCOjInYA8kZyw2f7Jg6GyCcS4gLD5HgbHAnirhKG2rPF+CkXBkmzsCfajY3I8VXAXEVUJVLSivbMSqykbc6W7Bw1u68D+f9ePt0BlsG8miPiXtx/RBpfY4KWzPEnbyYaslSo2LRbRxKUT8n0cLMFewo3GpkZivL1vsb5I3mmC8zBstsUjzOU3pE0gJmxHxKEFYWEtgCplV0sxh9KkUkBzLouHEBWxLnMY77YN47nAcj33Shfu2d2DN5jDsgW6U+qO41RvD1zw9uNXbh1L/gFgOZ/X3XRR+xTA07psaYzEEi/dngqKebNITTpzYoZsTnc3pdN6H0gBX5gzK1Tl0QvdKNyAOtcu9PVgd6MPdW5J4dHcSvzjYjz+FjqGm7yxqT44jOZHGuakpET+Sj1tKFx+8OpJ4TnsU+qSGnkGAKVs5IZMSKuEqrZf57dyJhjebm8YWMMFobI15bUvBk+IrZxiNEZ41GAlAFk6w0PVG+yHS361zEvj8JPBB6Bie/ySM7wRqcUflfqypPoKV7iYs93fCQd9B4YJC9xJ2wr7cGmFqKwTcbMUIwuJtE4zFIJxhPzfbbgSi3uast3yPWMXjle4/Jb4EWHivCE3temTjJI07Bmt1BNaN7ajYUI+1HxzEw8FG/HJfFB90jmD/6Sy6JvIuPhxN6Gg/lCHqjvP9kwjMa4rcKtIx53vJm+J8E4xXcJuluMlhj55RVAMeIcSEIw3qLBRw2hE5ZG46D+wYzOD90Gm8fKAPP94VxcOb23G3pwlrqhuxwslleR0o80WEP51wbhY+fFwNQjDKQAy6080ERptv9okXQtIE4wwgLJ6Vz4FRu/7MUBvcfLS7E0EptukWpQsfYN5eWDw9sDojcFR1iEmade42PLi5A0/ujuDlQ0m813EC2wbHceQ8EAcwpMwtNLsQjhxJM0UD51gKx9BXIMjmW6e1gAnGaU0yvwOUT+Mf9/XECxMxMWvdhTRwQgV/bZgEPH1p/LruGB7b1ol1G+uwurIVK6vbsdzZgQpXJ8rc9JmLwu7tAQFXsBJEB18Qq0MMGkmRO06xhli8b4JxLmDUPpAzAJHQVOu7836P9H3MH9eglJDkyp0kLAE+2Ohe1QObKwp7VRfKNrVh5aZGrKuqxaPbw/hV7SAqE2M4wHQOWalBcgabDuIyM0NWAPKSYNTwLK6NAmtuz9gCJhhnbJbLO1gARQ6dM8C5FDB8DmgdyWJL7ALeajyOn+xL4j+3deMOfxcqnF2wu3tl8SRgEyUJmzcJG91AWIo1RPotGoZpersYfhfbN8E4HzBqQBprCUDtAF5YS0BKSPJzuLY7idJAH0qC/SgJ9KPEP4BS3yBKPYOwuJMCkgzrtsYfxv2bQ3jykwher++DM3YSB06lEJuQbj0cTuc4pzeUuBbs6p3Z6ssT8ZvmXSYYF+hWU0vkUId2RA6b+YQfyEDYjPYfzcLdfQEvf5bAw54G3FVVj5Ub6lBRxRiHEdg8vaokYPWy0P0jCSvdQHLrhmVoLbkOWUWwEcM0CcmLQXCm10wwzhWMRm3RCEa+X8ORIFS2XnH/DPdQ3UvOWtPfUUzQiDiSjCU5AItvUNxr4erj6oStshm29w5gzcbPcb/rIH66twt/7xzBxycyiCjXHsoXh9a0WxOU+ZlpTUEjPWfYXiCZv5EvY4LxCu6usDEK9wnaGeVQhy4XdL1g3L79p4DKrvP49eEhPLG9C9/ytWHdpgasrmzB8qp2lFNb9HD1hHLK9tL1I+/+IaBoiDeYW5+sothwad9M0JvLMROMcwGjEYp62wBHbUsUdQIWbx+s3n5ZPP2wevph89D5uw9WFvF6nziPkNSFD0O7rwdlvpgI9VbuasMKZxNWV9fi3mAzvru9DS8fSWBT9DT2ncqKsHK0PVLWdLgzyl/eiDOLkze5OcufRupFTpnlnTfmYROMV3Bfs9kMMpmUWPvMiRYKKgU2PAXsHwXei4ziqU97cH9NGMs31KJ8QwMcG1pQVtWJcncMDq6W4GxlroPJmUwx7OJkC21SQZZeEWvQGozBGtTxD/W654tPsswGyfxnzgEQue93s52rYajdc9S+bg8d1EI8zAi8AVi8g7B6hkSxuQdhcw/A5u5XhZBMiqJHBfJBKJdtlgUTKK/pRUUNIdkFm7MVVjr0f3AA9wcb8aNPOvHnzhHsPikTew2oUGdac8x7z0pM5sbcl5BxIxT19iXecsO/bILxMm8xBYjiJ2ees2JZV88kcOjkBDzRE3i9NoEffhzBPTVhrAzGUO6NwMFhszMKh7sXDm8CNg67cp2McQppi9L2KBVmK5hQYGTIryiswW7YAoSjCcaCyQ3djgtWq0kUMTOtXHRyEyvqAaHAyAeZxdcvoGjxDMPqOQqrexg29xAIR7trAHZ3P+zuPthpT1S2ZDFLrb6vSM3g7xUpIuw1CRFwlyMEC6Oke9qxytuMu/wNePSjNvxyXxcqw8dw6NiEyOGtI/dIHBYOrucq3hqIup7r+27U80wwXuzOaikpqukqQfGjPZG+ZgwHFpoAdh2dwLsdx/CLzyJ40N+A9a5GVFS3oswbR0WwD2W+BOyeHji8vXDQnUb5IeZDcWmNsSj2IAPGipBf9GmUQWFFxGwRKWf+GqOYrFkwgNzIWqQBjsVQZPsVgJFDYwVHoTUOwOoZgM0wnJbaopxgE7bkgnsgJ2yEeYQpGoK9EICs6UWZvxtlrlYRV3PVBwdwz6b9+OnuTrzXNoI9wxnhD8t8PsahtZykobFHO3dL5zL+L/6MMq36gD50sS5xs7xmgpF3WkvETLV+nY/jNMCcR3SZoG8iYyTGs8C+M1lsjJ7Erw734DtbmWypGbd52rBShNDn8r1+OPz9sPuSsBOK3l7YVeQb6ecmJ1BERysKyEofRlmMcJRO38b36pnpudc3MtAW6rcpMOagyH3DtQvAKCdXhN1Q2Bm1TVFNpIlJGD25lg/0oa+X83ek3VjnrxEmlF6R4KvM241y+rZWNmPFhlrc62zCY5s78NK+fnzQcRqHTksfWeb80U7hYpFqltF35OoZWsILwEiZZlFyz8r8ky1ggnEmGBqPsZ24z0cwoTgFTE0BZzNAZAL45GQGf42cwdP743hgSysqKmthq26DQ8Q/pFY4AKvvGKy+Idh8/bARjr4eCUY1eSJglgOgBuFMNeFoKDO47JhgNIDLCLGrsW0EoxhO68mzwto6wwolDURdT3vI5eRB2h8ZWq6M6+IZTm5TBxwftGLFBy24z9uJH++MYUPXeRw8I2XyaFa69kxhCunsONKYEKHJJCDlgDsn00Y4Gqmo+4Dx2E20bYJRg08LQnGtX08D6bR02D49BcRGgZ39F/DbI7343q4O3BVowipvK8oZq0/kN6EjL1N8HoXFdxxW3zCsvgEBRh0sVgSMvSK4zezPODc4XkOAXA0oLYZrFoBRw/Dy2nUaGAvkIgl7kClph+AIDqEsMIAybwLlrhiWV3XiLmcLfrSjC2/W9WF78hxamfY1K5efjmMKEyAiUyrMSREYjSbJYtnn/k36Z4JxLjc+C0xlgFMZIDkFNDKtQHISf2gYwqNbmrHedQQVVUdQ5mpBeTAKW42aURb+aoTjMKz+QVj9/cq9RkXRNvghzg1mVwLC4vdeXgfWGo5Zq/ZTcNSzy5fbLhcFI1PKBvtEnm7HliGUbx5EebBPBKWwV3aIddd3Oxvwva1teL22H56eszh8NoN4Jp+DRkYPl+EoBO/4n9YWWRdDUfSL4oMz7c+lAy29c0ww5u5Z3jjNLcoKH6aTjKadBs5mgfgU8NlIFu93j+One5NiffN6dwNWuhpR7mlFmS8MB11qalRGO9FpqDkOCChKv0RtK9RD4mJgXat9E4yXC7Hp76O2eGXteXEwGly3aphrm6HmeuHwx0XainJnO1Y5W7He3YpvBlrx9MedeLfzBPacnEJnViZN44IDThZyEYLSGfNgLOBdwc4MxJzp9VwnumE2bnow5nGog0HIWkCR0XCywMgkEDmbxcdDafw5dB5Pfn4Cd9VEsdLVBjrjOrwhOPydsNPHsCYOa41KzJTLT8Lk8tpmaILxSiFyI77/YmC0MF1soBclgV6UcjRSw1nrHtiDcTj8UTh8ETi8EZS5u1Be1Ya7vM340d4Y3u44ho9GptA6Jddbc1LGGCW8UEukU7jOJ2NUJS+1rUF5wzBR/BATjIZnoppfEU9VriigfxhnnqPjwLboafz2YBKPbevCOl83KjwRlHm6UUY/M5FwPgpbMA7b5l6pMQapNWoHYa0dqtqQlF4As8CeZGqMNyL4LvWbZgQjH6Zi1NErwRhUYNycgK2G7jzMZhgT2QwdQoNMiAjiy52tuMPdgEe3t+H1xgEEB8cQysikapRprTkSafJPZR40wagbBJIS5dMAACAASURBVCYYFRiZUoPDDK4i0JG1+wA0nAdqEhP49YF+4R5xJ0OCVYZgr+6GiKRNX0KdVpTAq0nAKqCowChyHheB0TizrITftDFe2VD0UuBZ7K8XgDE3umCYOeXbKrTGBEqDSSFjtGPT11H6s8bV0Jp+sjE4qkOo2NSA9Z4mfHdnF16tH4SvfwK1o0DCkLGQ8s5QuJksM1catcX8OEpvTTdCak0xj9ccVW6ADROMagTB5GvjaiaPTttc2tc4AWwIn8ZP9vTiQV8Yt1e2YrWzExWuKKzVUVhcTIjEpzmHOrJYOCMthtA6z3GvWLnCZX2iiBlrglIPra+Vhlj8OTc3iBYbKKeDkeYXWWS4MkYIp4zJZaI531Y/HcPjsPkYoq4HNm9caI0OF+W0A2sZ77GmHc/sieLv4dOom5TpXOnvSM1xPJvCZCaFVCaNTKYwlav0epRonB2MNwAFZ/gJJhhVNsoMwaii4vRlgMMnL6Ayeho/3ZvAvYEoVrrjKKuOoszVA4erF1ZnD0rdjNrch5LAgAglJSOn8AlPOCowCiD2FMHRAEVTY7ziiYvFBrnL+T6zgVHEb2QMRwKRvpIipqOCpjDBMKqPXDVj9cYhS48KipsQ4cxWuTvw9UAIz3yWxD9iF/DZaaAnw1VbaYxmUxKO2TTSXPuvJh715CNrrRvOwI8b9tBNDUbedB1MlkNoLqlicvTa88C7LQk8+WEzvu5pxorqMCq8SZR7+2AjFF0MU98Li5e5PghGxtfrFyGlxNBHz1ASkGKtM9c7q2LUFPX2DWNjLFoZotvBrC8J/0uDUcFRQVJqk+ohXADGGCzeHpQy1QJX23h6Ue7uwmpnG+7zt+P7H3XgTy3DODQK9DJ3uWEpoXZpNMLwZoQiaX9Tg5EBIIyTLLEssOdEBu+GT+Cpjztwr6sWa6qaUFYdFuucy5h5jyHCGJ6eYepVbg+ZCIlLwlgYGEI5+6onfGmwT0bJMT7tc+HEioe412p/IYfSl1g6Z4LxssGoh9OstbZYWBvhSCjKwiRchKPFK116mCpjtacdd3ma8OTHXfhLxwnsODqO0JRc689JGYKxwGIoclRfLhov932LQwm9qcFI1wU6vtLeQmfY/eeAN5qH8Z1trbjD04iKTXUo4/I+phrw0W+M6Uo5DFZ2RK6hFVngpKYkln6pQKUCkszPEuhHaXAAlmC/2ObQKB98loForxUIiz/nKoCRaUZz64oX8vo3/rUKNEbKhB5N6FQWRfZGGY6OUcEZjYnyyLanzTsKizeKUm8Mpdz3xmDzRVEeiKGc3hTVzbjD3Yhvb27GrxuHsOs00JGSfYBgzP2Ra7QvsYgEM7lX5rihwch66f3d1GCktsihRCwN7DnKBPfH8MM9EdzmbYPD0wmrKwyruwtWdxRWBpT1yeANliDthzoUVd6uQ22SocQYRYVBSUW0lcAgSoNDKA0MwhIYEHBk2tM8HIuBda32Fwo2Sls05l424XhJDbHYDjkNjMYHZg6SOhSdnIDhDLUo9G8U7U8wRlBaVCz+mHDvobeE1dOFCk9IyPh39yTwu9bT+HAghdgYMEpNgX9kmfBdSwOptIKjem3OlSDrkrVQ3oBgnP1Jpe+3dsvhaoDuDLDvHPB2yyAe29aMu7yNcFQ1w+qJwOaLweqJotQdQYkrghI3hS6Wh6I/LmEpjN5yeG1MTSDBOIDSoBGK/bhxwFg8hDZqjFKLzodU01q2BDLjUOZiUeqhttB81Hl6W792g9dzBSM1SQuLCGBMjZGFbUafWakxlvqiMBZxnG5jdO/xx8FIPctdIaz3hfFwMITf1x3DvpEsesbyocvSorOoAAEiSj1npzU1Z+hj8kWFTe7QUmm0Vs6ZqIvixBsEjMYbJW+KXNRXcLfEbeIkC1cAHFdQ3DJwAb9pGMQPGFTW34JV7lbYXSFYvVHYqCHSZuOJoVQVi684mrOeEZwJjDLVKZOwMxFSYepT4zDakGZTp9u8yrUA1jxho2GWmwXVRn9DnRtKa7AV1+oz5QPEaI/VQXoLazmZpQM0XPnSu2JNbdHsz+F+5x4yGo7aTUy0McGoh9MEpKEIbVJ6SVj9PcLXsdwVwUpXFHe6OvD4jh78vu44tvVNoZPJ25QvbyaTEW48+dlqo+uO8nsUdshixdAIRg3HRcG7OX+JGwCMRijqpxSdDtLK8SDfFnyVNkUOn6MpmX7g1doE7qw6iJWuFlS4QyjzdMLmjUpNcKYOz2GieDrntSUJCmMyJBmDT9oZlf8ZJ2JEaKr8JM2VBh64lp06D0WDewgfHIY24rYEY6HWRxuYLvzORlssASkmsXLRy/M+oTqiuZ7Qyk1qzRPo17KdrvpnFT9ocvtKLnP3QN0LLauilveLydfs7gTKnEmsqIpgfXUI9zub8Gr9CD45D3QKVx4uH8xiIpvGpIjomBHO4FLhIBQZnJRlhvwyubG4nucuVFDyPXLxbt1AYNRQ5M0gFBmck4DMa/UcQnOipScL7B4cwRtNSTy2qxPLXS3ztgnN3AGkBiQz/OmZaSMktOYjZ6+XJhiVhiygqEwJOTgahscGGHKop4sAo7DDalusfFDI9KJJlATyRQwT1cNE5kjRGuZC2UdvluvohznvF4Pk9sPKtAuu43A4B7DcGcdqVxiPfDKA11tPYevQJGLMJ5OawjjhiAwmkGZ0RxCPwgCpIzaLyRmDxpjrcOq83HB68UJwpm92Q4OR7qqEIVe0cKLlDGefAeH9/3ZrEt/y7Md6dz3K3aEFAiM7mozSLKGnhn76qa7deArqpdE5CzVGpR0LIOoMh6yLwKV/twGSun0E6MQkVSEY9QqiktwwUbah/vz8A8mgnd7MGuRcfrvSFkvFhCHbjdHFB2F1HxW5aMpcMZRXd2CtN4Rv+hvxh6Yh7D8LxFMyDTD9e7lMlqqGtDSqUPaE40xao4ChCcaZgHsNj+mh9HSNkXqjtilSU+Q60d0nJvFW2xAe3xPG7dWHsNLVJGag8x1uIUClNUN1LQ0IIcT6NQXNuQj2ojhHfm8xDFbwz9kJhYuSDuGvtObiyZVcGxhzLnPmfmYw5jRMPRRUWmnOhlkwZFyIe3aDXkO1H6FYGoyhNNAjlhaKiUHPkEjt6vD0oNzbjQpvCLc56/D4rk78sWkQO45OIAppc6SfI/1+5RiMYJxShXDk0FprjWqNrYCj7pNCjbyGTLjyj7phNUbeRj7h+KTj7DMDQjSmgHfCR/FQsBZrPY2wb6qD3dkGmzeygBrjDdrBclpuUqz40ek/da7kfE1ATs9tQo1PPnwIWF4jn19ZpotVPnlCU+TQmx1YTShoVxTOuopt7SqltUbW+vpmXdAW/h5IKMZRUhNDSTAuzRr0sfUx3WsfGEm+LBCHzdMB+8YjWO+qw8M1jXi74zQOTgBRZXPkKjEGW5FaIsE4KZMgFWiNKlJPDoyamFcOq2t5hRsQjHxKSTWeblkcPjMgxKHTZ/BeOImnPwtjna8BDn+38Oni7DP9EwuEyexkRe2htVyp3WmwSRiqBPNeZsjrg0UMjyUYxSohrhTSRU28SC1R+Xn6+sRSSp1LW07SzATEqEglKlxPjIDMaY4mEGeUYQXGkmAMJTVRBUfCkrP/9JTgpCCDmvBh0w27ux2rfO24O9iOHx0YwjudZ7H/lPTimMgAwo1HaIgE44TSGo2TMEYwaiiaGuO1hLr8LNH26maoGTIeIh45A83Upu0ANvWcwA8/qsfXA7VY4WyAw9cFh8jNLB23ZxQqE5CzAFKDUml/ajhs4Qyzh8vQ8jCc3q76PXkw0uYlA3DoMFvaL28mQCptUbugCK3ShOL0dlZtIsAotUYBx5zGyPugTRkMhsJ2jcHhj2CFvwtr/WF8fWsET+zqhrNnDF1Z4FhWurrRbi/GzjkbI3ubhuC1R8DV+MSlrzEKCmaBlCxMbZrKyEjFDB/WeAGoSpzHzw4ncI+3Frd5G7HS34GyQBR2P30VTTDO2qku+WCYPoSVa3S5Tpclrmq1zxBtYkguoWhlHmYWP53eVeGSSbWO3EJ/PXZsf1w41tO5XhZ2Yj3Tqn1AuWJIeQBc8nvfRCAVbUIwqiG1MFGwnfQDiqMAbsu2o+9umS+GCm8Ea/xRPBAM4cVD/fDEz6HxnNQcaZ6Sf1o71FBknUekPqpOXlLV0gcjH1aEIg0gU1mkUsBEGhhNS21x6+AUfrY/gXu2dcNR2YBydztW1MTE2lG7zwTj3KBosOUZbXzGIS0B5mOJo4TFq+selHhV0WAUSyIJQubCYXpZWdv8A7AF+kWxKkCyA9PWWOJX1/PFxb60Pyoo6iVzYhndTQS9uT4AFBzlw0S3T0LYivXkl6iFa5Qygwhfx7iIyvPwlnb8cl83agZGxWQMbfaFfxKBes6aXVKXpQrHpQ9GtjxNipwcmwImU8Aos/mdTePTvgv4fd0wHtjcgfJAHFZPt5ho0XkyuLjeKjTG6ZrP3IChhexGr7V2poexXBZZVDQkaasSUct1oF45iSKhKYNu0OYo15XL2u5h5OkE7F4W/ZoMvMqVGqIwSrpKQG8NMkq6DrSQhE1HKjKsL76clT03zz2nhii9A/L23j6U+vpFEVq8mJjpR4W7C3d4W/HtLU34TVMftg+NiXzq9PYw/kko5ty/RZc0wtF47lLYvjHASDhmZIrT0xmgPw3sH0rhT3WDeHx7J1ZVNsDi7oJNDJ0jsHoJyG7YfJGbG4xzHnoqjTE3fNVDM11LYFq5dpwBC5gHh0ma/BGVqKlLuEQ53GGUuUJine5KFzPbtanCbZYQVjpDWOEMYbkzJCJQM1xWuZdh38Jiwox2YTvX/DLEf5BpRWUR0WiuChgN2vJcNbTrep6EXt6P1rCv0iQUDqMJRFXETDXNHKp4+0SCreXVTbjdeQTf2xXCHxqT+PTEJAbV0loCUrvxmBrjVUC+Vrlnquf6cXTiZt7ngyeB90Jn8cT2Lnzd345V3g7YqNEIDTEKmz8CG2elFRhzy9iuq0BfY61TQ1HXl/ztGo5qeV8ggRJGdxGzm2qShO1Lrdwdhs0VgsPZhjLmyHG2YrmzBSuqm7Cmuh7rnfW421WLe5yHca/zCO6trsW91XW4p7oezI98p7MR66sbcVt1A1ZX1WNFVT3KK+tgq2yAzdku3avE2mKtNcqIRLm1xPxNl/w9cznHCEW9PZf3XatzDNDLuVPpYwYPAk6OGZdc+rlMlUVPeuXr/NBa+qPaPRGUe0JY5WnBHf5GfHdbPd5pH8Dnp8eRyMigE0yRwEEbrYu6/xq1RR5ban+LQmPUjXmxeraG5Xt4E2hmFJMtZ4FNkXH8ZP8x3EXXA1cIK4Mx2JnrmbHq/FFYA1FYCUZ/RGg4Nx0YNQyL67nAhKtYxLK9Ptwa7BdL+HQ8QKs3IqBY5u7Acne7CIx6u68ddwU78PUtYXxzWxiPfBjC93e048c7W/HMjmY8s6MFz+xoxTMfteHpHSH8eEcYT+7swg8+6sSjH4bx0JZ23B9sxl2+Rqz1NGGFL4Ryav7KriiHzBJanPBZ2HtpNCHoa7O+VuC72OfMAkDtIaC1PlXnfUX1kktGnpeFAU5yXgE5wMo18TQ30bWtzB+GrboBa6v24Zm9bfgg2o/asXHhCseVMdQa5bTL9MkXE4yz0esSxy8GxIs1Kl+j68CFDHByMi1iym1OXMDPP03g/s1xrGSeXaY5FfYpGvE55IvCQjAGumHxR2SoJg4RF4WwX6wjLOBrxUA07s+lHXLaB7USJmCKiqFyOYfJzhas97fjG1s68Z2dUfxwbx9+UXcCr7Wfx5uRCbyfmIRrcAqbj05i2/AYtg6Ni7W5W4emsGUojc3DWQSPZuEezOKDRAp/7h7F660jeL5hGE8fHsJ/fdqHuz+MYc2WHqwIyM+1VLXDUh1CqZPxMzkSMAa3MKzfnstvE+coCArTgbarstZwXMB7MefvVPyZVwJGDUU+2BQclRYph9kSirIdVSgzbzcsng4sd9Xigc1H8LP9zfAPn0QHgKMqu6ZG40z9+RIIWHQvLwqNcW4Nmm9uYcvIZgUUuVTpWAboGs1gz/A43mgcwrf8zVhV3S5yXTi8tHcxlamMWyfWiwYIx5sAjEbgTdvW2pCulauLPo8dVm+zVh2YyZZsnihsrk443J1Y4Q5hnS+E+4Ih/OeWEB77MISffhrDa0f68XbTUbzfeQbevhQ+Gsnis/NA/RQQAhBhgOCiwuVnPN4NeU6DioC0YySL4NAkqpLjeCt8Cs/XDuCp/Un8954YHtzajjs89VjrrMVyDrmrW2B3heV35Hf1EtxyokEvZ8zb3wzDTZW/Wf5mZRoomIFXYBSwVG1z2VDLt6du1/nXGowz1YbfpTTInMaoh9EaiEJblENrDUX5XfLBQhgFvNQThYXDalcL1rgO41tb6vC7ECOAp9GdlkNqLqig5shhtR5Ks76YcrPoiKi+0KIB40xwzDcam1aGOspmZZrHVDqFC+msgCKj5Xw2ksbbjf344Y4OrHc2oLy6HQ4RbJazmgxlxZiIhCMnDDij2g1LYGE0Rh3gYD71/DvCPDuTEWrTtjUMZU3XF1loP9RuN7ImKIR/oFr7bPfGYK8Owf5BA1Zuoj2wHo9uC+G5/b14q/konPFz2Hk0hdpzQOt5IHQB6J6QAQmSWQijPTUMhn6bqTBO5jG1PpfO+UxOxrQT3SmI/CT148D+88D2Eym4+y/gjdZB/OzTEL67tQ73uA5iTVUtHJVNsBPcnijsnh7YvczV0yeKjKyuwZGfdJCrQKTfpFx2mF9+KIMvzABGwwPjqt/PWSE8ExiLj6nfq6GYqzmENkKR79NyJrVjKdNq/buX4cqYlrUF6/wt+N6nMbzZdhQHzkit8VwGGMtKH2ICkv7EXCljgjFPsgXeYtPKiB7ZTArpTApT6RTOp4FECqi9wJUto/jR7jDu9TYII7+YABCuOOzsfSjxD8oUpyIEVgylQYKRNkd2gMsfSs8HhsXn5oVQC+MC1tNgaNQANRjlMFE+LDQc8+41Aoqc/aWjtcptw4cN03He4aYLRwf+5+MI/lg3AE/kFD4bvoCOUWCQfqSQHYRaBAtNHix6f6aaM5zGwsk0Fhr3WXhN2rPoRzeQBTrG0/j06Gk4u/rwRl0nfvppCI9sb8cdgRBWMs+JOwqHm3mWE3B4B2D3DcCmly4q1xThouIfQKnI8qjBSJmQhQ9RsdaYQRhy67cNbZkDyQLeuwW9phGS+oFQXOtzZvoNnNjieuoBFa6sBzZ3REQBX785gh9/Goen9zw6zmdxfEqujNEz1bT7m2BcEBRe7NmSBbXFdDaNqWwWk1nZSTomAF9yDC/UDuL+QBNWVdejwt0uXHEYbZsrLSj0Jf4hmeJUBCmgkEeuOxgJyqsGxzmCUXZ67Xaj4iYqDZJJvxw1CZTRBccZRpkzhNXOVjy4uRPPfJrEW22nsWU4KzSG8ATQNwWMpIELWkvgEk09ppLL1+W+ep13ez5FuasKwI4ihePpFHonp9B+YRIHTl3AluFxvBkawdP7+/HNbTGsdbZjRVUIZVXMc5JAhb8fdi9DbsmVNxKKTHsrU98yMK50glZgLIDiUgWjljENv/lAke+lttgnnfC9A2ItvIVZMj1xVHi78eDmDrx+uA8f9ZxGfEzGJuBDTLrw5G73gtDhWl5kkQyl1dIisTjd0GuKWoJ9jJoGtYhzHJalgX0ngT82HcV3d0Vwm6cJ5dUMIxaGlZMsYiVGQjmuDhZqBTltURvVtQDNry7WAue7fz3BWKAJBXpQogLKEg70SWR+kHJvBKs8HVjnbsU3a0J4YlcEvz4yhKroKD49kUU4JSMXMawb7b1cLkbNUPwxFIsGo64VCecDRH2uvgRrBk09j4wIEjKiNEh+l09OpFEZPYfX64bx44/jeKgmjPWuEFa7u7GcGqRIfUs45IeRMgakdEOSYFQmBrWMTkakuVHAqAFprC8m8zwvCaue7WZKVk8cFpopXJ24w92Cxz8M4U+1SRw8kUW/CtxCGdD3jfVS+1sEYDRAkQuddbpG3aqqRdkZ+BQiFJmz5VgaaD0LuGPn8fSeCO6u6cBKf1hC0dMpkgFJQ7rsBCLEkmHRfC581RVGZ5kvCIvPv2pgpDY6q9aohstieCg7fEmwByVBGe6LbWNn4Yx+ZSvWO5vwnc2teOVAL9zxUew7BXSl5HCWNkG6SXGYyyFUPjQVzcKzgLGo0+hbfelauxBzhUUKkxmG3ZcPS37+SFY693dNAAdPZeFPTODlgwN4ZHMH1rvaULGpFQ5nlwiLJpyahe1Z2pzFkFlPrNBlRbglyfYQYBTBF2S7iXa9mtr+Vb22EYjcvhgU86+ViuWcMk81c1UzF5Ld3YXVVc24p7IWT20LwRMdR+sFaSPmfdFA1PVSguP1B6OIiMP8tYRiStXcz2uO3CQU+RTS8RWZ7nF7/IxQ4x/a3I4V3o5ctByRIY0ziiIIgQKjsi2JOIJieCBn3eYqGLOdVwy6+e7Pdt2relxPtmgwCihKMBKQtK8xRmWFL4r1/k78945u/L62H1vjp9B2DhjM5G2IDEU1RSN7JotMOo0s022m1f0zqnjc1uQzbOpDc6v1WZyISyGbnlIBAtXcnFoyT/et45NZtJ8HahIX8NvGE/j+xwncE+zCSvpaMsCFmHQg+KS9uTRI0wqH0ISBzM9DTVI8MGriKo6hAuMcYXJV7+E1+w5y/TvXwIsMmcJuz1zVMTg83Vhe3YbVG+rwoLsNrx8+gQ+TacQnpU246JYvJS7i+oORvYVD6AIwKk1D9QMRLScjNRIa3xlfsfYU8NahBB6racF6d4uYLRNDwABjy6kUk8JmpMGoA6Nyf+5PyksJ93xBWHz+pa5/VV4XYGQwBk4sGAuX9EVh5zK8qibc4WvHD3bH8VbrCPaeBGJTMmeOHi6L25bKICOmHxnWKIXsVCo/HanBqHmm6wUCI9J8kFJ2lH8Ir5/OYmoqhbFUBsezMj3uZ6PAO93jeHrfIO6r6RJLDakN23x08uckXLe0OfNhKmRDLokTybhoYmDka6UxiqH2NYNSXmO7KnJwyd9RCEWdklUu+4zDwSg8rk4s39iCdZVt+O7mCN6sPYb6M0pOsrLP0jbMW7OU/hYPGEUUYB0mPa8tUqHkzBaHaBxG09Wj8TyH0ON4Zkc37qluxEpnm8z/LIZAnEXVATgJQQXG3DBag7F4SHF5sCwG3Xz3L1/gtbOxsZ5jRxIAoOMuI5d35wrXkNvdIaz1tODBzW34yd4Y/tZxEruPp0UUZ9oR9WwzhV15UMkbxJuUziKr6gJYaSAaeofx0Hy2ZRcjCemlUKSZ8kLUXtMZsRJKDK+Z/AzAZ6eADdEJ/PzzAXxraxfWetpQ7myF3RsWblvSJUdpixxdUF70UDsYVQ+QK7NHX/69nuN9vSTo5nsdDUYV7s0fRSlXjon18DS3xFDmiaDC2YlV1Z24x9WBn+yKIxCfQOgscDwtzV7MucRR31L6Wxxg1D1MBL405o8o6AbCZYMJeoI9Y3jpwBC+6evAqo3NKHN2gUFS5eyiEmq1FEouiNdrQ4017UhXDsf5grD4/MvvLAqIudUYGpBzEX6uDGFkoW5YvJ2wcLLK3SHWN5dVNuJ+fxNeONgDd+ykiGdJX0K6yFBTFH5qyiycg59xzKTgRGblhs6zdAoenn8peocwxaiep19S16XphTOkOop70zjgjI/j+QNJfINuXRsPo9zdJjq6SFqvtEWrl64p1BopIzTJLIwHw+Xf67nc06t0jhhdxAQQS8XCCDljTzgyMpXdG0e5rxcV3l4Bx4cDYfz24CA+6rmA+ISUG/o3Ti0xMi4eMAp/eT3Jn+8xlHX2MQr5qTSEmv5mw1F858MYbuPkQHUXbG4GQB0QLjmlvkGVy0KF2jfOPuYcW42A1FqlUZOcu5AVg26++5ffWQp9EeUaYcLxUt+dtlXOOHNFEIeTnWLobKtuFXm1v761Gz/fz0mWk2g6fR7D6YyY7GL78z5w1MzRqyAaa72toaSgaTARX1RRMLxt3pDMYVXbqfXFDJ+o5YeTAcNZoPY04IyexbOfRfBgTStWuVvFig6LGGWoNA2eAVg9dOvh0jiCwLhK6iZLg1EERppetI8n3eGkvDPPTz8crhjucofxxLYu/LVuCLUn5WTYWRVHWuSgNtybxby5SMBo9FDLWyQo1OyQHEKL1KdjGWzvH8NPdnVhXVUzlru6UebhRIF24paOuownJ5744qmvIMhVLwYwSlvSTBrj/IbU8wVh8fmXBtlsoCMYpYO2qOc8uy7BaA/EUBaMotzfhQp3K8o/OIw7XI346YEBVPaMgtoVV6CczWZF+/Ne5P40gIrr3Ak5ZOVgZ3hJbBa/9XL3c4TWCZlm+SBKFd2JGC6LUd2ro2fxi329uNPVANumFji8tJklRdY8K8HI3MtCg2Qbc4WUXgyghtNiBls/nObyQJrtPi7y4+J30nOBRTq7S7mTv73U24tb3XHc6qLjdxyrq0O4Z1MdfrqjG1uSaXSMS62R7Z/JZERJp7l6jU/Uxfu3CMDIBqKmyGe6cPgQ9iM6ZvAVQpETLlzpsG94FH9uGhSuIys3NaLM1Qm7SmYlkiiJEFhSA+Tssw6hRCAykTtrPXzOZbITwm8E5PwEtRh0892/PmCMqXiJfLC0Y42rEd/wN+Lpjzvxj+4z2H9appqlW5RexUBwTfvTw9gc/rT6KM+8XNjN530SjPrBKj+/+P38elqW+IClr90REYXpPH68O4p7aJJxhlHu7IbD1QuC0UJnZjE7zXX2WkvSDyIDEG90QAqXL+3eZXBXEselEqHTWVg9UVRUh7D6g3o8srkTbzadwp7hDAbSUsEhDAnFS4FR379p8nYNDywSMFIvZBekRUjCUXqqSeMtHXiZjKey4xie3tmOez0NoC3M6g6LoLN8muefZvLpLZ/20o5YAEaVE9nm6QWLbSrAtwAAIABJREFUHC7ND4ZGmM0XhMXnG681v+0r0RhjsPsisHs74ahuwh2uWjz9cRjvtQ3h4Km0yL9N30Q+rgr/KLJEjLEQShpMvI9CN8i9TQu5sTa+27htPGeu2/K78DP52UyYmxG5j3ldfQ1+GW7rxy9tpfS/rD0P/KXlJH64I4b1lc2o2NCCsuqYAYx6AkZqTAUaulFbF9sKlpc0ZVy+rM1PPhboc5QvrMzeyJEZbfks0qWJioaMqM6+FIHNGULZphbc6e3Ek7sT+CB0Gt1jwLiYFJNQvBgY9T3TdU6QrvHGIgAjhZraol4NO44sJoUDL0WdM6GM3vHxSBavHkzgIX89bnM1wsFlf4EIbMEoLMGIWPsslvmpEPsEkBAkMbOYUBpjPp8FNQO7Ow/HyxW6YtDNd/9yP1fYFI2dc15D6Rhsnm44vJ1Y4+/Aox914K+hYzhwfBSJ8bRw2ObdIFzyfxRV3itdiBkW3iWt7VO/5zaP59+thdwIQX0V4zF93vxqXkEij/GW6PidQRppAUimh9efUBhElXCkv93uoSzeajiFR4NhrK9qx3Ing+1SYxyUK6ZofhErgvSySa01zlTfqHDMKxgEoojdqDI7ihGYSGURRamvCxZ3J2yuLiz3xnF/MILXDvThwNA4TpwbQ4ruXFku7eUdnvlvpns/85lX9+giACOFlwJNII6pbQo28QgMAzh4Bni/+zy+vz2MtR8cxEpns7CNlW/pRdmWXlgJx4KZQxmPT4JRPeXEMJvrPlWeEXcPbB6GpLqceH35p/F8QWg8/4qgKECoOqfIi32JWWn15Kcfnp1QdLZhpbMF39wSxosHk9hzUtrfaLYgNPiET9FROyfEWmQpkNwmcIi3YkByn8f5uvzT79SImqnW58y/5jvk98gKjdGIxPxKGX5ncSYnAhgFRmmNsTTwUX8Gz++O4iFvO9ZWd8LuSsLqMbrsyBUwOtPe7JrjDQpGMTuvvDhEwqykSIdAU4PQJIXzdwSlImZjNxiByeGOYcWmZvzwww64uk6ibeQCTimXO96t2f6K7/9s513t49cdjBRXYjCFKVEIRHYt6iGjWSAyCXjjF/DcgUE8sLkTKysbUeFqh4M+d4E4bExyJdwIZABaOWOmwUhBlUvjZIAACTQrY/QJKPaA24TV5UNKgtUIvLlsX8nn6RloHUhUJvQy/GYRCUfmd2aOZxrIxZIu4fjeizJvF1ZWN+M+bzN+eXAQrt5xtI5L7Zy+f8IlhytZ6HRPvxujtOYkkgc14ijqEk55KPI1nlP4duOlFmJbXp2fxc+XGqLEYf5//Q30N6arJQ02tDdyprrpFODsOImff9yDdRubYNtIf84kbFwjLIKOyCyFIo2rSEw/k7bIYzcqGNk/FBhzNnnlxcH+lVsVEwVjN9q8XE4aR0V1Gx6qacPLn0exJT6CGANKq3kDKRk5YSrY0HJRcPAa71x3MFKUOfiZQBoTyAggEooU3FOTQOMZ4I36o3hocyfW+iKocIVFgh6bJyLdLFiLlAVFBnKtRQlhNawb9smlgMYoz1cGqSuD6uV9NrVDglD6khWAUYUHYwQUi6cXpZ5elHh6UOLrFeYESzCB5d4w1jsb8d1gCz7oGkXjuEw1SyhSU5xIZZAWa9bpcE84GpREvS0EVe+w1pA01jyef7vxbOP2lcu88WoaiNOvqs/iN+TDl1ojNeTBCaDhFPCXxuO46x+HYfl7m5iEcfgSsCsw3uqLokSsFJoNijc6GI1yXjRZqR8ITIam+5e3B+XuMO7wNOPbwXq80dyH+pSc+GKb8zGm78f0O3X9jywCMErtkANpMYRTAns+AyROTmFH7zie/TSJdR5miusVTyI6lfKpxGjSoggIziKwBbY3Ndy8LNucUTCu97Z0uZFA1ClglVAy+kmuJFDq7sHXXMzJ3CuSV93qj2O5u03EUnxtXy8+GcyAAWT5JOfDiHm508JZkUDkI0qBsZh3lOpZ/7TI800EVb4T6O1Z33qVX9Cfr+HIFVWjU1NIjgPB6Hn8cGsnVld24mvvtqJkYwfs7PRcS04oXhSMWluUk3+X98C73nK1sJ9v93ZjJZNoeWrxzMEe+EeyaErJiS8+mPS9uMq3/LIuvyjAyKeH1hIJRzHESQNHBsfwXssJ/Pe2Tizf1AybW6npdFAWTsoyNBZDZF3U7pODoxJe4/m51xZWKK5ux5gFjDQL0GYqQvnLiaYSVxxfc9L+w6jlcZS6w1hd3YBnPomjKnxKBFrgqhb6+I3L5c7IcKwplq7I4amQLEqxhuMlJVqfIOvCvcuS0wV9k/4+/DlC9rLS1+7z41n89tAwHvB04iu/34uv/uUI7G7mB9L2NTXyoMzktKSi7Ss0y1xdubm2Ms5AJGXOFizfdAiP7OrE25Gz2HNahqnjNB3hKB+dC3p7F+Ri1x2MFFLd3yikBCMdi7toW+wcwbMfd+Ob/jZUVLXB6qYrRUyEPMoNI0Uu44uBUQ1xcsJcdO4NB0YJRA1Haowlrm5Y3Myl3YVybwfuD7Tgj83Hse9EFsnJfBzFSWVSFI9yIV4KIUaSaEnmsYv+6TfJkwr3LvrGq/+i+jKsBByzsg06LgCb+7L42Z5+2P6wG//v95/gq39rwH9UMrYnlwgmxdJTLj+VCwSuLWiWGjRFkjR3CBXVjbhvWxg/OZCEMzGKSFYqPzRlcIKV9yD/p2+OlhjW1/7vuoOx+CcTjFybe3gU+ENdP/7TU4c7XE0od3ZIKDIpj5dF2RbFki3aF4uAN9f9GwWMwqxQqC1SexTRlt0R2FxhOFztuC3Ygf/eEYardwzRNMRMIduc4cMYMSwPRcOd0TKqn2B633DKktnU391Qc+KdnXQwC7ROAu80ncb6P32M/3h9B7782734/97tQKm7DxYPC2esuQROF5kPxQTl9IcElReHpwvlDEwSCONbW9rxZstRNE/IeKpnlHcAxU7+qZsiJvymPaX1SdekXnRgpGGWM6SBwTR+uq8Hd1YdwRpXC8o9DDAaE1As9UrXgBJPN7htEXC82cEoh9E20WkTsHokFG2+XpGaoEykNm3GgzuieOlIP3YemxIgYOxCEVORYRSZpENrhEbx0xDRr+l94zlLYVt/7xlqai40KfCh/GHvJH6ypR23vbMf//zSR/jnPzbg/70fxa2VvbC6uY66XxWZJkFCUgNyOiCWmqa3UN+XE5x2XwxlnDT1deN2VyOe3RfD9sExdJ+fFP6yfChzSC3/eGPoBUEoqom/GQVSn3/16usORqOMsoE4jP70ZBZvdZzGf+3sFhFQlrvaRJJ1NjS1RcKQULzV3SVqE4w0LxSCkTPSFiaC8iewIhDDCmcL1lTV4Yl9CbzXfRa1ZyUIJjNZTKWzSHEmOpWRYcP0TdFyp/eNtX5tqdXG32DYpuxxVp6TUA0ngb83HMcjzib8y3NbcMurB/Dlt1rxlb9HYKnuh9U5AJt7EDbPAGyeflG4Nl8HQS4Ai9EWeZPZHzlDbfP3iLzudm8E5R/U4rEP2/G3tmEcPD4qQghSEeKkH2+F+D+nLSqNUfjRylevpagtKjByOBPPMjTUOTy1N467tnTAUVkvVrlwCZuYZPExNhy97PPFBON0MEobY68Eo68bq6sbcXf1YbzSMIwdJ7LChsuntQz0mkE2kxUlN1VogMaMw+trKaUL+VnFv0vtUxlmB+UkVPw8sDMxiZ9/FMN/vLoTX3zlIL7061p8+Y1WfOVvEZRs7IPDfRR29zDsniHYPYOwe5mBUMKxYFhtBCO3bzI42vy9cASTApCOymY8EGjGs5+EEYidQFw52fOBRLc9CUY18Se0Rr3AgK9d27/rDkYKJG0MfGIzrFjzGPDH5qO4P9iM5f4QrK5WWHVyK2U3FG4TKr3lZdsWtQ3yhrExFmqMevKFQ+nlrhDWVdfhIc9h/C18Es1TMgq6GMIwnYR4ShcJn5JTIxT1oWsrogv8afpHFNXcZXsQjiMTQNsZ4M2Dw1j+h8/wL68ewj+98Dm+9Fod/u0Prfjquz2wVx+Fw3UUZZ5jcHiPwuEdgk3FcZTr9NWQWoBRTQDehGC0BpKwBftF8GiHK4z1niY8EqjFn1v60TgpTRd8GE0Do/Cj1YE/F1gG5nC56w5GCiOn7hnJpXcU+Ph4Bs8dSGCNqw42P7P9dcEqwj7JCRax+sDPsPyXaVMsft8NCkZOupS6YihxRlC2qRH3uOrwxNZG+HrPiYjWtKfxoSTTA2hDt0FijOBQQ52iQ4aTl9im8YcYtjlqo6fSOBN9pYBNLWdwz99q8X9+U4cvPLcX//TCASx7uRb/+49hfO3vCdgqh7HcdxLl3uNweIZh9w6KvNUyo56MPJN/cGs/x5vMBqkDTgT6Ue6PY62nFXdXH8QLB2LYfjyF0IScoRaySDHiTcgVJXjXQbyuOxhp9OYTg9FO6k9OYlPkFB7fHUbZxkOwMohqkH5kclWLMTG89CNbADguUTDKlS969Qsd3eW6b06+2DwJWNwSjLdWd8GxoRYP+hvx/J4O7BoaE+vP5VOadLzEhAvBoeSTwsuiWXId5PUKP1J/c+MvyXc+DUbOQfHBUROdxHecIZS80YQv/GIPvvDsZ/jCLw/iS6+14N/f6MKt7/eh3H0CZe7jcKhh9TStcV4ao1qAsCRlcmbgl/p6UOJlP02gIhjHSncrVm88gB/s7sS7Xadw4HRGtLWWq5ywKbm7wht+2W+/7mCktkghHADw0cBZvHwggm9tboJ90xFYfF2w13AttA6UqSKcqCx3eSfbKwDkkhRC3YFmB6PNm4DNl0CpK4LyDUfw2LY2vHGkBwePT+CEmmigMArSFUilkiXNECWgrGjyYJnp9MuWwGv6Rv4KfnvjL8n/GkZ9EfECM1mxVHB3fxY/29GHle92YNkvPsYtz36GZS8cwS0vNeGLrzQJOH7tvSSslUNySO0Zzg+nha8jHcKpKVI+L6Ux6ntqrGeGzdKyU8bl4gK67vi6Ue5qxfJNtXhgawjP7Y9ha995MQkjzDr6oZu/JddUOowfdm3BqDub4RtwAoAJriIANkaP4fsf1uMuby1slfUicrKtpgdWkficUGSUE5kYnVE9csJWPDyez/4SByM7nVj37WUItQS0xmj3JeAIJGFxR7DigyN4ancXNrYPo+XUlFhZxIkuyl+OchzB5JWn/A4PqtMovEsbjBqK/CVca1X4i7LZNNKpKWTSKTGKOXAsi98dPoN7qmL40i9244vPfoYvvViHW55vwheer8c/v9aKf3+jE//x915Yq4Zgcw3lh9MiULKW0TmCMQdRpk/QgFzKcORvkC52Fk+3iJ/qoIdJdTPWBTrw6NZWfBA+jt4M1+hLK6O4QxQyJXdS+q79/9cdjLQtMovb4RTwu9ZB3O89iLXuOthdLSKcvJV5jmcB44LAcckKoNZE8mukOeGiwchwapx4IRhXbTqCZ/fFsaXnDCLnU8Key0mGmwuM7Gn8xRqKNOIUwpFgzKSnkE5NCo2xnpkFOzP4dqAP//qLnfjnZ/fiX16sx7IXW3HLC0245aVGLHulEV/+YxhfeTeO0sp+OLxKa/T1ydQIOdgpjVFrjqy17OWOGUY++rUlPYvdI6LtWDwRlLq7YHF1wMbUvN5OrPB34h53Hf5Ql0Tj2SxGJibFKhhxVwjG6/x3VcFYAH1tUOUPFsEqM8hmM8LJk57wgRNZ/M/hQaytOowVriY4vJx44TB6BjAupNa4ZAUwD0Z2MBHqTKyR5ooMLgtkODRG2IlgbVUdXq0dwN7jDJaQzaVAFWDkTTJoi7l7po7rJzd3jQPQ3HnXWYDn/vH8xhqM7H7FYExDgDEzhXR6SmiM7aPAloEsntw+jP/z3E7863N78a8v1uOLL7Zj2Yst+KcXGvGFF+rxpV+34H+/GcZX3+uBpZq+jQOwMe+QSN3LkG9MVm+A3lxHNDnZ1BBdgtoj7YueGErdUZS6ukWA5DJfFGXebqytqsUv90WxfeA8IufGxMOIrjtccHC9kwouLBh1Z1KacH6XPc/gk5Rl7gcKYErYu/aMZPH7jnP4zz39KKtsQJk7hDJ/FLaAHEZP0xj1kFoAUj+JL0PwKKA54VtqQlcIRml34kxoUmgqMiYkXXhiWO9qxButJ0QSqGMpufyNWMiBcdr9UrjJ30DBR57PYjg8dy5d9zP5rY1gpM5cCEcRAC8zhUw2Ldbsx9PAvrPALz8dwa0v7sK//3Iv/vWFWnzxxRCWvdiGZS+1CHvjslea8KXftODf3w7jq+/HUFrdB5tvUCRkYyzMEk8cJV6Zm1nGC9WJtXSovIstadVQZL3UZFR9XxHYhLl0KI89sNHx2xvHquomPLG7E39vG8CRE2fFBCwDyNDMwwBPIk7ydZKbhQOj7i1F2gcP57uS7FrZDHM/TCGVmsQQgMBACs8cOob1O4ZRWhUCYy06Aj0SjGqYIWeklY3RCEY1zM67RcwTkDcCGEUbUQglGLWDMTVGuz+OOz1N+HPHKXRMAadoz1GDSN4N/We4ffpQ/rapO2iEoryv+VMX/xa/MXVeHcdpFjBmZWoEds4+ekqMA6/tPwn7r3bh/z7/Kf71+Vp88YUOqTW+1IZlv2rBspebsOzVRvzz71rwv//Uga/+I4ZSp1pbzSjXjIdJMDLToIg0zzzVKlc1gyznfHJnA+RShiNHLxzFyOWTFkOSuuWudjy8rR0v7gtje/+IaG9ODNK8xoAmk+nsddMcrwoY2UnyHc3YhZjvIYNMNoMU03KmUyLx0qb4GL6zO4mVW4dQUt0lgkVwKZE1Z3vRWcqKwahnqecJQ+NQ5kYCo1+mcZCZEOVQ2h7owd2+FrwTPo3OFHA6kxVOzMTDnMBoIF7+nhoOLplNfnv+YtoYi4fSTKLF2PFMi5AHIz0laOb53ecjKH95J77y/Kf4t18ewRdfJBhDWCbA2IplLzfjllcaccurDfjibxrw5T+F8JV/RGFx98EeYJ7zJJhJL6ct5uBIKM4FjEt5ZFMERhGlqE+kRih3d+AeXxMe23wEmyLH0A258EAsE0xnZcBkIz6uoaxddTBKROpflBWRoRkclM/rk5NptI0Db7edxH3BDpQxWjJDZHkYfFXOthpdHUqVm07On5HaooDnzQ5G/n52PA1Gao8yUrkj2It7A214t/ssujPAGdX2xWDkHdLg03eruL7U68XnL759gpFaI+EoiwQiZ0RZJBw5pKbGyBzU7SngjUMjWPHqTnz1hU/wb88fFmBc9pIRjC245ZUm3PJKA255rR5f+n0Tvvyndnz1gxhKXVpzpDZvgGOBlqiH1JeQ49xDXGuQi39onbd9y3B4InSbyBWTRJm7UyS2u9/5Od5sHUJ9Wk7EEozUFifTVKKujxRdNTDKnzO9K6UyMoE73XT6RqfEhMCvDvVh9aY6WGigdTNlgcwdQSfmwiEyBUuWSycmKn7vLPs5YVv8QlZoY2I7GH8T96Urk8hzo8BYVpPA/ZtDeC86ipgK5c+H0kxgvD4ieC0/lfJIOGoQytr4vwYnzQ10I2Pa3j/VjmD16zvxtZckGJe92AEBxl+1Y9mvWnHLywRjM5a91oRlv27AP71Wi2Wv1+HLf27HVzZw0oE2R07GMAKPDjKsfVBleorCe2m8r8XbGopLw+YowajSFDMMnrCTyhSsDEm2sroRt2/cjxdqB7DzNIS5h3ZGjihTyoXnWkqI/qyFAyOvOI2DWhD1xwHUFglFPhVCp8bhjZzEM3siqNhwGCUuCcVSDyPoMDhoTAaOKABAsaBc4f4NBUZq0Mp3TnXA8s19eGBrGP+Ij4lF+1zxcvOCMS+iWjK1Dkk4ylSr0g5JMDLSUxTAX+tGcNtvduJWAcZDWPZSHoy3vNyGW15uVWBsxrJfN+GfXqsTcBSa459D+MoGLs1MwOLJewsUAlKNjqYpArPJ9tKBo/idYlWWXJ3FfQFHfy+Y+qCssgkV73+OJ/YmsSkxidpzcsFHOkv7okyLkafHtdu6RmCkGMo/WnfYOWlkPXj0At6uT+KxD0NwbDiCEmqLjJ7jjaJEJLmKCXedi6cumE145nh8SYJRdYyCB4bWpgvBWLGlDw9u68IHvePCX9QEo4Sj1Bul/kgU5sH4/7N3Hv5tlff+/2sutmQnAe5tWd7OpAUKhRZaCtyOy6X9ddxy29tSSLyzoDQE2jISSGJbwyuT7L28NL2XLK8MZy9PSZ/f6/M855GOZNmRE9uxi5XXk0eWjtY5z3mf7/5KGyTByDRVxth+VnsFz67fj6dyD2PhqtNBaTE+tw4hMDphWO2Cca0ThrV2xK+pRfyaahjW1+LhT+rx7U2tSC7S4kxVOJXw1kpPrQKl0JJiAeQcWbcSjLoeTfzemtbH1gepWx1I+ewUXtvTjvX2SzjU7xf7nRoNj0uIHIogMzPPHBi1OEYuuMuAcLrs6rqF9w434bUKFzK31kopkQUiCEZKjCqOMQwAMQIv1tfMkQU2Vo1WqrTekynVaS48Oq64KAnGVwlGjwQjPX7zEqNSqCPBqOyPw8Jzr9bpF/ZreO6DA0jKO4yFWadhIBDFoLSoJEYnDAUuGFYTkA7Er7YjroBwrEXiX5145JMGPLapDUnbOpFm7kK6pRtpZi9SzSx+6wmGskiJSh3bCdb6HFm3Y8HI3yThmFbShtTCOiRvqsELFW34w5FOlHcPifRgtvB9kOae6QFjEPOawhJgvT8//D6fcMXT29cQALa0XMNb2214qcSBxSZ30GaWLGouyhNeBHhHQk5zzIjCtbFcXSNfr/97jiywsWBUJ43ecB8ORnr2l1CV3tGILz0D6NRCIRQYxRVZBNszWiB8zMx1eeY/hStSW5WatVFKJlJipPOFp+OwdA5qITubnTfwvb8eRFI+wXgK8bkKiBoUqUoLdZq2RmlvjC9wIL7AjvjVNsSvsSHhfYcM5fmiDWlFPcgw9yKtuAspxZ1ILu5AiomSo4wkiAmOc2TdRgejXLuib5OpGSnb6rG8pA1vVNTjqxZZ/emm5iSk/B7EyQwul+kDo/g12hIkGMWQWRceP3BmEPib+wp+bKnGs2Y7Mi31ITCKsmKyqx072+kN08pbHTnrt5nU/TmywKKDkVBU4R7qSixVaS5IBtIuqejCjyoasKntlrCXqYrJQVUlAogKkDO4Bmf0o7gitVU5Box+eqVFy1iZnkaJkcVUqUo/s34vnsw7iIXZJyUEFQzHmwUgnVCApO2RcY6PflSPJ79oR8rWLqQX9yCdXuviTqSYGAAdskFKD3b42g9b13Nk3U4ERv4e0f7Y0oEMqxcvml3Y6LoC5wBwaUQGenOdCpTM6CoBpg+M4oeoJRj6aXS8NI8C+64COTUX8b1tZ4VnKsPSgORgFZ3oCyIShpF/j/ViR3+fubjAYgVjuPOFZeW9eLmsDp82XRdxjAzXUfke30SJUZ5mXI807Mt/yitNMPoDcu/wfzpfmnzAxrP9WLFmDx7POYAF2adiA6OQIOmU0SRIxjnmVSNhjQ2PbiAcO5BpYlWec0JyTDXR/qgHo7Z2tZJ7c3XNCjDSEchmbWEheFIjFBW+y7qRZunEd7bUYHXlOZy45Ef3gD88p39Og5FfXq457WfQxB2CIh9kLqTjDlDkHcHbJ/qwYstZLC6yI93aFAZGQjJ8MYR2rNrB0eZJw3GOXHknB0YtjtHqQUZJJ16yOvGx+xJcd4Aro/7xwcisTZW5GXkoZ3hhTs/HcS0qtwsvCxwSi/RIM7jb5x8W6jTNDb1+oPYWsO5YHzLzduFbWfvvAka9iq3dzw/B0ZBng7GgFgvW2gUcn/qiA6lKcjQTDl1g8Q/Rv0eYiKg1KY1AgiSUwjpXwnWkrVsCUp3T/F0aGMu8yKxgc7FOLP+yGu8c6UB523U0XhsWVaDok+BRmunb1EqMY779WDDSK3r6GrDBfRW/OOBF5peVSC9yIq2kGcnlqu6inPVgHANB0S40OiwnBcd/ITCKAPgyqtISjCmWDqRZOvB8cS0+tJ1DzbVRXBoeEVY02m7CJEbFCw2M6vqm5jGHdk4+wB+pOtDJAG+5F0JZL6P+YfgDIyLA2zMMHO8PIHufFylZO/DvK/chMec04gXsNLtiUJXWQ1F5q9VjzI5xwpjvhDHPhrisShgLajTJsR0Zxb3IsPQi3cwiw51IY2Mz0flSpRAqOM7dDBiCMWQeUGBsR3q5F4u39wkzwpLN1fj17gZ8WtOF6gt3RGMyapj/YmBUV2fO8sZ7LEp74IIf2Wf68OOvvcgsdCDNVC/aFyQRjDo4jgtGq3T/MxFdL6Lr4al/7YT31QGbUwn6ymsZbmMM5pMz0NvqQbKFRv12PLetGuurenD20iD6h4bHglEHRQpUIoBAJzGGjqA6knNx1tajaMs5AlBlFvZEWrEkJCkxEoy+wKiItW0dAPb3BvDOrg488W4FHn6PYDxzFzASipHDDUOeGwn5biQQkLm1MOZrkmPQ5tiJNJMX6WPA2CLzqkWmDMGogqTn4Cy80ZQaQ5Jwalkn0lg31OrFsq12/FeFC2uPNuFYz01hyqAgxaMz07dplhjDTyn+QGYTVHQP438OtuOFnR5kmhuQxp7RpW1hqnQYzHRe6CD8JoJirJ7qOQlFTRoUnvVIMDKXXGYVsKpLsrkDycVt+M6WauSd7cbhC4PoHvIJaYiqIo+HgGAEGIW2GQHG8CM508t0qj6P1FcSI+EogaikRkqKo75B+ALDAowNt4FyTwC/rfDg39/ZgQXvHkBCztnYwRgM66mDUYCxDon5biRqkmN8bhUSaXP8qB5PfN6K1KIuTWr0alJjhzgvZI41gSLDXKLPmqYgAvx19x80SFXCQfC7h4ORUiTXKotLLCuux49LnPjDHie2d94SPb4pSPHSFTTRcSGqMVXLIsr7TDMY5Seq3zHgAzqGgS3NN/Cf2+uwvKwN6ZYWMNCTB19IPMEdqFsEGsCChlwt3S3a3+E2GE2Dq3MiAAAgAElEQVR8DwJwvL/n2tV3rMQo88gJxi4kl3YhtZQtK7uRYurA8q+q8eej7Shpv4KG26PCdkMVhQuOuai0KwoYUmfh4N8aCdWxm8o5yjqcoYdU+TsFR/0Plh5pv38Q/sCgsIWzUO3nztt4vagFCf+3Q7Q3MOZWxQZGDYqMeZTDDWOuGwliuGDMtcNAyZE2x/UOPLqxHk980YrkrZ0yxpGOGLNWy1CkyN4NjFwTOiBG3n9QgAw7n/kbNDCKaArWW/UitawHqaW9WGJuwgtmB35WVoNNzdfg9smiEnSEiTWp1mXkYgxbPRM+GbblRH9MIRj1Xyj0kXxUnXc3hgH3DeBjez9eKK4VRStFLJOQ8HQg1O/Mu0JtPNjF8vhcA6L2fcX+0V15y1jSiumAlBa7xUgr60FGeZ8IHl76VTV+va8R/3T2oPL6sMg6oorCBXc3MPJI6o/sVNwPrY6ZvqetRuFh0jojiquCenwEgQBl6QHhET1x3o/Vxy/ge1804KE/7MZD7xyGMbcmZjAGoZhTB4MYbhhzOFww5jhgIBzzamHIq8GCdXYJx01tSDfJMJ5UUydSiqXUL8wiPMa6yI3QfVVMZQIwEpQzDUedtKi+q3S6KE2nA6nlXUjffg6p5eeRaWnF8kI7vl90Futcl3HiDuDxyTJ5QYiMB0exMKOtzntbY1MERvWF1LcOfRk+wusylZb+O8CZi36sqzqPZ4tssklO0FnwAA7cTC+Uqfq8CDAmE4yi0lAIjKklLFzQLboFLt1qx8921qHgdCsOXhoUmQVUUejxE+171UHSC1A8pLqbOsJTNeveegbvRnx7VVVe/Fb+x1XKy8WgAOM+7yD+p6IVmZ/UIe6dw4hbyfaptsmBMQhFCUdW/w7CMTcER0qOiUE4tiNlmxeZdMiYGAROyVEKDgow4bMqvxfqh8SwLRm6pYPlVK2/WN9HA6Mq+MLvLMFIZxIH/+5Cankfkkv7kGpqQcY2B54urMK7tkvYdRVo0uIZg5qMQkzEoZRXb2oEfIIb6Tec/BKbdjDyXKPKxpOw6yaw33sHOSe78Z1CpgAyF9orWivO+NUs1oM7G7dTYBRApG2WYKQnX0qNrMcobIwW9nzxYEmRC6+UOfH7A3UoPTcoquwwD5jHRAhPah3pZ/3C09aV/iF5Xyb5j3387lLm5Jfq9L4i9Ev43WVLz5Kmm/jJ5ho88YENhlUnYciuDIEx6I1W3mnlgeYsUwYNuazyzaEkRjXzMZcsciukRhnjGJ9XicR1tXh0Yx2e3NSOTEsfMszdEJIjj2UJTSUaBPWz0BbGQnE2g5E+BalWe5FS1oOnrN1ILmpC6hYblm45i7fPnIOp1w/XgAzxC7JOz7sxC28OgFF9Z16DeQIyR7fpyijM9f34v4NtWLGtRoAxrbxLwnE2Ami2ficNjAKI5QRjCI5ysdGg3YEkM3ttdGCxqR7PmmrxenkN/tl+A7YA0KOVkA9bcOOBkQdTu6njqoKjQ/PdYRh6rXq3Bzur7yMjGUNyxu1RH9puA/88ew7f+fAoHlldBWNOJQy5NaJat0j/GwNGAlIHR0JRDQFHPSD1YHQI2Brya2EoqIFxdTWMa6vxyEY3nmSx2220OfYgTVS+phChkwAj7ispUT+HbT/T6zmaxCi8622aU4nmIP6ebiRZmQHUgtQtdmR+eRb/fbgT/2i6gaobkh2x2XPmEBgpLdLQfw2A7eIQPq3y4te767F0S7UEY0W3sDPMS4yTMCUICYESYjuSCUYNjjIYWMa8sRDHU6ZWEbKTaW7E0m01eK7oDPLdl3HoNtDmlylXwshIQ2Nw6DQRBUpFkCAcFQ5lhrH8a26AUf0Uzvx50nrA0rRSs+F67b89grM9A8jb24qk3K9hzDkDo7AF2mS17qhQVJKjNudSItRGEIwKjoSmkhgJRvaptsG4ml0Hq/BQ7mkkrKvGoxvdeGJTK9JMDIBma4AurX0Fi97qRmkImHoozkqJUYGRBSToWxCw7kIy61Wa25C61Yn0zZV4bU8L1tacw/HLsse3Om4TA1IDY9CbGHzVpK/A06JKq6/DmRYbGvpFmbHzg3j/eCt+UeHEEg2M6dt7QKlxHoyTBKNQnfVg1PqIlLaIftzJ1latjJsHmSUtyCi0Y3lhFd6uPI/iPh9cg0pFCUGRedLBhaegyJkHUrspJMp5boFRrcsQEKVVkY0NpGVR7pOW/gGU2M7hd2YHvrVqD+KyziA+rxbxeXZZlDYGMBrydGAkBINwpJdagVEGfgswFtiRsMYO42pKjlVCckxYV6PBsQ1Jhcyl7kaKaA3A8yVyRIfj7JQYWZw3HIypZX0ifTW9uAEZW2rxyo5mrDzZiUMXfUKo4gVMLEV1EPWzWqPKZhxUg9RGavXGPk8LGPnx6itxwVFaZNOrAz2DWLm/Hq9abcjcIlXpeTBOAoi8uir1hIU2CMdy2heZIaFlSZQy9KkNySUs9kvvXycyStuQXuxGZqENPz3SjQ/rr+HkdVUQVPNMqwOmn9WC044nk+ZC/8IRqX9ZLPdjX6JTtyW/FwVjX4AVohUU5UxfNC/gtL2e7L6Ddfua8KNPz+Dh9/bioaxKxOfSDujQwOiMModLjEFpUUmNSq0Ozho489hMywFDvgMJqzkIR0qO1YjLO4sF66W3+vEv2pBSRGdaD1KtvUi19CBFjG4RAyhBGQlH5a3WQnkeqCotPeoqXCcYjSK+kxdp5X1Ysr0HmWY6YJx4obwRbx9swe4+GUVBjlCq57ELEwi5RtWY3WAMnU1ciFxwlBZZpaTMcxu/3W7Di0VV4qqQbGlHWnn3vI0x1gUbtCnJBS8dLgSjyiSgGi3BKOJCRRhUJ9JK2pFmbkKGqR7f39WOPxzzYmevT+QCM7aUC47HKuwmKCKf4F0mzY3CJwZbRsl/Co6hCyG3jWWEfdYM/cGVybacw35ZSZ5wZEV5/n6uU1FNJwDQ6fLW1kos/eAoFq46jLgcSovjQ5HpfnJIOI6RFqPAMWSnVK+VcGQrVkM+VXZ+Zg2M7D64jnGO7FvdgaRt3Ui3nEequQ8pph7RNiHZzMwRTYLU1GqhUmsOmmBAeKzrbKq209arTFWVTiMJRgaut0MW5aVgIGMZM8u7kcEOoUX1+K61Af+9042SztvCHk5znIIjIymCMNTfFx5ptXAVh/j35G/TIDGqbypPDzpezrONgai/eBM/L6nGs1srkbHVDgFGuut5MKfqYPyrvk8QipQatdANTWoMjw2TNkblhBESJjOHrG0ikH5ZWSv+c2cTNjfdRD3LyA9p8YyRa0ejm1pmUt0cxQjT5uAT/fT0S0/bPCYoctsHceP3HYkAI+FINY3rtMcPVN4EPqy8hGc2HMZjeQexIIfVdCghKomQ9wlJ2gb1QwNcEIIRqrToDaPeI3LWwZGtWPVD81ovWO/GIx814YkvOpFadB6pxeeQaupDSnEPklnXUajZhKOUGkMw6tAaxjGud5Layf1uHwSj6u6pYpW1QG8Ro6yBsbQb6aVMiWxHenETlpka8XqpHVtbrqFtVDZx4zEScGQCk8KMftbAKBubSTNPlEt+TEtvGsEov3GwP+8w8I/GG3jNWoPvbqtGRqELKUzrY+T7PBjvvmjDwBiCo7oCKxVlbPqYpn5rPWAyStrwg5I6rD7Th72eO+i8Je1qlJjEYlPU0kjHiUeSTUVZfoL/5ioY1W8hCCklCtVMc8Cw6lPdLaC4eRi/3dmBpwr2Y1HWISzIY6ZLHeJiASN7TI8HxuDrI6Go/lZg5XtEDgeMVLXXsJ5jM5743IuUbeeQYelHmumcgCNV7BR6dml7FIH+UnUVWoV2IX3wYGRIkR6OCtYUjLqQVsLSax1IM7VisakZP7ba8Vn9JbjvAJd8PuHE5TrlxW2Og1Hm5Xb4gWO3gA/cV/GKpQZPF9Yis7hetvgsJRhn+Ep2v1fCB/X6MDiqBRY5KzukmkPSOFMo0yxteNbswm/3teLvNedwpj8g7L8sYEvpSVBQg6IS/+SfVJ6JR9l3WX89jthcvWzCOabL9jRtxO+r4KhibC/6gcO9AeQe7MaLm5x4JOsgElYdQ6IIo5FgjBOS4wQS40RgnFBipBNmrIQpYh21eMf4XLuwcyauc+ORDc14clMX0oovIK34vJAcUy29SLX2aE4ZBvpTStPs0ApGE61b/dqaaLtYn9O9n/wuKs4yYr0G30+rRWnxIM3cgQxTK35gtuEj+zlUXR3EueFhkaZJQUuAUS26MRIjV2ZozEKJkUtPUr55BNhzKYBc2yW8aK4VaT8MIWFrRanqzYMx5qu5bsEplVo6ZKRKEu6t1IV0lLBsPktatWOFyY0fWR34w95GWNpvi97eFzVbW9B2oxaemjW5USJFYlE9dS/zNDHvrm9LSYM2KjphFBSvjADNN4Ct9qt47YsqJK07jUU5J0XBCCP7RRe4QSjKIdXoqKp0rGBk2bIICTIkaWrxj5oXm1kyBKQx1wUj4ZnngLHAIeD4xBeUHPuQbr6ANEufBkZKjQqMmtR4NzCGrakpOCcj3k+AUcvE4f3QulUSI4tIdCLFQs+7rGSeZmrHC8U2rK304kjfNXjv3BbOMQFGFa7Io83Fp+AoVGmuTdUfnE9wg8nfpkmVllCksiJUlCHA2jeKdyov4DmTDUuLHFhsZUWdeSDGDMTglTXaPpOqCEM5kkt6RUxYeFiHBKQEYweWmBrw3SIbflLmwNraC/j63Kgo7kH7TWiRRXpRtMo0ug3uBYjqNZNfqlPwCrbkHPUjQA+MdiGgUd9704eDrdeQ93Urlq49jEXZp7EgrxYJwhHC9gQuxOVPERij1nKktKiAqLJjmDqohhvGvDok5DPUx4m4HDpk3FKtJhwLmU7Hmoa9OnVaZcnEYGOMANl9CSsR7xUJRQlGpc3o1rLVI8DIFrPCXmry4LliO3JOtmG35zzab90QLZdV8ZPgagiCUdFyVoJRfUulqEgwOgaArZ0DePv0OXy32IYlRU4sLmmdB+OEsNMtmrtuNxEYQ1KjbH7OUm9NWFbswvMWJ361vw0b7RdQfQOi6g6lKB49HknxnyIZRS2W7BJglA8Gn4rcNIa/gwv7Hu9E++y7vRUFCt+oD75RmgWkw4U54zUXRrDhYDP+8/MzeCL7IBJXVYryYAkFbhgIsgK3HELSmwJVOqrEOBaMTCWUcGQdx3ok5jcgIY8lzFw6m2MTHv/Cg+RtrACuSY0qEFwUnYhQXSPAFdQ2piq3eoL3139W8L5a2xoYky1eJFu6kGzqxLPFDvzlaDNKmrvReOO6CPujoMULOI+/uPHOGImRrkJKjQ9cYuRXVEuVX0aBcURIjCwP/1nzdfy/Yz1YUWzD4iIXMoNgVFVwJgOC+W3DJU0FP3olI4OA1XNSlaadkSERi02NWGGqxw9KG/CHA62weu6gYQDoD8hMJbH41KITq1D/x72H6ahVoi3rSU/q9epc0M/ia4qlqEkPamPtCYKRwqII2dF6ujhvAdvc1/DmliosXXsIj648jIRV1UjU6ieywCydL4aCOsTnM+VvCsAYoUZTrQ5KjEHJkSp0aCTk1iExrx4JufVIyCNE6b22YcF6VzCUJ3lbF1JFnCMdMcyX9yC5pAPJrHkosqX0cY1jgTlGmlOQU/CKdVavi2XWTDxiPbOGqKUTSWZZS/SZYgf+cKgRW+o64bx+S1T0ZqwpHTDBizePt1oEQpWWgWW0hc8SMIoVqQFSgVEaTCuv+7HBdRG/ONSJZcV2ZBa7kFHSInofh+onzsMuHHaT3R8KgFrIRjBlLPx9lDqdYWnHYnMrlhXJ4qD5Z7pR4b2JpmGIBcgrs08tOB2+iMRI07aeP7He171lzHfVe/NrcYVFDsE//kcjos8nf4DuN/AuPdGUivn7GgeAosbb+P3ONmSsPYRH3tuHRatOIjHbLuomGrVaivH59TDk108rGKPCUQdJ2hoTcuqQIKrzhMqWGQvsWpxjAx5n98GibqQzANzchWSzB0nmDiRZpTo9fgEKBU6dihsJtVihqLaLfH20vwnFUg6v9DewSIa1E0kWD5LN7fhOsR2/2VeHf9jbUXPjjoiHppOQYTvSBSgv0CEwSjVaOQml1ChWRcxrTG04RTZG9Xac+UW4ZLn8hsQCPHV1BGtrevD6vnYsLXYio9iNdCvBqI9n0hli1c6dn+8exnMP+yiVYREMj7B2I62oDd8tduPN3Q1YV+XF3vODaNbgSAcFF13oiDLIW+YV6xUVPj/ZoV8xsd7Xvo5YXSrcRj8TfOImdGZGrhOQ2m/Q4hUpCd/wAW03fdjeegt/3NWKpz+14+Hc4zC+dxyJ2dVIzHYJCEkw1iM+r0GCURSJoONknDjGuzhf6HmOdLro/w45YCI81KKGoxssWZaQVQdjNsHIFglSagwWu2Ul8E3tSCnsQqqpG6lUSQlHiwKj1jpE1z5Eeq5DYJwyqTHWdanASHAKMMqWHMnmNjxtsuOtPS58WN2K09cHRfV/ZtHJYG8ZT0ujiArdkS2amX4wEoyeIDrv5TaNYOSSHRZVdY5fHkb2aQ9+tKcVS00upJvqRDuDFNHwZ+42+Lk/CS9ckpvZ9+IVuhupJT2i+RJLyn+vuAZv7nRgg/McDlwcgTcgi0wQJLxCDyCAQbHkQpIaQTRZIKrt72WxxgxGvrnPJ5wswjSqZbjwhLrOLKwBYFfzFWR93Yzlfz2EhdmHkJh7Bom51UjMsSNRk86MufUw5DUgPq8R8XkEJFXp+wDj3UJ2xouBHA+MotitzJJhCmHC2lo8srEOj29qE4UnMkp6QWdGMiUwqtP6UmWR93VeY73DJGgL1MA1/etUVoZKsbRhRbEdv9jlxNozzTh2dRB9CGkzQ8GIWvasVxc/3g+BkRKjXKGTX23TBEaeMlJqpE3gcP8Q3jnagpd2NGOpuQ7pbH5laUJKiarJpuD4IGHxzflsITGWdSO9vAcZZV1Yam3BimIHXixx4DcHW7DBcQEH+/1oHZa5w4TJDYIyEBB6gCaEBU3bCnaTmSe/VOUSVytLLymq+wrUQoTw+eD3B4Q5gGl/DPNgrGL9LWB3xzBy9rXh5U/P4FtZXyP+3YMw5lYiMc+GhFwnEgjG3HoYcxtgyCUUFRjZ5Gp6wBg1jlGBcgwYWQXcGVYFPD6/GobV1Uh83yZKlj3xZRtSir1ICaYLqhAelYWizeMAUcExDIxKHY5VGpzMdkJyVOcgPdRtWF7swBvb7cg53oCDlwbQraVtSokxlGrA4icBfwCREuMsAyMXsLJE+cQVev/5Qby9vwHPlzdgiaUe6eYGpJoJRtnrRWRtBNOD1M6Zn6fr6ky7TnpFNzJ39GDxjh4srejE0pIWLLfU4xmTHf+1y42/OS5g74URtARkAzN6bwdEjrFUpQkhBaLJAFFtez9gVHAkoPWDj4/6AhgdGUHAT8kBGBZAlwUi2oeBXZ0B5B25gO99chb/sWovEt7dj7iVJ0TLgoQ8BxJyXaCjQ0iLuQ2IJxjFoOR4/2AU6rKIR9SCuqMFdisgBmetJUJQlY5sjyD7VRtW1yAu/ywMa6vw8MduPL65FSkmZpT0IDWYEUNA6ocKvI4+RwXjNEiPQVuj9t6p1nYsNznwamkN3jnowtcX7sCr1V0IgXFEJKcKMBKOAUqMNPaMCIPPLAUjjfR+4WLfd34I/7O/Ac+VNWKJpUGAMcXcOA/GyVxRp3LbUg/SyjxILycgO5FR4UUG75d6kF7ciO9ZXfjV/ma8b+vBzr47cNwCzo0CouAEzXasVHYfajTheC83BdWJwMjv5vNLCyihSTPA1WGg+fIwdrXcRtb+brz0ZSMeW1cF48rjiF95UvR5js+xiRhBdvNTUDQEwdiEeN6fKjAGgRdhSxz3cemdFm0R6HzJVmBk6qBWz3G1DcY1tYgvqET86kokflCLRwjHL1uRVMTgaa3IhCpXViqbpoUgGR2MM2ZzVBKjDozLip142VKN/91rx46+26IQDasfSTCyDbAEo18AUarRQTAKQHIF3NtqmwZVOlzloaRByeN3B5rxXHkzMi2NSCMUzU1InpcYp8W5cndJk3acdlmWjJV3CMQyr0jiTzM1Y8k2G7679TR+WlGDgrMelHlvo3FYVp9hJXbChq61e4XjvUBRvUbBMdrM76OgSfWaJxDXX/sAsLPhCrJ3t+DZvx3HopUHkZB1Gsbss4jPrkRcdg3ismsRn+MQnfyUN9qQWy+BOEZiZF6zvoAE76v85lhhN8ntdOq06hkjc6oVGJlLbYdxjQ2GNTUCkMZ1NXjk4zo8tqlVFJoQKYNMGxSpgyqsK5RfPVY6ZEhPCJhhz0/lhTrKe1FipKP2RVMVfrPLhpLu22jR2i/zuEZm7Ss1WoCRUJxtYOSCVYuT8UasrLO9ZwC/+roR3y1tQYalSZTASrE0z0uMURbE3aF2PyYGLWaU8W0M4bB0IMXqQarVI/oYp7Goh6kZGUUuLCuqxQslNvx8txurjnfgS/clHPYOouk6cH5YQudewKgAd19zNCpq647AJrgvDQMt14HDntv4svI8/lxWhx98chpP5h1GwspjSMitQUIepUQbmIcsJS96emX6nYwrZO8WBUfOSpVW1XD0gJxmMDJ0RxfXKD3Y2mdqaYLG1XYYWMuxoBbS5liDxA8ceOTjBjy2qR1P0VstgsD7RC3HZEu3DKaOKFkmARge5zhGcpzmtZtq7cBSkxsvmKrxy512mLruoFGr68pQq1CVJ5pM/KDU6A+wBS6HAqNaoZNfbVMuMSooiit2AOgcBcwdN/Ffu+qxoqRF9JFOtbQgxdoyD8ZpXlzhkCUM5SAMmZeqRqrZg1RzO1JMrUgtbkK6qRFLSpqw1OrG0q2VeH7Lafys6CzWHmrHXs8gGrUsGaWoKE5NfvndwyvUh4XNMqCba48X4+sBoOWaH/vbbmL1nka8+slxpOV+jUV/3oUF7x1BAr3Pq+uQuKYOxnyZg5xQwJQ7qtGU5AgczgykVnDkzL+VbVDBUUmO0w1G9X207xBUu0PfI5553WKwk6E2CmqRsN6JRz5uwuObPEg1nUea5TxSTL1ILu5BUjFDelQ9R5YsU8VuCUaG0ylARsQ4TvPaZduDpaY6fM9Ugzd3OLDNOwg3IDpcUmsJ1QYlGEMjBEZ9QNnk19m0gJFQ5JX7ph9oGwYK227gpzvqhfczzdKKVA5rqKDqvPPlfqTAybxWgZFQ9IpS+WnWHqRbu5Bh7UQGSz5px4al51n0NtVUj2XbHPj+Vht+s70FG06dwyHvoMiQ0YNx8kvvHl/B2AwOUQmC1SB8wcHvwzXXMwAcbrmCDYfa8bNNVUgpOIJFq47D8O5xxK+qFNkrxjWNSFjbBOPqBhiZ2cJsEqba5VFq1ENOwlH2iOZ9PZhCUJp2VToIwigqeETVHxVnKeZ8BwyrHUhkPceNzXh8kxfJ2/qQZr6AVPM5AcdkM6uAayq1Vs9RAlGLM44Gx2kHowdL2MStuBY/2+7EZs8QHKyZqQXnE3tyEIshMIakRkqOs0xiJBgZ/3bdDzQNAF81X8PrFW4strSIslcsmipPPF1R1Xmv9AzZGz2ykomVZZ5YHLQXi8u6saSsE0tL27DU2oQlZjcWFzF1sxpPbzuLF748jh99dgC/3HQIK4uOYHtNOy6NhNsY7xFzk3+ZAqOYGX2u5XCL+DXgxlAAnkt3UHLMjj9/thPfz9qGx/9nM771x1I8+s5uLHr3ABZkncDC/GosKrBj4WoXEvNdMGTbYci2wZhLO6NdGw7Z5pQqrB6Iwqush+J4Nkb1OjVHgdpEwIvlOc3DLcOImK4YbdgRl1sL41onHmE9x01dyLBcQrqlHyksditqOYZKlkm7YpR6jipcZxq80uHaDdNXPVhibsAzRbV4o8KJzzqGUOsHusYBox6OUmqchWCUOS/AldGAKP75ecMVvFrmQoa5BamWNlFNeh6Mk5H0pnhbLSeVUiMzYDK5CK2tWGqux9KiWqworMTzprN4taIav9nnRPbRRnx8ug3mWi8O1Pei4fxN3NJ5pidPt/t9hcqF5hyCI7XrIR9wbWAUjT2XcNDVja+OtWLNjnq8XezA65+exYr1R/Bk7n48uuogFqw8goSVJ2FYVQ0joZjDOMZabRCSdhEraGTZL1EXkWCT4Am1MxhPlVYwZEUc1QCLj907HPVZMpO770Q8JccCJxLWuoJwpORI1TrVck70kVEVmUQMowgAj6jnqMA4zdIiIUkwLjY3iNqtrAL199YBVI5ChOzQ+RIpMc5aMKpYIgqvQQP4SAD26z78w30Jr5Q4kW5qQYqlHSlWdgljo6Z5iTHySjlTfzMbIom2RUsnMqxtIoxqmcmBFVtP44XC4/hZ2Sn8+WAtPrG1YUfHRdiuDAkVlQH7dG5QKyCIHuxNGRq56qTapB7hzO95YQSovxzAzrrr+Ov+Nry1+TS+u+5rPLlqBx7+804Y/7Qf8X85BWNWDRJyOKqFDVI4Z3JtSMixIyGbwdRKvVZgVEBUs3pegY8QJBDrtaHgqJ6f3Hx3ELo1G6gCspyFXZQhSAU0FzjxUHYtjGuk5Ei1Os3EWo7nI8DolVkywdRBzc44A0BU61+Bcfm2WrxSYseG5js4NRQCo8qKphItK8oTjVKlnlUSYyQYRabBcAA1V0fxsasfL5e4kG5uFe0M2ARHNMOZB+MMqc96iVN6pumRTjK1I7m4RTTJeqa8CT/e24Zfn+hEnq0Xm1r7sav3Ms5cvo7mm3dwcXgEd0ZGMOIbhY9xYw+IiHrwyfvqEQXH0MxnBn3AlQGg/XIAZ7qHUdFwA3+vvIB393biP4uasGxDLf6D6XTvnYbh3ZMwZp1GQs4ZJOZUIjGnBomUIrMdMHLkOIT3WtnwwkJ2wuyShJ4Eo4h/FBk0BOS9w3FiMCoo8v2jDFHLsV7YUqlqC8mRlcCFzbETT23rRoqlTwvjYXyjBGPSA4I1Og8AACAASURBVAYji1kv21aLH1jt+KDxNo4PAJ0iPVVFvki3S6QjZlaB0e/3QwydxHhxyI+qS0PY6LiAlykxmul08YhG2/MSox5W93qfOc9yqCutrFYU8iDKMAuPKNghugVaW5FhbsTi4josLXRg+dZqPF9UhV/srsd7Z7rweftN7LsG4QGkoZsdHlWpJ+YUDPtHMOrnPWLnwdwUCuWs/0tKjSqSVrRK1aRbeqtZmYXhY40+4MDFAP5pu4nfljTj+Y/O4slV+/DIX/bg4ZX7sTDrIBZkHcOCbAKSUqSUGINOGX0MIwOs1Qg+TumRsKInW2XPPDgwMi4zIb9B1nMUjiansDkm0Oa4sQmPfdEh+sawJSvtzqEK4Cw+IUfIO6281BPMUyBZUmLMNDdg6dYavGSpxfr6GzhyG/DMNTDqJUaqWVyI/QqM9gt42SpV6VQLO9axdWKbDNcR83yudAhssUKSzhOOLjkLQErbjFjEZV6klHchuZzNkZjp0oGMsjaRdbR4m014+14tteP3B5qxproXW9pu4ut+PypvA00+iIR9BkczNILSP48n8wxUhuqDBCNxHI5lPRxD93mPqKS3muYd2qZUj3O22zhzOYDylkH8/Uw//rKzDW98WYul7x/CY7lfY8G7XyOBoT3ZlcK+yBqIokCsaJVKGMrYR+nF1uAY7O7H6jsuDYxMKdQyZx6UxKilOIqyZbkMSSK4mUZox4L1Tjy6kSXL2pC0ja0v2DumSxaesLYjiYkAqthLmfJS68N4xgHkfcIxBMZqvGSpwTr3NRy6CbRr9UIjVWmlTlOGnFUSYyQY6ZW+NORHdf8QPradx8sWB9KL6Xzp0OyMbArfKhrDiyo7817pSanVQlIUUOzWwZFg1BZtuRcpFd1IqugSTZHSy9qxpLwVSy11eLa4Gj+tsOEvB+uwue4cDl0cRsOIlKb0MCRMuOAYTEsgDkOXhiWQ82Akxok/VYFRbqWHI9ckAU9AUgpmH2m2TK27DuzzDOGjkz34r22VWLHhIL6VvRsLV8kMGdFzRVTOlnAUEmIOPdcOLbxHA6UAo030hZbeYUqMhCIHAUmpkSr25OyL3P6+VGlWAtfyrBOyWL5MFqAw5rIyTw0WrGff6jo8wao8LHTLuEazrImYZG6VGVJlsn+57GGuB2Tk/amxRyowLttajZfM1VjjuoID14E2v6ylOWfByJPq0lAgCMZXzBoYzfNgnLx0OFaKDEqLFll3T/6tSYy8yJR1Irm8E0/Ru2htRrqlActL6vHK3na8faILnzRcwe6+O6i+Ooy2Qakyi0ZDmoTFqy78w4B/CAEMwYchAUaikZXwZHOAiRE1256VJ5OsKakchMyiuDwKdNwGTl30w9RyG3kn+/CGqQ5LPqrEgpVHEb+yCvFZtbpwHobxMKyHRScY96jAqEqA2bSwGQXG5gcHRg2KxixZy5FgFM4kYTOl570WCQU1SFxbi0c3uvHEplakFHqQwcITFlbS1lJHBRjbQDBODMepBmMVXrIQjJfDwBiKYZTOlzkjMXLhXR4KoEaTGOfBOBZu9wNI2b9Fr05TpeagBCm7AaZZW5BmbcQSkxPPWx14fbsLK8/04Mv2WzhxS9praHOjlCjzT6W32adVKoF/FAiMIBAIKdGyPCiXJWWxuXWLBCPXqJIiaTK4wLxqAIcuBvBJ1WX82lqPpeupWh/CopWHsGDVCSRmV0pPtYh3lHCU6YT0TsvCsZxDEqNelVYS4+SlxnuWGFXfGCExuhEEI8GeI8FoYO/svLNIXF+DRza68MTmVmRYe5HGwhNmxr0qdXkc6TAYAK62i5jvQa0OSYzhYGz1SYkxHIwhz7RUpZkSyC2UzXny63TKMl8iVel5ME4tCKNBlItHDC1YW/QWtpxDurlL9OVl7+6nS+rwcpkLfzreiX/WXcGevhHYBiQU6VihQ4JQJCBoi1M+XZE1wKwSLf9U5hfIgAgCZu5hkXZJmS0hu2PL2pL83RyUlglHXiS6RgDbVaCseRDrj/Xgv4psyFyzH4/lHMLCVSewINeBhQW01dkRl1WjtTR1wZDPoG8tfIfqb9D5QgeMzLUOeaYnB8f7ByNVaA6t+reQeJkrXgtDfg0MBdUwrq6CcW1lEI7Jhcyhl6Yasf7uBsCJnp8kHGMDI4+namQgV6gAI+vMiyIS82CclH0uGmTm1mOqgZgMe5LSI1Wfc0g19yPD1I1lpjZ811yP1/a04E9HO7Cl6ToqrwDdQ9IBoZwqhAKdZXooiuUUrG/Hck4B+HVjLkKRMgPBqGxTEo6yCD4L4fNCrvYD9wUvFp5B4NR5H/551oO3tp7GcxtP4on8k3ikwI1FGhgfyqoRwdPG1bKjoMyzpnODYNQ806z+HQZGFbYTOxzvCYw5qhWrqucYKldmFDZSqfob82uRsJqArMJDuaeQQMlRq+eoWiRQG6G3esLzJAyMSrq8N9U6djCqdhsKjLL5xqyrrsOTiguMJ5ze+TKvSk+lBMnFxoUng+S5iKj2pJl7kW46jyVFHXixtB0/39OGAudVlJ8LoOo60DME3BoGBv3y+ETCQMAx4Bdxiir8SmkCYZl4c5SMBKOEI08ieSL5hMU0VNfPN+JDYFi2i7k6CnQOAJX9d1DWehs5B3vw0qdOpLzvxqKsM1iQW42EfFazccDAzBJRekzFMBJ6KmSHtkY5QnGG8vlYHTFTAkaRwaMcLyG7qDHfJkuWEY4FVTCuqYZxXbWE46ZWJBV2irx6aaqRURDjQjIIx+kBY7jzRWkAhKMejDT/EJBc0fe2WKdMlVZafCQYa/qH8YntAl6xOKVXOsz5Qs80w3a4E+ebYU14NQ5TRZQNpwMpZe1IK2EYTisyCpvxtKkDPyhpwe8OdWG9rR/bz/vQEJDJ91Sbh/xysNy/XkJi0LYYfp8o9OpjXKoo5cTKyOHjHteaWiIzMPNkGH+oPocSjzI8mPdH/T4MDY9gZNiPEb+UGkV4TwBo8wE72keRv78bP91ch/TVx/Dt/JNYkHsGhvxaxOexfJmMX5TZLgqGBCCzTlTgtQKimmPzUN8TGPm5QmrUCt0GUxv5PfVgtCNhtQMsW2ZczWK31YijzZFtEj6uFz1kkotkg600xjpqDj+mlLJNqxh6aVLAUYFRO7eDwIztPFcS49KtVXjJXIW17ss4eEMfrkMtZw6BkcuRJxzDIuiVtl0ewT8c/fiR1YUMhusEwcj4KF1K4DwYJ1ZTIsCYWupBapkHqeUepJcQii6kb6rED0sb8YejXfii9Q5ODwAtPhmGwxOcKXKiwjXznEW6sap6LGO/WJmE1a85FBSVCi3hyO2Zm3xvV+EZIOKEQJSw5KVbDXVqKfnRj9EAh4x7VKE9vKDQHtt6BzjbH8Dnpy7gra12LH3/OIx/2Yf4nLOixzMlRlb5NuQ1yiZaOW7EE0YM9clnYy0FQzXHBsX7D9dRtRxdsiiGADjBqBxGdhjy1WC4kaznyIrgievtop4jW7MmF3YjXZhrekTLhGSTF8lmr6zUREAqOI4B4+ThKMFYD4LxRQHGKyKOsSMswFvCUSrPc0Ri5KK6PByA46oP/3ReigAjA7rbkSxUQd1OCzv5p1L1/Fd7LykxppZ1CjBmlDRhhcWF503V+P2RDnzafA3Hr0svK8NR6FigaSOkWJCKDMdhiRxtiOKeBKIaojGlZluU0qMMnFVFG/geMXAocptpp6P6QAU/3RwsOKH9hiAgaXmUv5f7iBd2mhn0g+uZ+5KQrO26jc9O9eLNIheeWnscC9bUwJArnTDsJmjIbxJwjM92I54xgwyqFhIjgRg7DPXb3rPEGAwqJxzVZ1Ni1KRG5SwSM73q0rMu6zlSta7FgveZIdOAJ77wILWoF6nFvUg19SKFtRzZcMuiRURMCEYlQcZmc9SDkRLjurqrUTJf5Jqe1WDUL0clMRKMzmt+fOq6jB/rJUYrwah21DwYY1ehJeC5aFidiOE46dYmLDU58erOBvzxuAdftN3E6TtS5eBJrNRl4oHHKCg1BUaDcYrCqCbCcnRQpBod/CclKlUZWUCV76YO+mTm2QRGIfnKLy9tj+FQ1O87PTCvDAKua8AX9ht4q7wD6Z84YFx5RLRKoBQm4Jhbh7gsJ+JWORCf5YQhW0lrCk6TmO/Sj1pAU8vNDtkwleoezdGjgTEMipo3PfhYqOitocCGhLV2PPpRo4RjYR8yLReQJuDYjVRzKMlArGUlMYZlyqjzfTJgbMCybdX4gbUG7zdcx7E7kSmB44AxWME7JApMdtlNiY1RnRfq2qzAeGUEcF0P4DP3FQ2MLFLLUvodWoaGbmfNZ77ErEqnWdtlvnORE89Y6/DajnqsPN2DbR23cfKarEBC1Y+eVRnNJZ0OIZLxSDGkYVgEb6uualJaVLZFbdYCIuQ2DPZWfmy+x2y8qdU4wRzmSQr9Bv4iBUA9FNW65nMcwrEIBoQH8IXzJn5V2oTF79PmeFz2khH1HB2Iz3YgfpUThizWexwPjEp6Gw+Usu6jjIuMVmuRj8nMGJlVo9T0aLP+M9TnRswi5VF9JiHPmEypXi9Yx5JljXhyUyfSis4hrZhly3qhcqyZZBAEYxlLlrUjJQhHZRdXcyifX7ZSUNXD5cxIC+ZKLy+swculNnzYfAsnhiKLSKjjJW2NYTI/NaIHHcfIJUhblLBfaSoIVQ969epuAp/XXcWPS9witi5NgFEWkpCeVU1inAdjzGBMt7RiSZELy786ize21yH3bC+sXcOoG5U5zrQnUu3jCSxjDnWQEFIScUlP7LDIaGHSH72zwhkhHC46OAq0sh0loTiAgLBUUsnkwputN93vHVesHWsGEOtYJ2WrU0uBUc2EJsOdukcAxw1gi60fvy+tx9N/O4kF7x1AAivzMBeZsYKiox97VKvg7ongNM5zGqzuBkepekcD4ngqfAQUhXqtfYdgi1eniM80Cq8786tteGSDlBxTCnuFzTHNwvzqblHQRIJRQnF8MEaDYhdSyrRR2gW2U2V1nRXFNvyowomN7YM449OXHZPY4zGSQ7rU+L98RB0tHtXJ36ZMYvSJ5uay5zBPG56U13yywfkX9dcEGDNNrZgH4/3bOzMszXjW4sZPShzIOtGJEs8AbDdk7i/3O3sp8+SVS0Paz8RfysYmpECV/TykFYagd1Zec6XjRTlmaMFRULyNAO6Iv2c3GEMnQiQiQ89EAaNWfFedbOrU4qx/HzquhrRiBtcCgPPcbRTZ+/Hbkjpkfngaj66pEmXLEliyjN39chthFKXHlFpL+GhQEqqrAlQEGFXBCk29VeXOxs5aNfF7tF/qbZnhcJXf15jvFv1wWDgjPrcWieucQbU6pbAHqSZZlYf5+xODMRKI7EDoRTJfV0oododGqVeA8WmTHa/ucOOTzmFUBiQYedHXHxt1AaNeFDQVBaXFBwlG0cs3gFF/QHj0eFISjtd9QONtYHPDNfyk1A0FRtGNTm9jFNJibG58seP/ZZw0WuaKlsEiS4ZF7geWFWOKXwfSrG1ItzaD/XZf216H9453wNR2A3XDUlJkYYSRUWB42IdRH4HIZaJbQmFg1BeGUIl+lBQZzC29z9LZQjBS5R7UoEipkfjlcpz9N3Wq6Oewb61/QjOb6vZY2OmlNHC/z4eRUcrX8gRlnxmxzh1X8avSZmT+7QwWvscWCqeQyEBqrfVpOIBmKxiVxKlslG5RxzGxoF42C6PkmG8XcY9Uq6W3mt0HCUctCJw2RqVKBxtqhUNRVAnXoJhcQkBGgLGEYGzAd012vLHTjc+8w6illK6ZiPTHSB4HnbkoGDnBg3tvt6mRGAlGXwCjHH4prQh1g82wBoHClpv46fYGLLO0Id3SDtrIZBUYzQnzjQSjNCdwP7A2pZx5X8GyM1hWLIPtB6xtWGyqwwqrGy9XuPDO8Q4Utl1H1VU/zmnltES+82gAIyMMuVFKtH4Jhe7L4AYCMZR+r14hlpigAL23XHY8msoeSSgqefTeFt1MvyqCfeKCEfYd1AbjyBvB04t3RJFHH/w+7kt5495gI/hTFwL43HYZbxbZkLHmAP4j+zASVp2CgVWzc7QWrUpSVLOSGIV0KLNl2JRLDl2KYR7tfeONWCRGBbxYZgVFORvz6pEgRp0ovSZKruXbsGC9C49ulHBMKvRqThg21upEckmHNjyQNUGl7VBIiASiGiVeJI0BI/vPeLHY1IBnTTb8YpcLW7qGRY1QrnWa6XgThyMoPaqDyKubbmjbTnaaVjAOBIBuH1DqHcQvv27Fd1gT0EJvKpu8S8eLqPVG6fEbZmOUAOyALB7bJuYQIOmgYraBF+zit6SsB8utLaKa8YulNvz2UCM+b7oE+5AMyaH3ORiSI2y90p8sVYsQDPUKiLTIhLZT19vQAtItNCE3KUAqOYnPz62b/hdN9O3H3Y4nHIHIIQJB5e/nHqZ6dz4A2K8DHx9vwxufH0dy/tcwvLMP8VmnYcypFpVsZGA1pUUVR6hlzAQ9z27Eax0LZV+ZkLf43sEYCwzVNuFQlAHidTDm1MMoClJwO4LYDkOBHYnrHCKU57FNbUgp7hb1HBn4ncQK8WbWcyQgNZVZwVA/CzASlEpi7EFKmQQjuwQ+b6rFL3e5YO4dQatWKo4rUN14rNQFXaCSx0gG6UpyTnSg1ZtEmacMjH7aGH0BuW64fkj2gAwu3tEzjN8eaMezFR5kmFuRTsmxlHm+HbLW2zcSjFJSTLO2Il1UwWkVGSwSjgqMTPPrwWKLF0+bG/G8uRa/PFCPjQ0XcOjSoGglKfuvqJQoKQfy/zAVWq9OhyuHUZaE7iFFiOBD97jKgq9/sHfUz9HPMX8jvkhIiwqMhKMW7M6LkRZA3z8KHO+4iA+PNOOHnx7Hozn7Ycg+jviskzDkVInCE0EoEo6axCg9y4RinQAj/556MEZAT8Q43uWxnHoYCMVsNZhNo9lI85gpY0eiiHOsx+Ob2yEyZNiO1dIlegolsXRZiQQf4TdmEIyUMCPBaPViSXEdXjLb8Ls9LpT3Dovq3XQshmR1xT5e1vmoJikqWUAd6JgPcmjDKQEj305pXlwr9E4L5SsQECrGnnMj+N/DHjy/vQOZZtYGbJkHo1CZaVagBE2JkS1lZZMwoVZbmf/ciTSTFxnbmvFssRP/We7A6mqvyABQV0/6i2UboND/EoxKslOrRD/HuGJi3Cy0nGb/PfWT1BzzNxYv0KQR0dM6XDLh3qVdnZL7BT9w/IIPf97pxuL3D2DRqr2If2cfjFkndVIjJUZNBRYZMwy5CQejgmPIG+0QBSvY8U8MnWodytPWO3DU/XGkwXsGo5Ia+T1siM9nbnWtTB/c3AZWeUov7UOyhZXA6VwhELu1EQFHBUY6YITzRZMYrV4sLXLjZasdf9xXh519Q6JD4PUI67Y8jupozkIwClhrF1FqGgQjF8oVAAf6/fjzcS9e3NWBTFMj6FXNLOsQKW3Jos3BN1WVljGd0hnFghChQUimWdqRYerAssJGvFbeiJwzPSjx3kKDX6rQdLbQNRJCorz3oMCoW57C/hPt75hBNI0bqu816Y9QtqsoqhovQ1zvlOBp2mgeAgrrruBt2tb/ehgPv7cbC1YdhTG7WlOjFRRVdW6pQks4qvvqOc5sgSrboAbBmM8YQw5NHR/XK63AON48gdQocq2VtCjV6ZDEqMBYA8OaGiS8b8PDH9fh8a/akcSsGAvtjT1ILulBcimHgmNoTiIYNakytawHatBOuazYjZ+UOfHe4UbsOz8sNCQ9GMXhEHKiOqIEY9DoqMTJSR9mvmDKJEZ1JtAhJEJ3NHWaP+TIFWDVmR68vMcjHAgZliYsLmcfEorZ7P/yTQQjq23TwcJBTzQDX1X8F6XHVqSbW7DY1IpnihvwuwMemL0jcGnVtmnTonSiqoro4fggwKhbmmopjDvf00qdDS8K/kjtBNS+E6VFgpFuKYKRTrCLANwDgKXlDn6x5QySsnfi4VUHYMg6i3ihQqvAbAVB1elP97eQIPm3C/H5HHowqswUpvDdDYyRkmM0QI4DR610GVsjcBhy+FqlSksPtWG1HYbVtXgo/yzi11bj4U/q8O0v25DM+MbSc0gp6UWyGBokBSglHINgZOxieU9wMPpkebELP93uRt7xVhzuHxVORpXNxV2vwBhcGur48ICo+5zv4TYtYJTqtIxGp03g2NUAcqt68eOvO7C42CXc8EsqPEgr/+aCkQde9m2RVbgZ/Z9c1oGk8nYkl7citaQFvIA8U+HBm0cuYkPdLZHV0qdVMOZJSAlFlT94kGDUr8FY79/DWp0dL1E/UDv3FBSV6WjQ7xMXLK77ngCLTvjwwaEm/OSzU3iq4DCMq05rYNSrzppdUesHE5Ia6xCfz+GeAIysqTgZOCpIqllBchwwBiv0jA9G42oHDGvsiFtdLcCY8Fc7Fv29Ht/+qgNPFncLQCaX9GlwJCQVILuFmp3EjJkoYFxR7MIvdtZh3al2HO8fFRXWpZYkdz7BGHZTx0Y/h20Q+x9TC0auEs0eLTJh4AclxhNX/VhT04fX9rZjSZEdmaZ6SDB2IVnkTUfG7t1/EPTciHdUFUm4MGiA9gg4ppS2IpM9WoqceG1XOz5oGMLeKwG0BiD2550AMKhVgJFB2RKPlBTVkO4A7YAIw7T+vlo5d1kok9xMbR7LfJdPnt1P8wdGgFFIjAE/hnwjGPCPimZbhKNnCNjdchXZX7dgxQdHseC9w1rnwVqhUotitpQMBRSlNBayNRKY9To43q/EqGCon2MHo/BQa/CWlYRkHUrjGieMa50wrHUgfm0t4lZXwfC+DYs+acC3N7N/eS9SrOeQYmXv6j4hQaaU0PPcg2R2JNTAmFbeDTWYNvx0sQO/3F2HDWc7cKZ/WPgrRKwu971mThyzUCIX35gNYntgasCovow698SXZiiIT9hbKm8CG+sv483DXiwvsgl1emlFp9gJdOXPDYhNw/csZdArPXaEYidSy7xgxZwUczOWFrnwQ6sLfzriRWlvAM5hCFVCxCpqkYTS9xyCoYIi53kwxnYC3M9WXPZc8oSiHCxZNoqRwGhQpb7sB+qv+VHsvoY3tzmQsu4kFmadgHHlKRhzakQNx7hsB+JynIjXbIQSlhKKcXkNGhyV1Kh3wMRqY9SDMPJ+DGAMc9Joqr0IL5J2T8NqJzji1zgQLyTHWsSvtSHhry48/EmjgONThfRUn0MqAWnpFfbHZDPtkF2inmNaaRfSy3uQVt4lzoMUSyueLqzF7/Y24HNbtyhfyK6OTMWktqQ38445hkKUVFAa82xMD0w9GNX3YfYEfOKH2O4AX3bcxu9O9eLpYhuWmOqwtJxg7JWpQCqV6JsESQ2GBGKSdp9Xy3R65rY14ukttfjvijpsrOpDzU29syVkPuEeZuEHmaESMYtTVV2pImd1kO6yRia5mdo8lvkunzzrn1a/UYFRxtKpv2j5lemxPIkp5dRcBQoOdOKFf1Tj31cdgvGdQ0JyjM+x499W2fBQFtPtJLRCYGxAXF6jBKMI46GdUQ/GUMD3xF7pSBjq/747GFX1cTFHtXs6EVfA4UDcag6q1XbErbHB+IFTwPGxzR6kms8j1XIeyaYeJJu6kVQs6zkyY4brPrOiB+kEIzUnUxOe3lqFPx5oQlHdOdRfHRE9wYM1AESGljwXxi4WdXQ439tt6sHItSHkXF5DR0Xgq3sIMPUM4f8qz+FZsw1LTW4sYZHVsl6klHQjpSSGfhL/atAkDOl84qjwIrVcLo70km5kFjbjFUsd1p7qxd6OW/AMSE8nI/7F7hVqHKtqq3zmCCiKDmnc/9w62lAL5y6LZpKbqc1jme/yybP+afUbuXflnlb3aPlVFmDeHxV/td0BrI138MddXmSuO45Ff9mPhJUnRVtWQpFSYzgY6xGfRzA2iVnGN9IuGYJh6H4smS96GOrvTwzGIBQFmCnFavbQoN3Thbh8F+IK1NAgqQGS6nXC+048/HEjHt/sQVJhD9Is55Fq7kVyMbsQepFm8SK9pAsZZTwHOkXyR6q5Cc8WVWPl0TZsb7mE1uvSPEGHI/eqvBBFAyOPjFrz6ihNfjnNCBjZzL3ioh8rbRfxvNWOZSYXMkX1btoZvsFgFHD0InV7NzIqupFZ4sFiczu+U9yIX+5sRnHrAOpvAgwaVldKobKJNgSydmJUaXEejJM/EyZ8hTrBImchs4vgYmm6oAtGBapxliYNYvK8H6i9AXxmv4Uf/v00vr1yLxLfPYL4VVWIz5FQFJIie8MI+EgwEo7CzigktZkBYxCGWp8aKSmq76UHI9V7N+L0IwhIgpKQtOGh/BoY1zs0OHYi3XoB6ZbzSDGxlmOXBkYv0ks5PEgrZahaE14w1aDgdCcOeK/De8snzgGZ0BAC49jDNmvBSANjKMeWJ3SLH9h/Eyiou4YXS+1YbnIiw9IioJj8jQajF8llMkwhs6wTmcXNWGFqwuu7O1Fw9qLob9wzAtzwhVL+RLVitiDQKm3Pg3HsqTG1j+hhqCQRJR1KrUjCUEFRzdICzJwMSjhsy9rpB/Z2BfDniiY8+7dTeHTVYRhWVWrFGWRfGAlBQlE/CCMtlnGaJca7QzHkKQ8DYhgc3Ygr4JBwjGc4z1objOvtePjjBjz+JSXHbtG8jT1kRCM3JjNYZKGUNIaqWZvwA6sNH9b24fTFIZwf8AtvP7UmJjXIOlDakVaHSPwps2CCmTAibmfyK2IKJUZdVgDBKBSMURHTxT4NJ0aAD1pu4eVyB5abHEg3NUmP1DcVjKLUEh0v3UilfcXagcxtbjxnqsf/nujH1rZhuO5ILzQbWLGUmFTMtObiBCMlknkb4+RXfcyvUGecXgoRMrtOMqQ8qFRnKSVKeSZkdeRxo4BAL7Wb9UnPXsCbhW48mXcExqyzWLC6HomrG2AQMKSEqEmJQmJTcY0PAIxh6rNOYsyvQ1zEYFhR+GP1yzfrhgAAIABJREFUiCuoQzzbyq5xIX61Df+WVwnjOgaBN+DxzR1hYBS9oEytSDW3INXajIySRrxSZsc/6/rhvAFcGZbFI8Se1jQm9iESN3WYtD8IRTnCnoj5qHPDKQKj5jsXqVJKWpRXU3pRuwBUA/jEM4BXtzvAGmtpRQ1IEulC31BVmvmjTJXisHiRUdyM5duceLW8EX+tu4NDV4COERksLEy2QcVM+p6VB3p8MOqlm8j7MS6YSW6mNo9lntQqfWAbq1+i9l80KFKG4eApqwejlFn4SoKRtjF6VLuGgEPeERQc6sOKD89gUW6llj9NrzThQ2dLg9aHmmE8oUo7MjVwqm2MtDeG7IxBiXE8KPLxMRBUUiThWK+NBjHHF9TBsIZwdCKe7VnX1sIoMmSYW92GpG0epJm9SDV1IJnN8kzNSLM0Y3FpE35S4cSXzVfROgjcGpX7UQgHejCqQ8RZ3EISI+9Fs0KqLSeapxmMMtiVpYLqAXzVNYCf73Tg2eJapG9zIcnMEBjleNGKXP6rOVnG/T2yQCeDW5NM7cjc5sT3i2V4grV7BA3s7qcVRFUHUB5ypaLxqkiJUdVODJ+lAVotjPFm9c73P4/3CdEev/9Pm6l30H97BUfOkYCUsrxyw/BkVK9UWxOdhOOVANB0G9jqGsCrmxx4fPVZGFedQvyqSpE7HVSh2ZOaITw5qm4jM2WiQZGP0fmiHCoKcvpZPTferN9WxlRKz7iSVseZhQNG/5xOqlTxlwV1MK7hUHC0IS6/Cgnvs/tgPR77ohXJhV6kFHmQUtSGtOJmpJsasaK0Cb/Y6Ya54yZ6/LIXuhS1IDo5ypqhFMg09nFWTsnZKzGq5eAT8VysVdcOoKxvCP97oAE/LHEgY6sDSbxKBNsufvPAyJpz/P1PFbGkmA1v7qrDh9WdOHllFL0s9KvJICEzCWEos6MFFHU+6vAVol8t492feriM90n6x6f+U6f7HfXfXt1XkFSAVDMfV9uE7vFRZXmkBtU7CuzpDOCPOzrx9CcOLGQO9cqTSMy3i6KwhBLjGuOy7YjnYIMt0WRrfDCKghNByS8cdCGJMDYwcnvpCIqYg6E6ehhGu68AKZ0zhgI3DAUuGAqciC+wIy6/VmTKJLzvwMMb6/Dtz5qRtNWDxZYuZBS1IH1bHZ4rb8XvDrRiR9egyHhhH3RFFQHF0Ekhd7S2DHhJmsWqtFo4fqFg0PDcA2D/xSHknmjDGxVuLN5iQ1JxuyhqyYTxb2aQtwRjUmETnimsxrvHWlDWdh4tAyMi9o1SBk8z+Z9aFmOlkwnRoM5T/TzhC+afnHgP6HfkePfD30FtxUeJUF7wKi8F8NHZ63i9qAX/kX0Iie8dwaKCWiQUEEYSinFZNsRn28BYR5lfHQsYo6X2KVCOB8bJPS4dQbR5RhuRoNRto8/1LrAjnr93vR0L/+bC45vasMTSg4xtLcjY4sYPd3Tg3eNd2H9uRBSiYcUusR+F1U5K5OF7Wf41S8FIrNPGGAIjT2Mmfp8HcLJ/EBuqvXhrdwOWbbEh2dQhot5TVHexcdXOf1FwWj1ItnQgpagRL5lr8GGtF6cvXsPF0SFxQeFJJG7CyMx9SrmDe5SDz/KxCW7qjIw2T/Cy+aemdw9QpW4ZAHZ2BfCXAxeQtuYIHl55EAtzz0I0naJ0SBhSWsxRlb9l7cbo6rQsSCElw+kHY3iLhomhGhWeApDMmiEcaxBXUIWHP6pD0qYWpG2ux9Kv3Hjj6y6srbqIYxf9wmnlZ0X6AGN35Yh2hOQyl2hU/4eJk9FeNM5jU2Rj1KSaYJ5O6EzkKUyjM9t52q4M4Ct3H94+0IKnt9mQYurQyvd/09RoVtTpQKq5FammJiw21+ONCge+armMxgEfrsMfRB/3pDy440mM4xxZ9bLQodAuuUoCneB1809N6x6gm+ZcAGBG2N9td/D8xpN4PPcQFuWc0gpC0BEjR6hp1sQ2xpAqPbvAGFTLx6jhslpQXG4t/i37LBLW2fGtj5xI+rsNy76w4639Pfi7+wYqr0jBSgFRzeMdoEg4jrfd3R6fWjDqT0Jx/sm0KNpVqE43Xb+D7R2Xseq4B88VOZBmVn1NZMOnb5I6zeK0qaYGpBe78Vx5E35/qAU7zw0K2yJ78VGNpnxIHErFQYFRWasoMUpsjnuQ9ccj8v64L5p/Yrr3AIUF1illtEZFRwC/LHJi6QcnsYiVvnNtmjPFDUO+G4ZgYDfBOB4cZ6/EKMFYJz3uKmA86PF2idashgIHjGvsWLD6LL617iTSN5zE7/b3oKh9BI6bUrBSQOR8t5s8X+6+3UTvMzVg5CfoTzztE/kQT19GqzNf1HvzFo723cTaym58v9iBdNHTpEtKjd8oNdqDNLYzKHJjSbEDP9nXjvyaPhy7Jlugcn+xYSkRKBVmHmrphdaHhMyDcaKlPXuf43GlFkU4nrwYQN6+Tvzgs1o8kn0Ucdm1wnZnyK+DsaABhnwGetNuN3Ec4+yUGGnbVFCs10KQ9DN/Yx0S1tSDcEzIOYlHcw8hdd1B/OlgL3b1BdA0IGNAFRhn6qhOGxgJRSXjUHW4Az8u3rmF2iuD+Ki2Dz8w2bHY4kG6lQ2fZMHWb47E6BG1FjOLHPiOuRa/PdWDL9pvoeaODALm/mJPPgVGPRwlKuUj82CcqdNkCj5HCQ5a6w9qUQz4dl0FvrJfw1vmJvx79iE8lFUlai8aGOayuhGGfAZ708s7HhiltEh4zj4bowSjIbceBvbVzmmQs+ixzfv1wgufsJqAdGFh7mn8R/YBpBd8jZyjfTh+FegYVrG849sWp+DojHmLqQMj35oHX5sIRQlGpkT5MQQfrg/dQcsdPzbX9+P1UieWW9uRYZYtVWUV639BJwtLi2nScCpLi5XSnupBhqkeywpr8KKlGjm2C9jZH0DjqJSsR5nlolVAJwL1YJQ5uTGAUZ2I483yUM3/P1N7gMdBNNMKCP8kTSXUojy3gINeH97b24Un8w8hPpuFbGthyHchgdkw+Y1a4LdealRqtZoJTQWh2WRj1MFaa6rFxlrBkct2rHVI4EUg34mFWcfxePY+PL12DzacPieq1ff5Zfzn3JUYtQUmjr8OikxcY+ditncf9g0K73SZ5wZ+vacRz5W1I6OwAemMdhcFa0MQUTCZy7MCIWf+DtZbZL25FGsHMgqd+E5hJX5SWoWPG6/gzIC0OdFjKZqJjQEjLzRKpVaXHe7tKLfxYKh/PMrL5h+axj2g9r0WtMELH00ml4aBuhvAhjOXsOSDY0jMPYW4rDPC1ijB2IQ4pY4KlVrBUM1aOIyIYYwGRT6mADWxB3ky3ubYttU+V+sbEwRiEI4SjIkF9cL7nvDOAaTm7sWPPjqAbfZLovkVazCKsLUYbItTefSmTGLUHfegCq0aNRGNlBkRGBQxXPv7BvCXYx78cEc70rc4kF7UgHRrW1Cymssw1H/3SDCmsaxSBRsEMS/ahhfN1fj1bhuKO2+gISBrLnIRaIKFkBRDEmMkGLU9rnb8ZOepXEXz73X3PaCOj3ZN4zGmZjDgkwHfW9038f1/nsWja88gbtVJxOfUIIE2xrxmxOXQLkd1WkmNGgyDcYQyEJv2vOjjQYGRIHaDlb/Zk1r1qA7Nbhhz3Uhg+4YsGxL/tA8r1h3Cb748hV2N10QkC6VqmpZm+jYlYFTHnLNUn6X6RxyyF4m0lg0DgSGhPpzoH8H7tefxxtcdyNhUJdID0y2t3ygwLtlmw+sVDmQda8LeCwPCQ0ljvACjal2s7U8lH1JilFVF+Ii21/U7fzL3Z3qlfdM/L8qxoRA06pdOmIq2QfysyIGkDVUwZB2FIbsSicwzzmuKAYwuXWuEaHB8kGB0iQZaxhw31BANtdhUK8cFY44TRoYmZdVi0Tt78cOPTyJ/hxsnPDdlGw8taneml8+UglGdwJRyRHksgUXiUQsxCYwIb1zNDeDLtlv4f4e9WPzFSWRstWllyCahSou2AGwNMInXzLDne3yJsR3LCmvx1p46/K3ag1NXhkTaEzMiqF5RlVYhoWpB8LxSYJRw1M60KCecYuaEs3rj+Xnm9kCUY8VcCEpFB7t9+L89bVj+uR0JWYdgzD6FRKbRsVCtUKWVtKhUaP0sJciQyqxAGDnPtCqtfR7hF3U4YMyxiyIa8VnVePidPfj55mp8frITjnO3w+ovztxBkp80ZWDUQ1GCkTiU1kUJRqkUsvxS4zCw+3IA75zpw7LPj2LxlmpkWpomlBhFq1E92OY4GFcU1uD3B5vwZV0vHNeHROgGTxCCUcmDYWDTwKg6vARjtaKcbGGvG+/5mV5p858XFPLDjo9fhqOcvhjA+2cu4ofF9ViYtQ8JWcewoIC507E4XwhJBb1IGKq/1fMzPVMi1ABICKqRy/s2JOTKwSIaD/9pB/7H7MTOhitovzIgim5QjSY5Zvo2TWCk8iwdLj7hk6b8SKtzQNZnDAAnB4G1zot4fusJEBKZ5saxYKQXV7QZDc1BG54ejLNUapxIYvwOc6OPt6GivR/NN6XtlRcNoUqrVUCoqSuOUJ7pk1ZlxzTijQe+uz2uPmN+nrk9EHlMxLENiIuh/Rqwqf4mflbejEezd2NB1mEszK+FMZ92RqrUlAoJwGj50vfT2mA6QcnKQA4hERpza0XzLzYAEyO3FgnBx6qRkFuNJ7L2Imt3C870DuLcjTtivzAYnrtppm/TBkbZ55iBOtLSKAKUAwEhHrNyjBvAZy39eKPkDJ4312KJqR6sNiOHBkIR3qLdt3pEY/pUNqYXzenZoF5TpWcbGEtlO9gQGGXKY1qZVzb7sbThmcIqFJz14kjfTXTdHhQmBnqkuRB4/ogb74SBkVdPVVcnuFV0SSTyJIz8W33G/DyzeyDyOAQkGBtvA+VeH363pw3fzt6BRasOYFF+NYz59XMajEJazCMcbQKIhuwaGDlyapCYW4OEbJZdO4lHCqqx7P0j+NuJbjTeBC4PDOKO3y/C1uY0GHm81TkcCiuRfmkp50jLGANbLwJgVe/Srot4e18NflRmw+JCJ1IsbD4fyoRJK2VjnE6klXQiLSoYCUcNkHo1eybv6+Esvov6Th4EwUjg8/uXeJBW4gEdTd831WCj4zzsN3zoHxoJUxu4L4M3dSJpwFTVGKUqHdwq/I56zURz+Cvm/5qpPRDlmNB8wkDmo5cDyDrShdT8XXg0ax8W5p4RAdBGpgbmz0WJ0SUcKwl5mjqdbYMhu1aAMSGnFgtyq5Gw6iQM7xzEk+ur8MqnZ/GlrR9exvOOjgazv8iVKLvtro/dzyGdMomRX1z9APkz+Je0K/IZ/iMmVcT/BQCH+y9izRk3frbTjsyvapBs0oHRKqGYLsDIFDr2g+hAaokcKaUdGhQ1EM0kDNVnhUGR0msIirwvwdiFVILR4kGKpV0UjsiwtuKVEju+ar4Gjw+4zSujtrfUPuT+FDe1IrTFwefVNmqTcWf12mjzuC+af2Km9oA6LNQU+pgFMwJsqLyIFev24LHsfViQdUKo0EbWMxRgjKZG87HZqkoTjC4k5LmRkOuCMdsOQ7YNxqxaJOTYsDC3GonvHoXhD7uQ+WElfmV2obTphnBEDuoyv9R6V/trMvO9HsspBaP6wgKMjEUIliCTmb4E4wACogwZi0rYrvdhU30rfrPPiczNlUgu7kaatQeplByZLkjpisPq0RrlsBqPHow6OCpYzeQ8LhjV96IZQIO9hX11WTiiGUtKW/FGhQvmjltiEYyKHtxjr4r6g6r2rX7WPx/1vn7jyPtRXzD/4EztAR4OdZEjGKlFtQWAzbZLeOlv+5GUuxeJ7x1GHKWsqHZFPSRnLxgZCM5YRWOOC4ZsB4xZdhizbEjItmFRTiUWvnsIiX+owPc/s6PgaC8O9gxDBnWHeSfuKh1GLm/1970ezykDozrInINgJBx1EeuUH3kloJOBoSnNA5ewo+cC/ny0AUs+P4mUog6ZO02IWCQAqXqmlUhpcazEqAAkbXpBx8z/Z+89/Ns6rvTvP+b9bUQCpIpt2U4kVknuZW3vZpNNseNNc7LZJLuOYyuS2EkV9xJ3ySpsYFGxeqNEimInwN57UbWsTrEAz/t5Zu4BLkCwUyRlg/6MZ3ArNBfzvefMOXPOXMHRDUZvSdEtzarvocGopgIYZiytAY/ntuJ3++uxu3tAWaPlIfqrzQ/Wd795n9+27wnmz35PCGycqx7go5AxQ1WaMGC0nbTqb/HLj/MQmXwUlrVH8S8xpfhBXDkWJVSOYXjRgAxewFIj/RVViXMoOAbH2mGJs2NJXBGWrjuC+17Lwu/TqpFafwvlV/Qa8jugKk2/Fuqao4UG8095vPZ0n+esglEUZ35RLzga347baX7nD4Fw7HPeRNHNIWwp78JzqSVYndmC6MwWRNpaEZHVCgJGVGezKh2eRSBKmU9V2heIPp8JRhUgo0sHykhvQkRqHZ7e244/H2vF1/1DKhzbVB6sHDupBy4H+6sndYHAQXerB+SRcNBzPFCDojqd23gDr3xVhNWbTyDo9cP4fxtKDDAyHJldB3dlgFcpiRqYlCoVHBOMHDFe9d20PI99bZXIS6DoVdO5uxqLY8/iodijiIrdjbiDTSi47ELLHR1/UYHRdY+DkQ+XUDTcuBXh1Q9Knr7p18XjCEe6pVyDUxlhtrZcwYt7qvBkTgui0+sRxZBc2RqMYQRkFkHpgaQHivMtMQoITd/DPc9oOJ4bYIyi21FaIyJ21uD5/Z34e343DhnRiaWb/NWmrpt6098FZdvUrxY4YxZ7QB4Dxw7HAjUoqtMH2wbwqs2Ox98+jUWvHcD/t77YA0aBoU8dnFip1G03HEV6ZO0G5NgAm9y656mdTyhKMq8gSopc5aKCRtDKziyIdQiNOYPwxGN4fst+fH62S62NZn4oCk2DGMbgvQxGPmA+XEKRBgQxInC7vz9uJxx5HOdW6LqT1Xsb/3uqHS983YqoXXZE2xoQvbsdYbltWJnFNdT3Ahg9cAwzVOwwWwfCMhlSrQvRtKynNSBiZxV+fKgb64v6cfSSS4WekkHir/bXh5Pe5u+Csm3SFwkceDd6QB4DawoKTP9BMB5pH8Da3bV4+r0C/IBg3FCq/ReTRFqsQFCSd9FgNMNRp0HQoLTPPxwFjEkMM1YPS3IjghIbELqhAE+8nY//2V6IvVW9IBQZio0GWvpBa59d5QF9780x8sGKxEjYEZD8PN6fGaRMeXDs8gg22S/gpUMtWPVVEdZk1mDN3naE57Zjpa0FlBpFYvSrRlNKm6t5RfN93NKhj1rvBUb6X3Yimtb1tHpE7rDjP4/0ILHiEk58o38I5kHi2x6vHyfc53sx8+cJTw4ccFd6gM/A9MePBCNXPREMJztuI35/A577sBA/eG0//l9MOYJTanSGPSUpekORkJwbME5vBY2SGuMI5ypYk2sRklxnBMeoweL1J/HTT4qx5XADzrRfVi8HBvC9rSJL0elPzy2SF9Keam3q6ik1ZzTHKF9SwGhWpblvvD85h28IBmhN7bqjpMYntp/BYxkOrMltRkROG8IMiVE5dXs5d4say3qe1kuPB0ZjfjGMhqSsTqzKbkdkWi0it1fgl8d7sbn6WxWxm/9+6Ud/9Xh9OOE+fxeUbROeHDhg1ntA+p618Ud/VAoUEtH7TM8AthxrxX98VgrLG4fxL3RxUWBkjhTOLc4HGAWK5nqSqnViFSyJ1aAvJjMgWqje09IeW45l/ziM/06rwu76q2i6dEup0Jxv5YtCez2PPzbM3TlWW/p5qvW0wWj+IgI5Mb4I4Sf6MrwGfxDNTuDUDSC5pAf/trMAT6VXYE1WPcJzWg0wtunVLu4VLz5QXGhgNEmVYXTsziYY2xCVWoOo7WV4Oa8P7zXcQMH1gMQ40W/kO7XfPGjYNl6JFCioPnKesbT/Dj443YVfbKtEyLqj+AHnCFXo//kCoxmGU4/tSCCGpNQiJKUG1iS67JRh0bqzCN5wFsvXH8SG/S2ougZ8MzCi5lo9U3HuaADjCg6+Xer7ebq/n1kDo8CR9WTByC/NecZ+AHUAvqy/hFf2VuAFWwWiU+0IszUhXEmMAkbTEkBDXXUvCzTBaO7UagJa1Gj5jqPVeoIxOqsFUanViN5Rht/m9+Pj1ts4ezMAxun+cO+583xHrHJj40YdYoXjgPOMFf238cmZbry4rQKWNw7hXxiVZlMdglOYvJ7zjHMtMQoYJZyZfJ6CxJhUpSJ0c1lgUEwRfvBGHpYlFePJdwvxQUE/OoeAgWHOKY5mx6huc79O5LUyfj3d38m0wSg3HOuLy/6JarHIMe/0ga5biM1rxi+y7YjcVoyw9AZEMJse3XOUGr2QwEgAChi1Bd2j7mvVXq18yelERE4HorOaEZ1WhdU7S/GHM+fxRecgim9pKWGsPuT2Gf3dtQvP6Ft9P092PwvDt1eBUYsRBAJVSILRfu4mvjjbjZe2lSP47/vxL3F2WDfX37tgVGlg7QhS0XRKEbTuNH7w2kGEbSnBb3bVIq36uppbNUPR/Lt3d9sUgSjnTffHNmMwTvfGcp6oEZxrK704gi+qLuEP++uw6ssitUokKrtNOXjr4BECxk6EM3eKu8zHHKOo85QYzWDUq10otWowMqUBwdiE6DQHVu8owR/P9OOLjjsoCYBRfgbf/VqNVBMUGYjRMFuyRQGB00pV/dex9WwnXt5WhuDXvtZg3FQPy4KSGEVaFHcg+eynVq5D2koewrXR60/C8to+PPNxBRJPnsfhTqdybv/ugVHQPF49zs+ePwpx3Wm/DhzqGcHaE+14bFsJojOa9Nyc8mE0qajZnQgzioLjvKrRhKIuhLcKk2bTUYI8YGxHdDbBaMeaHcX4Y0Evvmi/jZKbAYlxnJ/Gd2yXDxQVGIkDOqVogwP992r6vsXWM+14eWsJLH9fyGCUZYgTwJEBJJJY7AhNLMGSmBO4b+1evLyrFjsaRlBqrHT5boFxPBia943zE+dhlBrvuIArA0DVTeDdskv4ia0Gj9ro8N2IyExRpz0SY1hWF8KyOlWZuzlFs2RqVqNbFBzNYFSBIxSw2xGeY4Ax1Y5V24vwu7wufNR0HYU3dFh7vhhYxKovtR42nlAcU/ks8oj5MbAt21lP5XqBY2fWX+xv9r/8yXPhdhEMKDHa+67h0/xW/GprKULWHsIPOMe4sQ7Byf7nGIPvuruOzCma5xgpGRKMk/CRTHTAmlwFS7IdofGFeCjxJFZvPIr1hzpVetTWYT2FwN+X9JG/fpL+mmot/T3Veuaq9ETfdBLfiHkvBoaBASfQAyC1eQB/OtyO53KasWpnFaLTGxBJI4xyjyGcCMQuhNlYdKxDz/yeMfcnrj0T1mbYTaXtf45RB9aVuJLtCFPLF9sRndOCyLQaRO4oxy+OdyOx6ir2XwHajXWynEqgVVIK55tY6N8mRbZNVMvxE9UTXSewXz+D2egHQo8SIa3PrPmZ1+XzZq4fzrFzrfSx7kEkHWvHjz+v0EEkCCDmfjGi63h8FunQbS4+Tt1qiaCxbUarX3QyK3MCK71SxgxGUaEFolLTVYf+i3TXcSAkNh9RW07jl58X4bOSiypoBn032Se+GCE2fLdN5/Mk8OP3kJmDUS7r+61l+yTqEScwNAwMOXWmvCPnXdhceRUvHejAI9vLsTq9FtHZ2q9R+yx2GlA0wGjjmmQd71BLbZNvu40601LHTXB0A1iD2yPF6rlILnGMyGxEZHotnvm6Hb8/2Y1P24dROAg0Aeg2VgFxvSxfDixs02LPwjYLVwqZi2yfam2+RqDt3ad3oz/4DAk/rm5hyD1+5jMmDBmblIGbGdX+k6ob+NUuB1a9W6RAsiihCsEqHqOO3u0NQwHjOFCcjFTHe4xVVNKqGljiao3CbH++EiM/Cwy9a/owqrzRiXaErD+J5z4qRsLhNhxquaH6gC8Hzq+KvOiLkel+ngR2xj1k9sA47m3G38nplpERHaWMb8+yG0Batwt/PdmLp3aW4dH0akRnNyIit1WppUqFtnUjLLNbS4wKjJ611LJKZuJaA3RW4KjAOLbEqYDN4Bi2FqzOaccLe5qxtuwKtnW5sP+CCyevAaevAvlXgFMXXcg778Lpiy4UGCX/kgunL7lw6rKn8PN0yymfa5mvG2h7+ng2+oLPiM/vzEUXCi+6cIbP7bILJ78Bjn0LHLoKZJ5z4Z8tLvz5SD9WvV+EBzYWwhpfpHK5MJ+Ljrk4AQDNUqK5PROJkdn94mpgja1VhW1m+/NWpQWMom5LrSFJqZGRvJdsyMPL26uQWnUN1RcHlbRMazzVaD2RxNZo/8Xx6XF39i4IMCqZ2UhETtWiZQTIu06H70v4T1slnsqsQrStFuE5VKfpusOI2BqMjPqtItiYgkxMDEQzREX1HhtqHulvdo6hUeYxWyN+urcZfzjUjFcPNeD1w014fX8DXt9Xhzf21GHtnjr8YzdLvSpr99TjjT31eH0vSwPeYNnD0jjt8vreRgTK3e8DPqe1e2qxbnc1Nux2YP1uB97YW43X9tXh//Y34C8HWvHr3S34cWo9Vn9cgfuS8xGaWAhLQimClLuLQ9U6tNg04DgLYLQoMNYpSGowGlKjW9IkBDUQdVbDWiVFBsVVYtGGEoTEl2FFSgH+vqcFp/td6LvF2Kwah3o1NNe7cHZdLwX0N994dxDo/6oLA4zGd6NrF+fFqGbUOIFtDdfwl8ON+HFODVZl1LidvXXwVyau70K4jfEO6SJjht1U2nMPRkqonDd9NLUKT+0ow7NfFuKZT/Px+PvH8eibh/HYm0fw+JYjeHzzUTy++ZhRjuOxzcfx6JYTumw+gcdmWNzXkmsGak//zmpfHFfP8InNR/DkpkN4YvNhPLblCB558xhWv3Uc0W/nYeXmPDyQeAJL4k+qDIGWuEIExxOM9AHUhYmlvIpZKhyvPRMwUkWOr0GwUqXrEBxfqz+7gUg6BBJuAAAgAElEQVRA6hKUUG2keq1FUEK9Ci0WvKEEi944iQeTzuLfPinHu/nnUE83tRFtcGXwai0zUqEOgNEvptlFnIilOt0J4Gj/HbxdeQG/PtiENek1CLe1IpwBbJn2wMYYhywEI1XiqcDQfOz8gDEqswWrM5rwaFo9Ht3uwKrPyvDDt07h/oTDWBZ7EMs2HMR9Gw7j/g1Hcf+GY7hvw3Hct+EElsWcVOW+DSfVZ26bVonhtQJlbvqAz+6Y8SyP4P4NR3BfzFEsizmGpbHHsIQZAWPzEBJ7CiFxBUqFDo4rxqKYEiziWmlfIMrn8WBo3jdTMKq81oRdHYITKAlSMpS5RAOKSt2vMsDIsGINSuW2rDsDy98O4NG3C/HG/g7kNt5GjxO45QIGRoYx7CIMaZcnGFl7JEaRGv3C4i5vnHeJkTCUP3YE5xwoNTLqTvV1J7K67+DV09140tagEmKFZ7QhMrNDRfqOyupCVFanSjB1b4GRocjo9N2J1VldiE5vQ/hXTXjwIzuWbC6CJeE0Fm3IQ9CG0whaX4Cg9YUIWn8WQeuLsWh9iSpsB60vMgr3Ta8sWn8WgXJ3+8D72fBZ+pQNhQiKOYvg2GJY4phKtFytKf5BTCmCGHBBgc1HWpwKHGcAxqDEagQl1iAosRZBjKPIWuCo5hoJSEnUxVpLi0EJTbDEVWPJ+gLc/8bX+OUXZfiy8jqKL7mUQzcV58GRQTidqmWMfIJR+3WO5b4jrLjb9fyD0eT3Suv0gEu7M3CusdcJnLkJbKy4hJ/sbcYjWa2ITG1EVEYLogiW7C5EZ9+jYMzqRHRuL1bvPofo7H5EZfYiIrUbP9rahqXvVsOSUg5LsoSUomsE38x8U/ONLW9t/eZmwqHJFlF7VM1rBsrc9IFJ9fQ8K2bPMxXJpkfVOa4Ci2LKwDk6RqThcX4lR7Nk6Lc9gQO26Xt5/TZEPTaBcZEZjFSvWSg5Ss7rJFrOqU5rOFrjKvFg3GmsTjqMN3Jrceq8C+1DOj7AkGsETtcgwOIOXR0Aoxv4nFdUxamt0oNOHViCfl5UqeucwFctN/HXk134t5xGrNnpwOr0BqyytSkoShbBe05izOpEVE4PVuX2ITq7D9FZfYi29SMyrRcPfd6CZe/XIWRLFSwpDrUczJJcA0syA33WGaUW1qRaWBNrVLEk1mBKJanGSM0ZqC13pS90qC1Gl/EqdF8Zs2i/P0qIQfF2nQgr3q58AVW4LpESpfYCoQBwrNozF+gPgGNtU/OGZomRL2VjntEiYKQ7UTKj/3jnnwmJKUT05nz8ZlspPj/bg/rbWhOkH6fTHa6aMBQ4csZR53j53kuMipAko1OXEZfuJlGpOxjV+KIL71VdwW/21eHJr4rxWHoNVlN6ZFRsI1cz6+nBcT7mGGks4nentCtzpd2IzOxFZEYvwlJ78PCXHVj8bi0sm+ywbKyCZSPBSIjVwpLIIiCs1lnYmIltksU9P5TIt32gzH4fmCVxY+mckWbAIyGKlC9zdVKbABZPyBmwVOf7qNNuMI4FQ33+WNCb3HazQUWML/RppG9jjf7NMV7kxmosSqrAosQypelYEksRsv4Ynv/nWbxb0IdTXbfRy3zRxkyi9luUNV6EI4uAkZno9RHix+iWpOaoMe+qtAeMWmR0uXSn8B1CQwydYR0DwJ7eIaw/0YyfpBXjqTQ7ojMYeYd+gW2IZBBY5nGelgFm/sCorOnKkNSBiMwuRGR2I4IqdWY/Vu7qwf2fNCP03TpYt9TAspHqtcDRG4rqB+6VbMjIyuZv2wSq0+QGi2nwBq7ntsqO7jsDiiLhuWsDWMp52rD6Gq4uowwb7qkOA35uGJrddgSMd+O5ENhUmykp1hnW6VpYYk1g5MqclCoDjMUITjyLkORCPJh8HL9Lt2Nv2wBabwBXOVXm5bcoQBQojhgSYwCMBv9Fn9bOnXxbsKvYiVwqx1UdlbeBT8p78IfdFXg2tRQRO+wIy2hEuK1Fp1c1ZRScGiAXABiZR9vWhQhbNyJsBGMfwtL78KPt3Xjg01aEvl0DyyYHrBurYE0xIiEz6GcASgu4DwRWIuXRusxCY4pYmvkCIxgN+LjhaJIeFRhF6jTD0NyWe92N34R8N1GhRVqk4ze/Ow0uhKJDx4qML0TQhmNYmnQCj31wCnFHW1BhBGSm36KyPav5RQ1D7aJDIAoUdexus8Q4R0Ki120WhsRo+kri1UQhm1Ij5xqZWrLDCXzddgWJ+S34WU4londVIFxJjU2IpFo9VTDaxGVnLsAoa6c9tfbF7ERkJoshLSow9iDc1ovwjD6EpfXih1914f6Pm7D4nRqEbHbAmmKHNdkOKyOWKAlEBkWg1tbbhdYPAkYa0sphoarJogDJfYSZgNBcUx0nEM0AHKst/+a7BUZRpw1jC1fDMOufWhpIFx1arjklUwlrXD6s6w4g8u0T+OPuWuyovYJ2Q1JUM4kuJwaddNOh9Vn/x3lFPbeooag/6a1mrxUTJu56c0GAUeYRWNNlh28L8W6i1MjJWiYkt38ziB2N3+CPh+rwWEYlorIYXIKpVlumBkaq33MGRg8M1YodrtrJEgmxS0ExUqnQlBYJRQOMmX2IMOC4YnsXln/SjMVv2mFNKUNISgWsybRWiuQhA2MatRp8IpEEanfi+pn0i9s9RqDI50QolsKSWGyUMkN65DMzA41wNENRZ/9TOaWZV9ovKOW5m68ze23tsqPhR+nQ8wIywJ5Yo1KiWhLtWBx3CsvW7cG/fXYa/3R8g7NXdZIvjmnKhEMKjCMYUjKiHutmEJrb1B+1DnnXOTjqBvMORoGiAFF3oO4wtilw801z0wV03x7G0Qt3EF/ai58casbq3EZEZNYhMqt58mA0oKjAqOAo66VnZ7mf9/JBgWIXwrO8i6jOhGJkRg8iMntMYNRw5HxjeEYvwunGs60Nyz+qw7K37QjdVA5rMgca1TIZfNOs/Q60sSSTwPbJSXC+z4IvMUqKxbAkFcLC5X5sJxCOhKYP2NySoiS/Yl2poCiA9P4ePud7gXZmgNTrtLW6HKQi/PgGs2BIsXpYkhphia3EAwmn8dg7J/Hq3irs7x1E87CeDtOyIJOi6lQOHNfeyjSFIpEdiUN++p6DkVA0g1E+y7ZBesk7gW9d2hCzre0a/rewC8/mOBC9swyrMuoQZWtVDuB6FYyGnd9IO15g9Bw3vbBlE8FUwDi61mDUKrRHYuQyx26EZ+maEqQCJsGZ2oWV29vw4Cd1WPxmOSwppQhOKkMw4WgOP6UGmkiSvgOUn2UQGfVMJKPAuYa669Onvn3MsP5KYiyBJbHIKKVKtfbMN/IaBsTcYOSLiEA0Q9GPVO++38wg6L6/fA8luRpQlJUt7u/G35j2sVycUoNQujytK0B48kn8Pq0Sn5b1wn5LG0+vuoBhJ2VE6oH6T8a2WRDS415wKFCcH2V6QUiM0knsNrbNXcHPQy69rpIqNZcKnrzqwkdN3+B3h6rxbFoJHkuvwqrMZkTRBYZLBDMZhswMIw0wHV27XQE00qZrgef0wMj5yZnA0aNSCyi9JEs150gVuxsRGV0IT+vAiq9asPzTOix9vwrWLRUITqlEcLKRIImQTKqEJVlHTdZShe9AMlxJ3IPJd7/ps/mYQHv0S2XSfcIXkp5jDE4kEFmMl5pb4jeBkdc1A8gt1VNak31G7f4OdwGKBhjpwO3li5lcrTL+WVQel3KEJpRhaUIZlsfn48cfF+HdM33I672NTkNapHfJiIsI5Gj2gJGffIvWID1wlOPnul64YBQdW3WqR6WmIaaV66ivDCGhoA4vZhXjmbRKrE5vwiq1RLAb4RmdCMtkgAlKX6LCEpR6KV4kXWQyDTAacRy9sv2ZM/+N2RajzWTg6A+eGtzKCMM5R2Pu0TwPKe0ItR6cECX0OxGe3omHtjZj8XsOWLZUInhjBYKSy7GIEmRKJUI20XptZGajkUbl9tX+cCrHr5ooNw0kwyXErDbplTamY8xSRKDtke4m1ReEHuHI+UIBpCHp+wWjeY5Rpi8EiPJim7tnQyhamf40pUalQQ3dWIfQlFpl/LPEFCFkQz7uj8vHqs35+GtmNY72ONE7ooPw0hJNlZmoE5FHWv6hKEfNNQq977cgwai+onL6ZiwyF5xOJ4ZcLmXqp4Moo/7WDgzD1tyLmNON+GmWHWtSG7AqswtRhvoZntmLMFsPwhieTKVBICA1XDQYKV22uwNQTB2MkrlwumD0B8tJbrN1YkVqO5Z/2YylH9XB8mYlgjaWISi5VAHSkkKp0a7ybOh8G4Sk8dY3O3TLoHarSR61KQDGGYLH7EOq+lnUbQGdT60kP/M9BYQ8Ts4177/77SD395aXqn7Jysqd4LhKWNefQei64wjbmI/fpNbj46ILqLqqvUkGnSMYdnGucOw/gaS5HvvouduzsMHICLZ0+CYYnU6VF4bqNKP+MjRZ+Q0ntjVewW93V+GJHXY8ktaM1RntiKaV19aLsEwDjEyBINZggWMmwUgJUjuGTwuMTLUwQYDaiVXtScLQS2Un4OkM3ocHt7Yi5B07gjeXISiFYCxVkiPzDwcn2xGc5FBFg1HDUa/08B5YZmlRWx699/udfxKwBmpvCdIMRcOlxTO36wNEUZP9gVFU6rutLo/x/FQsyHi9PJFLFLlu21yCY0oQ+o8TuO/1vXjmreN48/Q55PW7lLSo/RWdBhjHRqMZiNKeO/yNfad5A6N0AmsRqTkLwc/q/7KA2uVUEuOwk/5Peh015yzo+E3/qCMXnEgs7MVLe5rxVGot1uxswOqMDkRl9SEiqw/hWT1aYszuQjiLgFGpp1yaZ1ilx1SZmR51rDKPYMzqRqStDyt2deKBz5qw5P1qWDaXG5IjpUeCkfOPfuAoqynMA8IkNQakxRm+FGYFjPwOIimynuF3msb5lBi11KjvHWRAkv6zlvhKBK0rwH3rDuPpt07gNZsdexpvoOEmcIk2AWOBH1109JgeG0JmFox91NzumRcwmjuCbQEja92JXAljhPR2ajCOOF0qJwwt1HTfkVUx1XeAnc238XpeL17Y5cAj2xx4JL0Nq7L6EZXdj4jsXoRndyMsu0sVzjmKc7UOcEuJTTL+jQXAsbbPMxizuEqmF2Fp3Vj+eRNC3q6EZXMFgjeWIzhFDDN2NxzdarU/ME5j4MzHYL0n7jlrYJx7GPrtXzX9UqMcuYPj7QhhYitayt84iYc37Mcftpfiq7OdqL3iUosxON1FMIq5RY/puQXbTO+2IMDoC0qNRw8YXU6X5iR5aYCUnc6J3U4XkP8t8Gn9AP6wvwXPp9Xi0dQmRGV0a6mRYMzyBqOCI5fgKaPHvQjGDoRndmBlejvC0jsRkdGDFTs78eAXLVj6YR2sb9ph2Vw5LhxnTSr0C4EFMqDnC/Z++0Skv8mq0gulD7nqxVOUESm2DJbYYiyLL8Bz7xfg/VNdKO6+jvO3R1R8g1tOepGMP7c4U3Dd7fPnBYz8R/nCUD57/sHG+mkj6o6vPM7jae1iaDJG4Dl20YWUM734dW49nmLK1dRmRNsYyFa7uyjfQGWhpgXYo0JzXXW4SnE6llQ43vb5khg7sDKjHT/c2YKVaZwr7UOkrR8RGf14aGsbFr9XreA4luSo5h3F7WOm8PALgYUyqOfpe/jtk7kAo3lJobk9s35QKnScXVmhQ+JKYPnHSSxZdxRr3izAXzMcONQ2gHMjOugLJcXbIyOg4eVe/ps3MAocx+08oaXUPgez62mMYbTvutvA193DSCm+gP+01eCR1DqsymhBtHLLYYCGXiNIA8HIecUWRGS1qjL2HOJ4UOS++QNjmI0SYwfCMuTf1qei8qzY1Y2HtrYryTF4UzmCN1G1pvRozDfKnKMbjDJgpzl4/EJgmteaKaQXyvl++0T6+W5JjGYQ+mtP95nQEu2ANdGBkIRKLI07o+YVo5KO4n9zm1XGv6orAJ24OcWlVrS4aI2mVzIH7r35N69gnHSXCRhVLfOPxKL2padK/Y0LaBoCMjsG8d8Hm/CMrQ5r0hqwKr0Fq7jsLrPfWHZHabEVEdlNiGCu6mxmHmwdx8AyHhznD4zaP5MrZPT6aonKQ0s1JcflnzfD+lal9nP0C0cZoDJgWU9j8PiFwDSuM517L9Rz/PaJ9LP0u089yio9lT40g5CBHszFvG8q19THMn4k5xQXJ1dhSUIZHojLQ2TCIfz8o1PYWnEF1TehpEXO+euQEFz0pxf+cfGfDiB27wFy4YDRC34mZHptFygO65DoxluJiLzjBC66gIIrwAc11/AKc1Jn1OCRtAY8mtWNVbZziMygJZexGwnGRjcc700w0kGcVnYPHBmVJ8KmJccfbu/AA582KbU6mAYZNxzFGGMemLKKYuoDZ1owXahAm63vNW9gNAPR3BY4Tv350gIdmliJJYkVWBJbiBVxR/FfW8vwzskOnO4ZUq45dJ9Ti/1cQ4BrCC4WFSYiAEYTyWbSNN4sXjA0S+TcQQxSYOdsxqB6I9GaPezSTqVNg8CRSy68ab+MF3PseC7dgSdtzVhtY3gvRtVhiLJWROQ0IzybZSKJkRDVZTRA51NiFDAacMzyROZR8RzTerFiZzfu/6QR1rfshuTIVTKiVleq5YOeYATiUGysrFBRVKY+kAKgHKvP5kJiNMPQ3J4+GK3x5QiNL8ayuEI8GJeHJzcfR8rRDpzoGkIr06AaRlClOLuG4XINGxKjSI46GMRMqDAf5y4QidFMQqMbRm3iBoVAcA0M03W7MAAnhnRUDvo4uoBzTqDuDrC36yYSC9rwm301eDK1QuVxjrI1q0g84VmEoQBxPDVaz0HKXCRrbzjONxj1skK35KjgqKVGHc+xDz/8ipJjMxa/W4PgTQYYveBIP0ePr2MwA+CKO495lcwYbVliKPXspwm4d1IvqD4YM70EgUk4miV1U3tWVGkzDM3tGYAxjikKGErsGJ58rxh/tdUip+EW2gaAS0PAdWWBprjigtOIsShIZH1vYhFYYGD0eDJ6ma0VK7W0SBHdiQEM46YqTgXJEeXOM+QEbrh07MbqbweR3XwRMfnNeCGjBKszqxBlY4gyqtAtCMtpRzjLmM7bbVpSVAYaGmr8GWvmEYzZHQh3F5EeRa3WUcCZIiEsrQ8rdnSrYLchb1XButnhkRrNBplkB4JZCEZVjCROidUQ6AXqmfTFvQnGkLhiLNuQhxXxx/H79EZ8XnYFlVe0BXrQ5cTA8BCGnBqBxCABSQWaEiSLtgTMh8w3s3vec2CkhDiCAQz5gFFASiWbK2MuDDpRfdOJnS2X8ZcTdXh+XzWi08oQbavBqj3tiNjdhfAcwoVwJOD8GVlEYjSB0ctQs5DA6A1HMcZQcgxPo+TYiQc+bTEkR1qq6QDu4wTuA0cVUSUAxll6MQgYOWVhkhRVW9TssdTwibaLRGiWEs1t2T/RdeQ76oAXjDK+NK4A0W+exc+/qMSHpTdQchXocxpzigYCaWDxQNETZJpjkWCkuHOv/S0wMIr+bHJ0dPeoVqX5LnJiUMGRgCQoGdRSPAP4lqKFjCkRzoHO38P4qLYP/3OyFs+kFuDxjHI8ktOIqNwuROZ2ISKbQJH1ymYJUtRmgaPMMwpADaAqsBrSm/s6cr2JagHrNGrzfSk5qrXgnG/0GGR0PEdZHdODFTs6cf8nDQh91+FxAjer1cqVR9Rqb5XaLC1qdZlRm6db7h31eCpTA+Y+8m17HOoFgv7qyYDL3zECPv+1pB7wrIf3OY4vPxVkhK45FbDEl8ISdxaLE4vwo5RTeGl7FTaf7MPJPpcaU1zZQuCJNzIX/TmNJHbczjFIKAYkRje8ZtIwQXHMy6hHYBhcqFLriV5uVcF4jIdBswylRjp/NzuBMzed+Li2E7/bU4gXMoqwame5Sru6ek8vonLoAC5zdSJBtiE8xwNGzivSAONRu/1AUdTaScPRBEORWqdVC3zl3yCSI8OuSYKtboRndiM8vQsrdrbj4W2tuO+f9Qh9h47gWrXm2upFieUqUrSacxRJRvk7mgejeVCZpZLJts1QNMP3O9CelFXbHxC5zdzH02mbn4t3W6cmkMhJRooCt0sPoViDkI21KlSdlekX4gpg2XACD246g2c+KsSbBRdQeNmFjgEdo4Bji9BzMY4Bo1+pomEpYOT+ABjHBNnd2KEBag59Lotj5KHIWmpKjXT+7mVw23MX8ObZGrzydSUe21GKKFs7VuVw2SDhoQGipK7sdoTltCIsp8UHjr6SonmOz6c9KTgaYBxnjtMDYrm3uRawChh9aw8oPWvDdWBcAlLB8eMGBUcaZVQ8RwVGBr3VeUaUyucOZGAerDLwJgtD83Fyrvl6gfbMwTh2H7olRZWagGDkumeWWuXzyHzloZsIRjusCWcREp+HJXFH8OQXlXh1fwv2dQzjgmF9HqAjt4rIDTB+gSouBqI1igHEABjvBvumcE2lYLsAwlHASOWajjx8sxGOdCloGxzA8Ys3sKWsCz/LsuOxzCZE7axHVFoLIjMZfoxBbTvVfGNYTpsBR5ESx5EQRVKUelJQJMRmCEY5f5L308sg+e9ksNsuFXjiR9s7sPSDOhV4IiilXMGR4cpUUekSjLmwUXAUuJmBN9m2nDv2QL6bkPg+XtsNRncEJT4DI1d0AmMt2hGSXKFSLlhjT+D+xKMI33QE/3e0B3v6XKgy3HKGObfop7ih6ANHjkeTOXUKo3r+D10gc4zT7wglPxrivFjENBj1XCNXxRCQzDLY7AJyu28htqAbv9rXiie22/HIrjqsSm9VaUwZbUci7Wg4tiNMgMe5SDUf6ZHE9LyesZ3HTRJS+rh5BKNNhywLT+/F8s8YCbxa+Tm64ciQZZQazZKjCpYqMDMGllsdmywU5TieL9cK1He9L9xApOHH6G+V/pRpUCthjS9GSHwBQhNO4r64A3j6o9P4b5sdO+pvot6p87pTwPAHRW4bBUZDSOH2ABinz7YZnqnnHc0+VAJGzjXSEMPCNdWM/O24A+y/4EJy0UX8PN2Of02rwZq0RkNqlNiMVKc1FMOyO42QZUaSKq40cadLEGOHGZaTBeRcg9FIjaDiUGowcpnkSq6t/qJVw5FrqyVkGWM5KjhqY4wKWWakSPAYX2oRnDjVQjgGwHjXYTjqxSOrmxywxOtijXMghH6KsfkIiTmC+5IOITxlL177ug57O4fhuAalQruduP1Ii2OC0ZAeA2CcId6mfzpdSEcMj3tJz0hvR72o3b2w3YBjHwNODAE5rQOIPdWNl/c24bFdtYhSq2JMYMzugIYiQ5b1ICy7F2F0oHavMNGZ/DyQFDgudDDq+dRIW6+OykNfx109SnJc8l4NrMwhk2LEc3QHumWaBJ1gS1kvlQsPLdJThSKP53kBMM4tGMXgoyPkWOLtsMZVIiS2EqGxRVgSdxLL4g5gzT9P4bcZJfjKcQEtg8CVYR3ajwIGE9JNSWI0prcCYJw+2WZwppphNFxKtZV6BCPKu4pgNLsM8AHxATPyN9Mi8G24t9eF9ad68Oz2UjyaWofV6Q2IzmgGc06L+0uYiuXIKOCM6ygBG5gDWsKZ+UqNCxOM/PdoI4xhqWb6h8xeRGWdQ5TtHMJTe/HQF20IfacKwRuZVMsMRx2Zx5JEQEp6hAAY5xZuM5lyMIGRqnNcOULiyhAaW4KlMaewPO4wVibuwSu5duxsuoGSK9qjgxHzWbhwYkwoGqq0GEB9axWIfwYjfL5OvYfnGLV1mrMYSmI0nE3pe6/nGr3dBXg0LWWcc6Rq0DcMVA0AOxtv4PXj7XhxbyOeSavCo2l1iE4nHDsRmd2NiOxuhGf36GLEdhQoKmu2igjOtAky19iJiOyOSRXtXG62NE+hPUXji57X9MCR7jvMWR3FSOdZDLDRj5U7u/HAJ03QkqMdFnECN9IkWJhgi9kHk8XlZpoSY0CVnts51ngHGHlbJa+Kq0BIbAlCYwqxJCYfy2OO4Ol38/BKagk+LutF6XWotKecelLGTEqKRvE7lyiS4Rg1wXgv/t2jYPRAUU/vij1ardjUa6f9WMQoNRKOlBz54M8DqLwF7DvnQlxBN36aWoandzqwalcDom3dWJXTi+jsHjcgIxQYxb3HqAnGbO0oTmfxyRfC0+xQPgUo0sVnWmCkNKtddjTcKfn2IpKhyljS+xCW2ouHt7YbcNSpWSk90p2H2QdDNulUmlodFmPKVOuAKj2n0iYTWcVWqGKNK0NITCFC15/EfTHHsDL2a/wpvRIZ9ddQenlYaVPUqjgvL2ow6+lAkdJjAIxz9lrwB0VvMGpzjCyGMY43Mg7KChl+XVqrubypegCwtVxHfD7nHJvxRGoT1th6sDqrF9FZ3YjK7kKkWxXtRKStS5dpQ1GkyvkAo4ajx/m7R6nUVKsJx8iMPjXn+ODnrVj2gU6TQINMUDLV6wpYNzqU1Kitm1MFohheAmCcWzA6EBxnR3BsJSwbihG6IR/3xRzHI+8V4bdpVfi05Dzs3wIXBzUQOQXFESVjhSNIucOJO44YVkxSolKZDRD6tucMDbN4o3tQYhQwqsdlvNf4GKVQtdYxPQhI/XSN/DGEo3ubNs4otRpA9S3g4HkX4vP78JP0GjyT3oTH05uxJrMF0bY2I+q34Qeo8sVQzZ6utLgAwEjLuponpdToDceIjD5EpPXjh1s7sPjdajASeFAKMw8a2QeT7NApVgNgnFPAjbI0T2be0QFrQiVCEqhCF8O69gTuW3cIYXEH8EpaDXbV3UHpFb0QgkCUEcNaPhB0ATDOInXv3qXMj4+wU8K+AUcBo2z3rdUCQpXUkT8ESo2EI8OV1QwAWa13kHLmHP6wvxX/nlmDJzPqEJ3ZiAhbKyKUUYYSF4Go5x+np0YvEDCOAUe68URlnkfYzl4s/7RFqdU6+2AZgpPpAB4A48IHooYmA81alUvOGSyNPY2H4o7huffP4NWsOmwrvfZIRDEAACAASURBVIyyyy50D+lxoGBoHrTGMAuA0dwp90RbACnwE6nRXMs+DzDNkUAIRxbOqdAJvPEOcOKCC28W9uC/sivxXLodq9JrEGFrQritVTlxh9Egk9ODcK6zzulCRM5U5hbl2PmaYzRUaXfQCe12pKRGQ3LknGOU7TyiMs4hfFcfHvq8FaFvO2ChnyMj8iQTjLR0BiTGhQ5IRsixxhYiZN0xPBB3FI9uPobXc+pxqN2F5us6JQiFA869j/ozhg4VrVESo1KvZZ00YxWMVUZd9Z7YcA+q0r79OhYc+ahpjNEGGarXGog69ATDTxCV7j8G3HQCl4aB5hvAofbreKesH68cacHTuxsQxYjfKsBtB8JyuxG+uxfhuT2IUHAU2E2lnk8wTgDHjF5wVUxEWh8i0/uxckcPHvxMzzmGvFkFS4qsoAiAccGDMb4cSxPP4keb8vH8F5VYe7ADmTXX0XwNuDEADA4CI8wUQggqzcs9ItyK2CgwGiNLiRrGqrOxwWgaY6ZLL/TmdwiMfAAiHZolRm8wChxlq/sB0WdrxAh06wLahoC8K8CWsn68/HUdnrVVYU2aA6ts9YjKaUXk7k4dtowSo8w1ivRICdJcRlmrxZ2Hq1+M9K1Tro2VM1NahkggShGHdMMPk2vFjTnHsIxurNjVgZW7ulQSMSU9Zp7DD7cZ1urNDgQpqZERW4xoLVIrVxwaV8Yqk5kX++4fM3r9Mv/N4m/or2aMRPPadR7PPhaDlu4zOm9b4itgjS9FSFwRlsSexsqUPDz/0RmsP9SOQ/0uNA8BKk+LExi4PYI7A8MYHhqGyzflKafmR3ROd0qM3sUjLTK6TgCMbpIspIZIjf7g6FGhxSgjW7Rxxvh3GL5adOWRqDyNQ8CRcyP4pPZb/D2vE7/cW4unMh2IzqhGVFajzh2jUrHqOcfwHAa/7VSRwcNM8RJH+zW2K1cdncaVhp2pl+m764wBRmO+kXCkj+PKtE6EpXUhPEMbZqher9jVqbIPLnm/DpZNjPito30HJTmUak3/RuvGWsPP0d/glm3fffCNJ0m6oZhUhUWMeKOi3siSPQOAhGBCpVEqEJxglMQKBKtQcNVGdJw6WBJrYU2qRQjDhyXYERJbpHI/L4s9iTXvnMVv02rwzpkL2N8+iLpbwHmXnlOkf+LQkAvDQ06MjDjhcnrimqpRoWyWGowyz6jhOHkoEpj34t93QGI0d7sAUiRH71rAqM0vPE+O1zX/T1lT5hyVUQZA1W1gV/23WHu8Cf9hK8XqXcWIyqhCZGY9IjJbVNxD5QSe04WwnA6szGnDyuw2hKmQYpTsCCMt4c0Eht4AnWWJ0bz+29aFcEbgYcnoVLmrCUzmsF6Z2oUHPmsG0yRYNlYhOMWQHpPssG6qweK3GmDdSAdwU5RqNcjNA56A/P7CUYGRUEyuwqIUXfPlwj6zJFQapQKcHwyOL0dwfJkqQQmlCE4sV8sz6UcalFCH4MQGWBLrsTilAUtS6rAkoRKh60/D8rd9eDj2IF78qgIfnL2Iypva8kxJkXOKFABUkAdDEiS/qDIrlZoDwRgeZknQE3txfAnRfE4AjEZfzn8lsPOGolazZZ/5W8o2OV6r4YQo11kzh8z5O4D9kgtZbTeRUNqLl4414fEcByJTHQhLrVfwiMjpQ+TuXkTu6UH4Hg1HLTV6wDh7UNTuQxq2IgFOtfZRpc1gVO1OhNk6EZbZoYu0M7rwwx0dWP5ZK5a816Alx412BKdUwrLRAevmalhSCEVKNqYiEo+CZACMlBIVGDdqONLSH5xIKDKCNqFYrguhSCDGlyAovhiWpFIVUNaSzFVHDQhOaoY1sQHW+Bq19jlkXSGWx53G0x+W4k+5LfjUfh2nz7nQO+yBodlZ26weKzB6+SJODYC+QJTP5tF2r7S/YxIju11Ax1pgJ7Xs8308st1zDqVKtYSQaVldwBUADU5gz/lhJNt78Ys9ZXh8+xlEbytF1K56rMrqwOo93Vi1rxcR+7oRltuhpEeVsCqrw/CDFJXZlC5hGmq0lhzvosTohqQHjisNQCpVm8aZtD48+Fmblhw322FRGQiNPDIqbBmhyIC3RnFLjQF1ms7xHqmxWqvTysrPqDecI6w04OgBZFB8GRbFlsKSVImQjTWwJtco9ZkqdGhCBUI3FGDx2qO47/V9eGzjUbyxrxVpjUOoGtQRcigp8kVvhqJZYiQgvcE4ERSdKoI3o3iPXzim7r2/7yAY+RDMoPPATm/3eUi+hxrnEozEKeHIHxSXEDL4RPUgcPDSAD6o6cOrJ5vwk6xKPJFahdVcY21rRlRuJ8L3EIxUq7l+mlA0g5FpEkzJtVQWQgHmVOq5ACMNMx44aumRanaPWlu9YnsXln/ajKXv16pgt3qFjCfgrYai2WDwfZMU5SXgpxY4GkYrTi1YGCMxzgFLnBmOlBypUlcgKI5zjlWwJrE4YGVQj7gShG7Iw/LYo1iz6Tj+66syJB9tR27TAOxXgX4XwBwtjBGg/DTGW71CVdotMY4HxolgaN4vA8xn3C3wj99RMEqvy0MROLI2/clus0Bp7JZdcjTDLtEow3WkXQDOXh/GV83f4NWjDfhJVjUe32XHqrQaRGa1aCjmdiOMxhhapN1gNKCY3ewDx6kAUY6dKzD6wDGjQxlnomxcPtiL8FSGLGtCyFuVsGzmCplSTyRwc94YNacolurvy/yiGFT8gNHcH/E1sMRXwxJXDWtsNaxxhKQBRzUFYUewCgRRjeD4WlgSuJqlAtaEUlhiT2NZzEGs2XQYv95agI+LenC634UO5nw25hLFV9dXWpyexGiGHsP9jVf0sX4FEhlYC7T+joORvS6II/38gFGgKLVxiM+R6vHxEEqPVzGCjsFhnLkyhLSOW0iouIyXD7Xi2Zx6RKXXYUVmC1bY2hBm0/OLjAyu1V8NxvDsJkS44Ui1WmA3lXouwWiGYyfCMzoRnt6JiPQuRGb0YOWODjz4eROWvl9tOIEzqVYFghK1I7hSG71cSwjI7wMcBYhmwxPbjHZD+DGCdg0scUaJrYGVJY6Q1Gq1tkw7YE2sQUhSA6wJnE+0I3hDISwb8vDDLYV4/rNirD3YhO2O8zhzbgDtTFrFcGAm6IhV2ReOY88xjiUxChjHA6J5n59xZ/peC7X5PQKjANL0KGSTb206xLep1WqXWiXTQYu1C9hzwYWUsn784XADnrdV4NH0SkTvciA6rRbRGU0qCG6UrQ2RSm1mHpkWSObB6UGRAJ1rMGo4htMIk9GBlWltCpBRjM6TQWfwbgXH0HccRrBbnVRLLx+kOw+zAEq4su8LGAl/gaO5rlJg9MCRgNQSI6VGVRQ4q5R0SOkxNNGBpUlVyuq8LLYA9284ihXxB/HTL4oRc7gFuW0DqLujUwa7VWfT232+wOht5vYdTQv38/cAjOx8Id8UH4ScZnrpcZ6Grg788TFVQjfhOAQcu+LC9vYbSKnsxx+PNeH59FI8sasCa3ZVY3V6C1ZndSBKOXG3Kj/HiBy98uXeAiMDT3QiPJNSYwciMhlpqBuRjO1IyXFnBx7+shXLPqyHdQvjOdq1I7haW+0As9FZU2oRnDQRGM0QYdtXujTv9923wD/He6BIMHoXqsrVCFaqdA2sCVSba5WEaI0pQci6AhVYdkX8cfzHx8V4LbcOn5VewLGeYdRc1+v9aWThfKIYWsQ1TSTDuyUxwjVCb3A/xTR4pjj85vPw7wkYx+5iP+zzcJTPlEUW0tDny+TnSIMMf4jMX82UCY5h4NClIXxY3Yc/H3Tg59l2PJNWjccyWvGIrV1JjmGZrSrBVkQulw+Kij0VFVqOnQ+JkVJjlxEJ3JRDJpMrZAhIGmX6VA6ZJe/VImQL/RyZmrVSBZ6wbKxByKY6wwF8LIAZ0FNOzAJA87Gm/W5pzLx/obSN+VSCzm8xoOjn3xDE4wnEhHpY4uthjaHVuRBLN5xExMZ8/PijM4g/2ILcuquoNiLj8HfI9f6cT1RGFmU81Mtg3XmffQwvM5tj9KjL/oEokAyAcWz6LNA9ZiiSfXyE6s+8wweM3MVjxVpN6ZE/SEqQhGP9EHDqmwGkd1zHprLz+MOhdvx7divW7KhG5I5arNxVh5UZXHetlwLecxKjCj5hRAKnUUkl1+pChBERnGBcsaNLpUlY8l4dgjcy2C3zyFCC5MqYGr1iRrLVjSUNioO4AocZdgJGY65u1H7zsfPYdsOQaUp9i1li5r/H+LfwZcDcOolVsMY7wGRVwesqEPz3U1iRfBbPflyJv37djU8qruFwxxAargIX72iHbUqITuVvM+TOf6Sj2fP/jBgw2lVn1sHIJYW+xctjXAbYwq+/1xKjh3+yJsZknvHs9LhDGttYCS/F4kc48q1N9boTQM0wsL9/CO9XXsRrR9vxs4xKPJtajtU7yhCV6kAkLdgZDYi00XVHpMCp1PMhMYpTuK49OWQkj4wR1zG9F2G7evHAJ80IfbtKq9WbKmHZRDhyKaFeQuhO5ekFRxP4CMdR4DP2C0xG7ScMDWlN1QYcxwTx3YKn+TuY26Pvx9BgXPFiTSxHSGIpQuOLsDSuEPfH5uPhuHxEJhzHi19WIvZQJ9IbB1FxE2gf1r61soqFL2oNxmFlKfaGogFGUX5MkqOo2JP3YxxtfHFLjL5Q5OcAGBf+W8D3G2rOaShy/bT+j8iTQqcu0xSltI3dnNBWczYm9ZouPXQGp89jwx2g6Fsgt/0W3q88j/871oj/yCzFE2mliN5Rgui0KkTZmhYoGH3TxXpD0Z0d0UgKplIlZBrrqhnoNr0P9HN88PMWLHm/BpYtFcrX0ULp0QhbpqzVo4BlAqNf+E0ERjOEuGyOQS4Mh+pR9xoNqdHzmTM5xvxdeB3Dfcdw5pZ70bhiTShHaGIJQuPPYPGGY3go7iiik4/hJQLxYCd2OK4j/4ILdTeBPpde3ifuOFp11mB0uYbhSSWsY0vJTJBXbfx2A2D0pYL+/L2WGNkFHhwSjaJ08Kfm/rl53HzMoqL8yoz1pQqSxlnMa803OSVIxnhsvgmcvjiIL+vOY+2pRvzXgRo8Z6vA45nViM5suIfAyGWHBKSeawxnjm1TVB4dCbxH5ZCJyuxHJHPI7OrG8s8asfg9B6xv6bzVQaZgt9pabYbPTMBoBlGNAUUfMM45HI1/m5oz1cv+9Dpy/js5z0iLtB2hCaUqPNgDKWcQtvEknvuwAK/sKMW7eZ043DGI2uv6hct5bRpXVGEGP0MKVO9qtQplREmOvr9k+UXLr1pU6wAYA2D02wMCRi038ufEn44oyPIz4s/OkB7ZFCiaateIE87hETiHh+AcvoOhkSHccTnV/OO3I0DnEFB6Azhw2YkPGq/gbwUd+Pm+OjyeWonV6XVYlVGPVZkNiM5sQpSNWQpbEMmo4WOsjFHrpE0RfGTpoSes2GTWTvtKgfJZwCe1bJdrChwJRnNKWUqMEo2nF1G2flVW7urEQ182YfH7dgRvLEUQk2sZUcBFmtNqtUmiUmq0qNIGRJTa7E9ilP2EEOFIKBpFwqFJbVavvVR4M5xnu60DRKiVQEnlOhBEQhms8WVgcqrQ2LO4Lz4fDyedxBMfFuPXadVIyetFTvMAii640H4HuOTSc9nDcGHI5cSgU5chpwvDLhdGXE4FRLO0aIahtE0/WZ8wYlNd9eLH+OKrSisrtTF2/I6+hbvxey8xemRGItIf9bjNeLg+qrRb46bUSDCOaDCODA9ieGQYQy6XV6QeqtctAE5eBXa2XkNKcTf+fKgeL++txU+yqvBMuh2PptqxKrUKUWm1iGJKBQbHzWLkcKNk0w+yTbn8hOfo9diM6KPAmK1rvdLGvBSxXa/VViBlyDMjHqRakWMcZ5xrvs7oNpN38R4mMDJzoldaWQ1HWqijsvoQnd2PyMxerNzVgQc+rUPoO3ZYN2tjjIQto8FBh9ISgBjLCGXlTIJD+/N51ZyX82wXtVTAGJzIvNc693VQYi1Y3NtkDtLtV0kfy0kUBVIB81TgyXPo8F6GoMRiBCcUwhp3GotjT2J5Ai3NeXjm/QK8uLUEb+xrwEdF/TjUOYzmYe2XSM2DGggNLAqMTieGTGXY6TSBUQdgFonRDEK25dfsrt1LAAWMZsduzieaP0tb5hl1rRdZi+rkW8ugWbgQ9PfNAmBUvSIPT2r3z8Y0wWh0nxzit+avTP8wuLCeV+GPkW9rqj6iWne5gLpB4MwVYG/XbXxY1ovXD9fjxcxSPLXtDFZvLULkV2WISq9FhK0ZYVxmKIXO4TltCM9tR/juToSxcH02izvFggZfZHYHIrPaEZltxH+cTJ3Tjgh3aTO1ZTuvTVcjU94bA46RWd2IzGJyrW5VIm09UEX5OXZh5a525ee49L1aWDc5YN1UrSzVlmRaY80wlDYttH6KCYgKjolVypJrcYNOAzE4kWG5pNQbbcmFLeA0OZ2PA0daihW8vaRWA47xVQiKd6iilu5x3XNitSpWfjc1V1qGoPgiLIovwKKYE7CuP4Cl63Zj1caD+MXnBYg50IDUmm9xrOsOyi+79OoVIzYo1WdxxVE6jUtLiZQUtbRIiZGvdflPJoV0bY4/6tGQvFv+J9N9f+SCEN/tE32W8+6dOgBGv89KHrTfnVPaKFciJAlIKul69QxwcQRouwmc6bqG1Kp+pOS34k8H6vDT7Co8lW7HmkyCsQkrbc1YkdmEFWxnNyM8tw3he9oRtqdTF4GjCYxuKBpgJBwVIA3oRea0ITLbKGznEIJSWhGRy9Ji1Gy3ISKXcOwwctyYwJhNIHqK3/zbhq9jeGq3TrD1bj1Ct9TCupGpEuzKIBOcVGkCpEPFHbQo9xU7LIxVmGiHVRWuFTaKG5wCoxoEJ7EQgIQigdhgFIEjt2sJ0pJY44aYJakalqSqsYsymlC991HxlaO2A0FxGo6WhGpYE3UhuINiy7EotgiL4s7AknwGyzbnI+LdU3j+k1P4U0Yx3jrZgD31F1F71YW+AeDKiJYQRdobcuqk9/qzN/S0ZOgNQPM2tsWwqOFnfulPpi2/4Cn97O/5gwNgnKdHyB/5LSfw7RBw7g7QcBs4/Q2Q1nEHCcX9+N3BBryQ5cCa1EpEptoRvqsSYawZIDenAZGE1u5WhO1uR1huO8JyqOYaKrOKKs42lyFqILrBaABSfx4Ljn7AqKA5DhhNcIygEzhTzPqUyMwuRKRzbXUXHvqsDUveqYWyUqsEW0yyxWLAkUCUouAnYDRBkXB0g1H7/ympcVwwChx9JEeuxlFFRyUPTvKuFTANMGoJUOAoq1eYu7kSwbEVKop2aGIlQuNKYd1QiEVvnMCi1w8jZP1hPLj5FJ76vBR/3NuId0svILftJoq/AZpv6xflTeYeYjR5j8lPRbzRRpKxoegLQ/mspUWNRj+KtD/l2mdbAIzzhIjv520JRkqOnDuiiw+t1/R/rLwN7Ou5g0+qLyGusAv/c7QZL+6rxQtZFXg8tQirU4uxKqMC0ZlViLTVITyrSSfpMuYilU+kyoOtfSIjCUc3DDugJEmq2O5CcHo+RxCuSqoU6VFqgaKo0qJOdyHSBEVKjmOBMYJSI1MlpPVi5fYuPPBxIxa/UwXr5gpYNpbBsrECFga8TbZrR2cFRlGTdU3V1C0tTgRGL6mRQBQoGhIj96siUiZrAaTUso8qN1VnCQlmAmOCtixbYstgiSmGNeYsFscU4P7Y03g4Pg9hSSfx2Fun8ZMvSvHfOfVIyOvBVzXXkHfBhdrbemEAXbyoMlOjIBQpywmSWGvZLgDGuaJFQGKcq572uQ9/6BwAhCPnHwlHplK4xLBmRo7rU98AmR238XZFH149Voef2Qrx9M48PLL9NKJ3FCFyZwXCU2sRnt6A8IwmRGQ2I8LGVAstOg82HceVuuwNv8jsToxfBJQyN2kYa5TRxnwuoWgUL1V6tLQo0qMsHVSS4/YOPEhXnnfo/F2qAGmlI3gKfR0572iotcZ8nZq3YzxCVXxVaY/E6CU1uuFYh+AkKQJE31ogKLV5P+ck9XyhDiRrhAJTBhmCsRJcz2xdXwDL68ew+O8HsCL2CJ56Mw8vf1mG9V+3YKv9Gg51u1DyLdA4APQwK6Xx3PmCJBTNym0AjD6DZg4/BsA4h51tvhV/9JQaZd5RJAV+ZlFLDEeg/NeO997EzoYL2FTShldP1eHXh6rxk73VeCa7Bo/aGrGKLj4ZjQqQYemNCMtgDuwWBUVKgG6JUAWy6ERkFkuXUTxzg3qeUGBnBuDoNle9qOu4wcjr6WuNKTEaqjVV6siMLkSkdWLF9jY88EkdlrxvR+jblVp69AIjjRg1KpiCJYF19QRg1HONygItKrWSCglFM+jGaSfXIoglqc4o9cacpZYMrUw9oOIl0tqsfSet8ZVYllSOhzaWIertcvzrPyvwu9Q6xBxox8eF57Cv4YZKj9FrzCHyRcgXIpeUUnVmvE+9RM+UaMokOYrESKVY1OTJ1AFV2jzqJt8OgHHyfTWrR4p6RDjyR69ASX+0EX7ScKQUwQAV3S6gZgjIvwlkn7+DDxsuYUNRN1451ISf7Waos1o8QTcfWrK3VyBqpwPR6bVYZWtEdFYzorJaVGSfqKx2RLnhqEEWkd0NKUolFtApqVIkR+/a7A6kJE8fyI4Pxk4VlUdF5slkTMdOrNzZjoe+aMSS9xmyjGq1MdcoUqOSGGkkEUNJlc/cotlybVK9lTHFVyWWuUWjdsNSpETWco7UvC8l1HKExBVjcWyhKktizkCXfDwQm4eoTWfw/D/L8afsNmzO/wbpTS6cuuhC1Q2ga1gHOSYIB13AoGFQYaa+YTpqjwCDQ04MDQ1jaHgYI076JWoHMpEcBY6+QNTw00aWUW3DWk0btLc8qq828Ta5+6z+/Bf8xQJgnKdH5PszVZ8ZvUdzUcFS5iAZNfwcgHZG8FH5rp3I7b6NL+q/xVvllxB7pg9/OdKCF3Mc+HFGOZ7eVYonUivwCPNgp1crSEZnNiKaDuMZrQjPaFXBHwjCiOweNxjd+bGVOw7VZ1Gl9XylCnxha0O4msOkcYc+kKOlT2WVVlF4GImHxSyVUs1muLIORKq6CxHMPrizDQ9+0YhlH9QoOAYrg4xHpZZYjnSb0cUMQ7Y9lmvvttmIY0ifiUw5qtOOMvWoUr2Vi00VrEwBm8xz6DJUgaCEcgTFlyI49ixCYvKxZMNJLI85jh/FH8fqTafxzHtn8fPPK/DHtBolHX5QcB7pNTdwtNuFiqtAm+GLyGkSQlHhyHjOfNZSRkaA4WEXhoedGB5xYsRpSI7uhaoCPq6ClmKyRhuJ782Z/KTtwetkYWg+LgDGeULE9/O28nPz9xMUaIqaTR82c4iz84ahpmEIKLkKHO5zYVvtFSSebsNfvq7CL9KL8MKus3hiRxHW7OC67HKVdoEqd1hqI1bsbER4Zjsic3oQwSJSY06XdsVRLjmEIuco6VjegjD6U2Y2q8hAYZkMfCFgNMPRDEBTO7sbUdk9RunW85JZ9LE0oGrTYcsiMrrx8NZWhL7NFTJlcMNRQcrjBK5dakzAY+4TKSr5ls5OaEmsgKdUGj6R1bAk1MGaWA+rgiPVc1qWtStQaEoVQlPssHKFSnwxFsWewQ825GPR2qMIWXsQ963dh/CY/Xgi+SBe+jgfr2fa8c/8HnzddBtll13oGAZ6R3TuZs4f0qjCaRGqzXyeowQ344egAsky6jZhaaQ0FUu0lhzFR1GgyNoA4zhQ5Ln0qR19Y/Mvb7y2/FK/X+M0IDHO4/OWn5z8LOUza/kpS1uOkXlJwpLzVBcGgZbrQPGFYRzouIFd9d+ogBVxRX34y6kuvHysAz/+ugXP7G7BI1nNiExvwopdjViZ1oKVjMRt60IYE15xDTRXtHAVTU47wrJaEZbF8Gi6sK2KjZ+5VNEAo0rbwDBkIh165hplzlGr6D3aeq1Udc5ZdiBKlU5EZXchKqsbUVlcIdOJBz5pwOJ3q2BRK2SoVmsrtVohw1Uy7sLtLJKNkEnpyxGcwJSjZbBw2V1iGUKSyhGSXIGQJAdCEhkAtt6IdVirgsIGxVZg0YZSLNpQjODYYljiimCJP4uQxLNYnFKEB94uR8QHFXj2Mwde2lmLV3OakHK4DV8U9mBf1XmUdF5F27dDuDwoq1M8c8eU+pVRRR6kPEDWMo9iPGwlPXpBkatRKDkay/0wYvwncDSkSAOM/lepBMA4nSEeAON0em2WzjGDcCptGVOsCUiq2hcA9BpLDh1O4Ng1ILXXhXfqrmNtYR9+d7ARP86swNO7yvDoV8WI3lqMiK2liNxeiSiVhqEaqzJqsSqzDtGZdYhIq0F4WjUiMmoRkVmPSFsjIgnW7FbDMVxLijoeowStNazRas7RJDGaVWljDjMqpwu6UJo0JMosnSZh5U5mH2SCLaZlLXe78SgfRyPorVprrSRJDcUgpfZydUkpguJKVB5mS0IJrAzjlVyGxSkVWJJSiSVJFViSUIHF8VyjXATr+nxY1p5A0GuHEPS3rxH86h6EvLYHS9fuxcPxhxC1+SSe/6ICr2S3ICHvArbW3MGhXhfsN4HWIYDSO9VkMaRQKiTIKM2JxK+3GW87eXjypjO9ASnYeUuLAkYDjkqFJhwDYJylITjmZQJgHLNr5maHGYjj3dF8HMcSxxcHHCUSqtlU1zhAJd1CwzBQfhs48Q2wp3cQ25uu4kPHeWws6cG6/Db8+WgDfr2/Br/cV42f5trxgq0cz6SX4qn0MjyWWopVO0oQub1UuQRFplYhMr1Wx4/MZICLVuU4ruMx+kCRajFBl9NrKqJG9yAqh6UbkTk8hsW0L4uBJ/rAyDxhO7vw4GfNWPZBLULfsiNkCy3WdrWU0JLigCWFK2ZY2GbaBKrTVJ0pLRKMxQiOL0Jw3FlY4gthjS9ESGw+QjacRMi6o1i87jCWrT+EB2MPY0XCEUSlHMMTb57Av31wvxOFCAAAC65JREFUGi9/WYK/ZtZgw/5WvJnXh8/Kv0VW4x0c6Xah+LJLOeMzKDENY7JcTyRDPhczGPmMWGhxprqsJxmN2vxQPatJTQ7dAkqZbxQgSh2QGMcbMzPZFwDjTHrvrpwro0dGjecmskXASBWNA3LApSf22aYlmxniCEkWOo7TcEPn8cYRoOw6cPT8AHY1X8K7FZ1IKGzC345V4be7i/Cz9FP4912n8Mz2U3jkyzxEf5mPqG1FiNxehsiddkSk1iAivQERGYRjuxG9m2D09lsk7Fbt7nOX6Nw+ROf2qhKVq4EZmdMLVbJ7EZndo9ZYR2b1qqATj+y+iDU5FxGd2Y8fbWvD0verlK/j4nccCH2rCiGb6RTO9dZMlcBSbRQHrMmEYykshGLsGSzi/OD6PCz6x3Esev0AFv0tB8H/l47Qv6Vi+dpMRCfuwb++cxgvfXYar2aUY9PhJuwoO4/jncOovAKVhpTSOKVy9idrmTOkMUXAJzUlRY9LjWe/AiZn+gSQ8jDNtSFFquX2Piq1nmfknKKWRt3zi7xfQJX2DJJZagXAOEsdOTuX4SgRWdCIfqxGkjF3bgwqY/yoI2XAue9P6+agS0WY5zYeS4DeZuL1EScu3rmD9lsDsH97A6cvXsWB/ivI6ryEr5rO4aPqHmyu6EZMcRf+L78Dvz/RgRePdOA/DrTh2T2teHJPO57Y24VHcrsQxblFSWvgA0ZuV0mz/NZdCMuU0o2wTF3CM7sRntGtwpYx86AqKjVrG5Z/VoelH1TC+mapMsoEJZdjURLzyFQiKJGFkWsYzqtMQdGaVIrFG8uwbHMFlr/twMPv1WDlh9VY84kdz21z4BdpDrySU43XDjQi5VQnPirpx66qS9jXcAWn2q6hqv82uq668M1tYGAIcJJ6hgWZrjXsc/4J04yP2uXK7WfoeZIeaOpt8sx4vvuPH0x6tDLGSCBkqd3X9vgyKvecABjd3ThbjQAYZ6snZ+U6anSYZuVJQtMINMAoRxF6bHv9EYxDGozqOGPdLQcnAUkph0YbWkspCTHLYRulSQB2J1BwCzj4jQuZfUP4rOUm3qy6jA2FPfjz0Wa8crARvz3Ygl/srsPzqZV4dpcdz+yy42l3ceCpVAce31GBR7aVYs22Mqz5iqUca7azVGC1KpVYvUOKHWt2sDhUeWSHA49sd+DRHQ48vrMKj263Y/WX5VjxQT6WJh1CaOxBhKw/gJB1hxGy7hBC1x3E4nUHsHjdfixd9zUeiDmAHyZwbvA4Hn+vAC98Voaf76zBbzIb8Or+Nmwpuoht9bewu9uJvCva/anVyNcjVmT2j0iDyul6WPfp0JATg8OU2PQf+59Rbcx/Isnp2gNHniNFXmw80322iJJOT6gvEyfdUqHHNm1qGcYZWp/HKqN+SL4/rAk/m/+V3/12AIwL6hnLUBHkuYeN+1vKEebavZMNqmAmYZODS9IvCBx93X84L0l1uwdAq1OHRKu8BRRdA/Iuu3D43BD2dg8gp3MAWV2cr7yBDysv4e3SC9hcfB7JZ/sQX9CNmNOd+EdeO/52tBl/PlCHPx2oxR/31+L3+6rx2z1V+PVuB17OteNXuXa8xLLb4S6/2u2AKrkO/CqXx1Xh13uq8es9Nar8KtuOX6aX42fbS/CTL4rw863leGl7JX6bVoX/zqrDX3Mb8NreRsQcbsfGvG68e6YfH5dewldV15DecAvZzbexv+MOTp1zofQKUHMDaBkEel16XlZUZE5FuKFoCHHKKMI8T8qdRnsFGl2t1Gbpfz4T7WDtmUoUGLIWIEotz1Cfb3wSPZpuNl7vRAkTNsqF21Dex94egKI8ocnXATBOvq/m6EjzcBj/lnKkv6NEABGVTAHSkFooOYr0SEjSospCKNCYQIlJjDkEBgslTBobOGfJlTi1N4CKK0DRRRdO9Q3iSOdNfN16FTmN32BX9Tl8UdGFT8qoprbjnbMt2JJPtbUeiSdrEX+yFnEseX7KyVrEnqhR+xNO1SM5vxGbCluwpagd7xR34a2Cdmw+0Yz3Tnfik7N92Gm/jJzG69jfPoATvcMo/QaouwW0DurvSasxvze/P+cIGROT/z7+O/nv5b+bfUAYsk8MrVlBjP3r70/6fbxa4DdebT7fP7zMd5ejx7uiv31yntTmawbaY/VAAIxj9Uxgu98e4NAbGAauDjhx+aYT566PoOfaMDquDqH120E0XrmDmsu3UXnxJsou3kTxhZsoPH8Dp89dR17/NZzou4bj/ddx7BzLDRw7712OnruBI/3XVTnK487fwPELN3Hi4i2cujiA0+du43TPTZztHUDpuTtwXBpC/bcjaLk2gs4bIzg34MKVIc6nunDbqSOoU5bScp4BB2HERLXfHvBsnOj0qe2Xo9nD0vbcy7PNH/wm2ubveuZrB9q+PRAAo2+PBD6P0wO0gGrVnJIV1/zSIu4rbVIqo3QmUibn7qiuc06TEtxEhWo900DQJcZcuI3n8nr+pEBKgJT+vFxn3PN4AofR87ZuDpkOUdvG6Qnu8j18Zp/9nW3+ArJ/Igj62y/nmq8XaI/XAwEwjtc7gX2mHtCDS6/EMOBoRIUhIKmKshBMZpVc1HLCUoBJaI5XqMaz8HizGk8Y8jO3c7+vSuyrDvMbe/5MlivhxES152S/rYlOn+p+b9T63lKu5g98E22Tc32vGfg8Vg8EwDhWzwS2m3pABpbZ6umC0+lSwQ4Y8IDWWRp5VLQYY76Oc3aU3qQIPH0/y3bW3CcGCyWVGrCluxEjnt92ailV+W4SyIxUYw7b5ZYQZ0GkM/WAv6b0ymzV/u7h2SZ3mQiC/vbLuZ6rBVrj90AAjOP3T2Cv6gEZWASjTpsJpsaUdJm0pE5C95SrTLVTlQGJFuERF4ZVAYbpljTCbdpa7P4KcpPZqCf4orNxC/M1xr+dHOkPfBNtk3PHv0Ngr6cHAmD09EWgNUEPKIcRk6+cZESc4LRZ2a3hqCVUhuWSosNzjYFl4cF06wm++XQvO9Z5499OzpoIgv72y7nj3yGw19MDATB6+iLQGqcHZGj5q8c5bdZ3CZwl4oz6bMQs1O0Z3NL3HzfBpXwPn+nn8W8nV/cHvom2ybnj3yGw19MDATB6+iLQGqcHZGhNph7nMjPcJXcnCPRMpGdxnKxSFkdnMzLHkCj9fRu5BesJ/syHzkZ7/NvJHSaCoL/9cu74dwjs9fRAAIyevgi0xugBGVZTqT2XkrNkwMpnzxETt+QcuYaYZ7wX4BlhW00rQQSOHnvvhPeSW7Ge4M986Gy0x7+d3EH6YCq1nDv+HQJ7PT0QAKOnLwKtcXpAhtbkagJJJDfCi/ZlKbI4bpybjbFLMDe6lntpV27f/VPAoudQ/kMn+JtcX3hfcrxzxr+dnDkVIMqxcu74dwjs9fRAAIyevgi0JtEDMsTGqjWiGOCAAbKG4cSQKi4MQpdhA5oeYEx027HuNfb2sfeMeS9/p4x5sN7h75SZbBv/dnJlgd1Uajl3/DsE9np6IABGT18EWtPsAbOEpmO+aCiOYAgjGIQTd+DEgFEISkqRkwOj+bjJtj3/DPMZBMkUnbw9F/r/27OjHQRhGICi///HPpBopqlDMEygvNTjCwO2lt7JDYOvrXn0jPbXJO+DkWGPEKNvjH0H0xgQIMYBIKfHBLoY40nxU4zT/XafPsTYniuJcc6gtbd/0Ttk9+s2xo0zbOf/r7PE+F/zfVG1XY3xbrEvpftyui2r2/vGV5/fxNgueH5rj9rrApcj1j3OHFlGP7o/voajkWPcOIMenQAxdhZapwmsBfmS4PzrcXwgOZ1sR4BKcoha9mx3oNL1SYAY/REuJrC8gS9OJzwCCQSIMQGiEAggUIsAMdaaT9UggEACAWJMgCgEAgjUIkCMteZTNQggkECAGBMgCoEAArUIEGOt+VQNAggkECDGBIhCIIBALQLEWGs+VYMAAgkEiDEBohAIIFCLADHWmk/VIIBAAgFiTIAoBAII1CLwABUF8Xxme8Z/AAAAAElFTkSuQmCC;" vertex="1" parent="1">
          <mxGeometry x="1270" y="230" width="100.3" height="100" as="geometry" />
        </mxCell>
      </root>
    </mxGraphModel>
  </diagram>
</mxfile>
